<svg width="16" height="15" viewBox="0 0 16 15" fill="none" xmlns="http://www.w3.org/2000/svg">
<path d="M0.956101 14.2938C1.20515 14.5177 1.50082 14.6953 1.82623 14.8165C2.15163 14.9376 2.5004 15 2.85261 15C3.20483 15 3.5536 14.9376 3.879 14.8165C4.2044 14.6953 4.50007 14.5177 4.74913 14.2938L14.0207 5.95877C14.3837 5.63604 14.6721 5.25199 14.8695 4.8287C15.0668 4.40541 15.1691 3.95124 15.1705 3.49228C15.1719 3.03333 15.0724 2.57865 14.8777 2.15439C14.683 1.73013 14.3969 1.34465 14.0359 1.02011C13.6749 0.695571 13.2461 0.438377 12.7742 0.263313C12.3022 0.0882485 11.7965 -0.0012328 11.2859 1.2828e-05C10.7754 0.00125846 10.2702 0.0932066 9.79929 0.270571C9.32842 0.447936 8.90118 0.707218 8.54215 1.03351L2.43093 6.52698L2.85261 6.90605L8.96353 1.41259C9.26718 1.13593 9.62871 0.916013 10.0273 0.765481C10.4259 0.61495 10.8536 0.536783 11.286 0.535481C11.7183 0.534179 12.1466 0.609768 12.5463 0.757895C12.946 0.906022 13.3092 1.12376 13.6149 1.39858C13.9206 1.67339 14.1628 1.99985 14.3276 2.35917C14.4924 2.71848 14.5765 3.10354 14.575 3.49219C14.5736 3.88083 14.4866 4.26538 14.3192 4.62369C14.1517 4.982 13.9071 5.307 13.5993 5.57997L4.32775 13.9147C3.93652 14.2664 3.4059 14.464 2.85261 14.464C2.29933 14.464 1.76871 14.2664 1.37748 13.9147C0.986252 13.563 0.766462 13.086 0.766462 12.5887C0.766462 12.0913 0.986252 11.6143 1.37748 11.2626L9.38492 4.06422C9.55306 3.91554 9.77974 3.83261 10.0156 3.8335C10.2514 3.83439 10.4773 3.91902 10.6441 4.06896C10.8108 4.21889 10.9049 4.42199 10.9059 4.63401C10.9068 4.84602 10.8145 5.04978 10.6491 5.2009L5.80258 9.55795L6.22396 9.93675L11.0707 5.57997C11.3482 5.32839 11.5034 4.98827 11.5026 4.63404C11.5017 4.2798 11.3448 3.9403 11.0661 3.68982C10.7875 3.43934 10.4098 3.29827 10.0158 3.2975C9.62173 3.29672 9.24339 3.4363 8.96353 3.68568L0.956101 10.884C0.707045 11.1079 0.509483 11.3737 0.374695 11.6662C0.239907 11.9588 0.170532 12.2723 0.170532 12.5889C0.170532 12.9055 0.239907 13.2191 0.374695 13.5116C0.509483 13.8041 0.707045 14.0699 0.956101 14.2938Z" fill="#323232"/>
</svg>
