<svg width="25" height="25" viewBox="0 0 25 25" fill="none" xmlns="http://www.w3.org/2000/svg">
<circle cx="12.5" cy="12.5" r="12.5" fill="url(#paint0_linear)"/>
<path d="M16.5106 7.8901L16.5106 7.89013C17.5469 9.40676 17.7842 11.3241 17.151 13.0172L17.1498 13.0204C16.9899 13.4573 16.7299 13.8954 16.3698 14.3174L16.3677 14.3199L12.0125 19.4934L12.0123 19.4936C12.0081 19.4986 12.0034 19.5 12.0002 19.5C11.997 19.5 11.9923 19.4986 11.988 19.4935L11.9879 19.4934L7.63147 14.3185L7.63148 14.3185L7.62914 14.3158C7.27121 13.8968 7.01068 13.4583 6.8491 13.017L6.84911 13.017L6.84793 13.0139C6.21619 11.3242 6.45333 9.40689 7.48977 7.89013L7.48979 7.8901C8.52957 6.36824 10.1701 5.5 12.0002 5.5C13.8302 5.5 15.4708 6.36824 16.5106 7.8901ZM12.3827 18.9886L16.3406 14.2873L16.3445 14.2827C16.6887 13.8793 16.9524 13.4481 17.1171 12.9985C17.746 11.3151 17.5059 9.41952 16.483 7.92249C15.4544 6.41701 13.8169 5.54895 12.0002 5.54895C10.1834 5.54895 8.54574 6.41703 7.51722 7.9225C6.49449 9.4194 6.25446 11.3149 6.88201 12.995C7.04791 13.4476 7.3111 13.8783 7.65479 14.2813C7.65515 14.2818 7.65551 14.2822 7.65587 14.2826L11.6177 18.9886L12.0002 19.443L12.3827 18.9886ZM16.3196 14.3098L16.3209 14.3085C16.3196 14.3099 16.319 14.3104 16.3196 14.3098Z" stroke="#000037"/>
<path d="M9.5957 11.0489C9.5957 9.70015 10.68 8.61182 12 8.61182C13.3199 8.61182 14.4042 9.7003 14.4042 11.0489C14.4042 12.3976 13.32 13.486 12 13.486C10.6799 13.486 9.5957 12.3976 9.5957 11.0489ZM9.63293 11.0489C9.63293 12.3608 10.6891 13.437 12 13.437C13.3108 13.437 14.367 12.3608 14.367 11.0489C14.367 9.73693 13.3108 8.66073 12 8.66073C10.6891 8.66073 9.63293 9.73693 9.63293 11.0489Z" stroke="#000037"/>
<defs>
<linearGradient id="paint0_linear" x1="12.5" y1="0" x2="12.5" y2="25" gradientUnits="userSpaceOnUse">
<stop offset="0.151042" stop-color="#A3E419"/>
<stop offset="1" stop-color="#83BB0D"/>
</linearGradient>
</defs>
</svg>
