<svg width="25" height="25" viewBox="0 0 25 25" fill="none" xmlns="http://www.w3.org/2000/svg">
<circle cx="12.5" cy="12.5" r="12.5" fill="url(#paint0_linear)"/>
<path fill-rule="evenodd" clip-rule="evenodd" d="M20.4503 8.61162C20.5662 8.22533 20.4503 7.94141 19.8989 7.94141H18.0755C17.6119 7.94141 17.3983 8.18665 17.2824 8.45715C17.2824 8.45715 16.3551 10.7172 15.0415 12.1852C14.6165 12.6102 14.4234 12.7453 14.1915 12.7453C14.0756 12.7453 13.9079 12.6102 13.9079 12.2239V8.61162C13.9079 8.14797 13.7733 7.94141 13.3869 7.94141H10.5217C10.232 7.94141 10.0578 8.15656 10.0578 8.36051C10.0578 8.80007 10.7144 8.9014 10.7821 10.1376V12.8228C10.7821 13.4114 10.6759 13.5182 10.444 13.5182C9.82593 13.5182 8.32245 11.2479 7.43058 8.6503C7.2558 8.14536 7.0805 7.94141 6.6145 7.94141H4.79116C4.27021 7.94141 4.16602 8.18665 4.16602 8.45715C4.16602 8.94008 4.78426 11.3354 7.04429 14.5034C8.55115 16.6666 10.6738 17.8396 12.6055 17.8396C13.7646 17.8396 13.9079 17.5791 13.9079 17.1304V15.4953C13.9079 14.9743 14.0177 14.8704 14.3845 14.8704C14.6552 14.8704 15.1187 15.0056 16.2006 16.0486C17.4368 17.2847 17.6405 17.8396 18.336 17.8396H20.1593C20.6803 17.8396 20.9408 17.5791 20.7905 17.065C20.6261 16.5527 20.0359 15.8095 19.2526 14.9283C18.8276 14.426 18.1901 13.8851 17.9971 13.6147C17.7266 13.267 17.8038 13.1125 17.9971 12.8036C17.9971 12.8036 20.2185 9.67423 20.4503 8.61175V8.61162Z" fill="#000037"/>
<defs>
<linearGradient id="paint0_linear" x1="12.5" y1="0" x2="12.5" y2="25" gradientUnits="userSpaceOnUse">
<stop offset="0.151042" stop-color="#A3E419"/>
<stop offset="1" stop-color="#83BB0D"/>
</linearGradient>
</defs>
</svg>
