<svg width="69" height="50" viewBox="0 0 69 50" fill="none" xmlns="http://www.w3.org/2000/svg">
<path d="M40.3596 24.1908H38.5042V19.9955C38.5042 15.5931 34.9227 12.0117 30.5205 12.0117C26.1182 12.0117 22.5367 15.5933 22.5367 19.9955V24.1908H20.6816C20.0283 24.1908 19.4987 24.7204 19.4987 25.3737V42.8147C19.4987 43.468 20.0283 43.9976 20.6816 43.9976H40.3596C41.0129 43.9976 41.5426 43.468 41.5426 42.8147V25.3737C41.5426 24.7204 41.0129 24.1908 40.3596 24.1908ZM24.9026 19.9957C24.9026 16.898 27.4228 14.3778 30.5205 14.3778C33.6181 14.3778 36.1383 16.898 36.1383 19.9957V24.1909H24.9026V19.9957ZM39.1766 41.6318H21.8646V26.5569H39.1766V41.6318Z" fill="url(#paint0_linear)"/>
<path d="M29.3376 35.6296V38.5034C29.3376 39.1567 29.8672 39.6863 30.5206 39.6863C31.1739 39.6863 31.7035 39.1567 31.7035 38.5034V35.6296C33.133 35.1371 34.1635 33.7795 34.1635 32.1849C34.1635 30.1762 32.5292 28.542 30.5206 28.542C28.5119 28.542 26.8778 30.1762 26.8778 32.1849C26.8778 33.7795 27.9081 35.1373 29.3376 35.6296ZM30.5206 30.9081C31.2247 30.9081 31.7975 31.481 31.7975 32.1851C31.7975 32.8892 31.2247 33.462 30.5206 33.462C29.8165 33.462 29.2437 32.8892 29.2437 32.1851C29.2437 31.481 29.8165 30.9081 30.5206 30.9081Z" fill="url(#paint1_linear)"/>
<path d="M67.6773 14.1696C67.0579 13.3841 66.1289 12.9336 65.1286 12.9336H61.0412V8.67984C61.0412 7.02463 59.6945 5.67809 58.0395 5.67809H29.4733C29.2769 5.67809 29.1007 5.55396 29.0345 5.3691L27.8067 1.93329C27.3936 0.776817 26.2909 0 25.0629 0H10.7417C9.51375 0 8.41107 0.776975 7.99782 1.93329L6.7699 5.36926C6.70381 5.55412 6.52746 5.67825 6.33125 5.67825H3.00174C1.34669 5.67794 0 7.02463 0 8.67984V46.9983C0 48.6535 1.34669 50 3.00174 50H58.0395C59.6349 50 60.9398 48.7479 61.0322 47.1754L68.2849 16.9366C68.5182 15.9636 68.2967 14.9551 67.6773 14.1696ZM58.6753 46.9981C58.6753 47.3487 58.3899 47.6339 58.0395 47.6339H3.00174C2.65111 47.6339 2.36594 47.3486 2.36594 46.9981V8.67984C2.36594 8.32921 2.65127 8.04403 3.00174 8.04403H6.33125C7.52463 8.04403 8.59624 7.28898 8.99782 6.16516L10.2257 2.72919C10.3035 2.51184 10.5108 2.36578 10.7417 2.36578H25.0629C25.2938 2.36578 25.501 2.51184 25.5788 2.72935L26.8066 6.16532C27.2083 7.28914 28.2799 8.04403 29.4733 8.04403H58.0395C58.3901 8.04403 58.6753 8.32936 58.6753 8.67984V46.9981ZM65.9843 16.3848L61.0412 36.994V15.2994H65.1286C65.4999 15.2994 65.7209 15.5094 65.8196 15.6346C65.9182 15.7597 66.0709 16.0236 65.9843 16.3848Z" fill="url(#paint2_linear)"/>
<defs>
<linearGradient id="paint0_linear" x1="30.5206" y1="12.0117" x2="30.5206" y2="43.9976" gradientUnits="userSpaceOnUse">
<stop stop-color="#00E19E"/>
<stop offset="1" stop-color="#81E7FF"/>
</linearGradient>
<linearGradient id="paint1_linear" x1="30.5206" y1="28.542" x2="30.5206" y2="39.6863" gradientUnits="userSpaceOnUse">
<stop stop-color="#00E19E"/>
<stop offset="1" stop-color="#81E7FF"/>
</linearGradient>
<linearGradient id="paint2_linear" x1="34.1878" y1="0" x2="34.1878" y2="50" gradientUnits="userSpaceOnUse">
<stop stop-color="#00E19E"/>
<stop offset="1" stop-color="#81E7FF"/>
</linearGradient>
</defs>
</svg>
