<svg width="37" height="52" viewBox="0 0 37 52" fill="none" xmlns="http://www.w3.org/2000/svg">
<path d="M2.17949 12.184L2.0396 12.1299C5.10669 4.20219 13.394 -0.412254 21.7527 1.15365C30.1114 2.71956 36.1639 10.0205 36.15 18.5199M2.17949 12.184L36 18.5197M2.17949 12.184L2.03959 12.1299C-1.01131 20.0168 1.96759 28.9513 9.12557 33.4361L2.60317 48.1025C2.44179 48.4644 2.51387 48.8878 2.78561 49.1761L2.89478 49.0733L2.78561 49.1761C3.05732 49.4645 3.47597 49.562 3.84721 49.4223L9.84555 47.1739L12.7335 50.7813C12.9199 51.0146 13.2027 51.1505 13.5015 51.15M2.17949 12.184L12.8507 50.6877C13.0085 50.8853 13.2482 51.0004 13.5013 51M36.15 18.5199L36 18.5197M36.15 18.5199C36.15 18.5199 36.15 18.5199 36.15 18.5198L36 18.5197M36.15 18.5199C36.1426 24.5865 33.0153 30.2192 27.8764 33.4361M36 18.5197C35.9927 24.578 32.8471 30.2 27.6862 33.3776M27.8764 33.4361L27.8233 33.3167L27.6862 33.3776M27.8764 33.4361L34.3988 48.1025M27.8764 33.4361C27.8393 33.4593 27.8022 33.4824 27.7649 33.5053L27.6862 33.3776M27.6862 33.3776L34.3988 48.1025M34.3988 48.1025L34.2618 48.1636L34.3989 48.1026L34.3988 48.1025ZM34.3988 48.1025C34.5602 48.4644 34.4881 48.8878 34.2164 49.1761C33.9446 49.4645 33.526 49.562 33.1548 49.4223M34.3988 48.1025L27.1073 46.9953M33.1548 49.4223L33.1549 49.4223L33.2076 49.2819L33.1548 49.4223ZM33.1548 49.4223L27.1564 47.1739M27.1564 47.1739L27.2244 47.089L27.1073 46.9953M27.1564 47.1739L27.0546 47.1357L27.1073 46.9953M27.1564 47.1739L24.2688 50.7814L24.2688 50.7815C24.082 51.0146 23.7993 51.1505 23.5005 51.15M27.1073 46.9953L18.5818 40.1197L18.501 40.3215M23.5005 51.15L23.5007 51V51.15C23.5006 51.15 23.5005 51.15 23.5005 51.15ZM23.5005 51.15C23.4519 51.15 23.4042 51.1461 23.358 51.1396L23.3573 51.1395C23.0107 51.0886 22.7172 50.8573 22.5875 50.5318M22.5875 50.5318L22.5876 50.532L22.7268 50.4762L22.5875 50.5318ZM22.5875 50.5318L18.501 40.3215M18.501 40.3215L14.4148 50.5319L18.4202 40.1197L18.501 40.3215ZM13.5015 51.15C13.5501 51.15 13.5977 51.1461 13.6439 51.1396L13.6447 51.1395C13.9913 51.0886 14.2847 50.8573 14.4148 50.532L13.6229 50.9911C13.5826 50.9967 13.542 51 13.5013 51M13.5015 51.15L13.5013 51M13.5015 51.15C13.5014 51.15 13.5013 51.15 13.5013 51.15V51M13.2151 48.2362L10.9362 45.3888L10.9362 45.3887C10.6702 45.0567 10.2214 44.9335 9.82312 45.0821L9.82292 45.0822L5.35366 46.758L10.8518 34.3926C13.1014 35.4842 15.5583 36.0812 18.0576 36.1436L17.5984 37.2908L13.2151 48.2362ZM20.2029 36.0668C22.2693 35.8651 24.2831 35.2973 26.1502 34.3902L31.6487 46.758L27.179 45.0822L27.1788 45.0821C26.7806 44.9335 26.3318 45.0566 26.0661 45.3888C26.0661 45.3888 26.0661 45.3888 26.0661 45.3888L23.7869 48.2362L19.5601 37.6747L20.2029 36.0668ZM18.5008 34.1934C9.83986 34.1933 2.81856 27.1761 2.81856 18.5197C2.81856 9.86357 9.83995 2.84591 18.501 2.84591C27.1624 2.84591 34.1833 9.86348 34.1834 18.5195C34.1737 27.1721 27.1583 34.1842 18.5008 34.1934Z" fill="url(#paint0_linear)" stroke="url(#paint1_linear)" stroke-width="0.3"/>
<path d="M19.4904 10.4789L19.4905 10.479L21.5773 14.9242L26.2202 15.6343C26.6257 15.6962 26.9629 15.9794 27.0933 16.3685L27.0933 16.3686C27.2236 16.758 27.1254 17.1872 26.8385 17.4806L19.4904 10.4789ZM19.4904 10.4789C19.3099 10.0953 18.9241 9.85 18.4998 9.85C18.0755 9.85 17.6896 10.0953 17.5095 10.479C17.5095 10.479 17.5095 10.4791 17.5095 10.4791L15.4223 14.9242L10.7793 15.6343C10.374 15.6962 10.0367 15.9793 9.90671 16.3686C9.77636 16.758 9.87463 17.1872 10.1611 17.4807L13.5534 20.9571L12.7503 25.8796L12.7503 25.8797M19.4904 10.4789L12.7503 25.8797M12.7503 25.8797C12.6829 26.2933 12.8577 26.709 13.2002 26.9505L13.2004 26.9507M12.7503 25.8797L13.2004 26.9507M13.2004 26.9507C13.5432 27.1915 13.9936 27.2162 14.3603 27.0132L13.2004 26.9507ZM13.2154 17.4763L15.5055 19.8241C15.7481 20.0726 15.8582 20.4216 15.8026 20.7641L15.8026 20.7642L15.2732 24.008L17.9702 22.5167L17.9702 22.5166C18.2999 22.3344 18.7001 22.3344 19.0294 22.5167L21.7264 24.008L21.1974 20.7643L13.2154 17.4763ZM13.2154 17.4763L16.327 17.0003L16.3271 17.0002C16.6877 16.9447 16.997 16.7134 17.152 16.3832L13.2154 17.4763ZM23.4462 20.9571L26.8383 17.4808L14.3604 27.0131L18.4998 24.7244L22.6392 27.0131C22.6392 27.0131 22.6392 27.0132 22.6392 27.0132C23.0063 27.2162 23.4563 27.1916 23.7992 26.9507L23.7994 26.9505C24.1419 26.709 24.3166 26.2933 24.2493 25.8797L24.2493 25.8796L23.4462 20.9571ZM17.1521 16.3831L18.4996 13.5199L19.8438 16.3831C19.8438 16.3831 19.8438 16.3831 19.8438 16.3831C19.9988 16.7134 20.3082 16.9447 20.6692 17.0003L20.6693 17.0003L23.7807 17.4764L21.4941 19.8241C21.2514 20.0726 21.1413 20.4216 21.1974 20.7642L17.1521 16.3831Z" fill="url(#paint2_linear)" stroke="url(#paint3_linear)" stroke-width="0.3"/>
<defs>
<linearGradient id="paint0_linear" x1="18.5" y1="1" x2="18.5" y2="51" gradientUnits="userSpaceOnUse">
<stop stop-color="#00E19E"/>
<stop offset="1" stop-color="#81E7FF"/>
</linearGradient>
<linearGradient id="paint1_linear" x1="18.5" y1="1" x2="18.5" y2="51" gradientUnits="userSpaceOnUse">
<stop stop-color="#00E19E"/>
<stop offset="1" stop-color="#81E7FF"/>
</linearGradient>
<linearGradient id="paint2_linear" x1="18.5" y1="10" x2="18.5" y2="27" gradientUnits="userSpaceOnUse">
<stop stop-color="#00E19E"/>
<stop offset="1" stop-color="#81E7FF"/>
</linearGradient>
<linearGradient id="paint3_linear" x1="18.5" y1="10" x2="18.5" y2="27" gradientUnits="userSpaceOnUse">
<stop stop-color="#00E19E"/>
<stop offset="1" stop-color="#81E7FF"/>
</linearGradient>
</defs>
</svg>
