<svg width="32" height="52" viewBox="0 0 32 52" fill="none" xmlns="http://www.w3.org/2000/svg">
<path d="M24.6416 20.5323L24.6422 20.5329L29.1956 25.3138C30.4426 26.6196 31.136 28.3573 31.1305 30.1629V30.1628H30.8805L31.1305 30.1635L24.6416 20.5323ZM24.6416 20.5323C22.4006 18.1946 21.0722 15.1333 20.8934 11.904M24.6416 20.5323L20.6346 11.7271M31.1305 47.313L30.8805 47.3134H31.1305V47.313ZM31.1305 47.313C31.1315 47.8291 31.0308 48.3403 30.8342 48.8175C30.6376 49.2947 30.3489 49.7285 29.9847 50.0941C29.6204 50.4597 29.1876 50.7499 28.7112 50.9483C28.2347 51.1466 27.7238 51.2491 27.2077 51.25H27.2073H4.67323H4.67281C4.15674 51.2491 3.64588 51.1466 3.16943 50.9483C2.69298 50.75 2.26026 50.4598 1.89599 50.0942C1.53171 49.7286 1.24302 49.2949 1.04639 48.8177C0.849796 48.3406 0.74909 47.8295 0.750024 47.3135C0.750024 47.3134 0.750024 47.3134 0.750024 47.3133L1.00002 47.3137L31.1305 47.313ZM0.750024 30.1627C0.750024 30.1628 0.750024 30.1629 0.750024 30.163L1.00002 30.1624H0.750024V30.1627ZM0.750024 30.1627C0.745336 28.3565 1.43971 26.6185 2.68772 25.3127M0.750024 30.1627L20.8838 1.67659M2.68772 25.3127L2.68747 25.313L2.86845 25.4855L2.68772 25.3127ZM2.68772 25.3127L7.24355 20.5321L7.24399 20.5316C9.48365 18.1936 10.8103 15.1322 10.9872 11.9034C10.878 11.8511 10.7806 11.7754 10.7024 11.6806C10.5762 11.5275 10.5084 11.3348 10.511 11.1365V6.74839C10.5089 6.63954 10.529 6.53139 10.57 6.43051C10.6113 6.32866 10.6731 6.23637 10.7516 6.15934L10.9267 6.3377L10.7516 6.15934C10.83 6.08231 10.9234 6.02217 11.0259 5.98264L11.1158 6.21591L11.0259 5.98264C11.0995 5.95429 11.1766 5.93697 11.2549 5.93109L10.7485 1.69862C10.7485 1.69858 10.7485 1.69855 10.7485 1.69852C10.7342 1.57958 10.7454 1.45896 10.7811 1.34461C10.8169 1.23024 10.8765 1.12476 10.956 1.03512C11.0355 0.945473 11.1332 0.873712 11.2425 0.824565C11.3518 0.775419 11.4702 0.750005 11.5901 0.75H20.2905H20.2931L20.2931 0.750014C20.4132 0.751283 20.5316 0.777847 20.6407 0.827975C20.7498 0.878102 20.8471 0.950665 20.9262 1.04093C21.0054 1.1312 21.0646 1.23714 21.1001 1.35184C21.1355 1.46654 21.1464 1.58743 21.132 1.70662M21.132 1.70662L20.8838 1.67659M21.132 1.70662L21.132 1.70633L20.8838 1.67659M21.132 1.70662L20.6259 5.93111M20.8838 1.67659L20.3743 5.92928H20.5381C20.5674 5.92829 20.5967 5.92891 20.6259 5.93111M20.6259 5.93111L20.5961 6.17968C20.6537 6.18288 20.7107 6.19509 20.7647 6.21594C20.8355 6.2432 20.8998 6.28468 20.9539 6.3378C21.0079 6.39092 21.0505 6.45456 21.079 6.52479C21.1075 6.59502 21.1213 6.67035 21.1195 6.74612M20.6259 5.93111C20.7041 5.93701 20.7812 5.95434 20.8547 5.98268C20.9573 6.02223 21.0507 6.08241 21.1291 6.15949C21.2076 6.23657 21.2694 6.32891 21.3107 6.43081C21.3516 6.53171 21.3716 6.63986 21.3695 6.74871M21.3695 6.74871V6.74612H21.1195M21.3695 6.74871C21.3695 6.74979 21.3695 6.75086 21.3695 6.75194L21.1195 6.74612M21.3695 6.74871V11.1368M21.1195 6.74612V11.1385M21.1195 11.1385L21.3695 11.1346C21.3695 11.1353 21.3695 11.1361 21.3695 11.1368M21.1195 11.1385C21.1218 11.2783 21.0742 11.4142 20.9853 11.522C20.8965 11.6299 20.7721 11.7026 20.6346 11.7271M21.1195 11.1385H21.3695V11.1368M21.3695 11.1368C21.3722 11.3351 21.3044 11.5279 21.1783 11.681C21.1001 11.7759 21.0027 11.8516 20.8934 11.904M20.6346 11.7271L20.8844 11.7167C20.887 11.7792 20.89 11.8416 20.8934 11.904M20.6346 11.7271L20.6785 11.9732C20.7535 11.9598 20.8257 11.9364 20.8934 11.904M20.5428 6.17928H20.3443H20.5428ZM29.4353 30.1628V31.1285H14.6625C14.2317 31.1285 13.7978 31.4263 13.7978 31.9291V46.0548C13.7978 46.5507 14.224 46.8675 14.6625 46.8675H29.4353L29.4353 47.3134L29.4353 47.3143C29.4363 47.6078 29.3794 47.8986 29.268 48.1701C29.1565 48.4416 28.9925 48.6885 28.7856 48.8966C28.5786 49.1047 28.3326 49.2699 28.0617 49.3829C27.7908 49.4958 27.5003 49.5542 27.2068 49.5548H4.67371C4.38021 49.5542 4.0897 49.4958 3.8188 49.3829C3.54791 49.2699 3.30193 49.1047 3.09496 48.8966C2.88798 48.6885 2.72406 48.4416 2.61258 48.1701L2.38131 48.2651L2.61257 48.1701C2.50109 47.8986 2.44423 47.6078 2.44524 47.3143V47.3134L2.44524 30.1624L2.44524 30.1615C2.44057 28.7922 2.96602 27.4742 3.91149 26.4836C3.9115 26.4836 3.91152 26.4836 3.91154 26.4836L8.46794 21.7132C8.46801 21.7131 8.46809 21.713 8.46816 21.7129C10.9903 19.085 12.4802 15.6391 12.6702 12.007H19.2103C19.4015 15.6395 20.8925 19.0856 23.4155 21.7133C23.4156 21.7135 23.4158 21.7136 23.4159 21.7138L27.9689 26.4891L27.9691 26.4894C28.9144 27.4779 29.4399 28.7942 29.4353 30.1619V30.1628ZM19.6743 7.6245V10.3118H12.2062V7.6245H19.6743ZM12.9601 5.92928L12.5452 2.44522H19.3353L18.9205 5.92928H12.9601ZM29.4353 45.1723H15.4931V32.8237H29.4353V45.1723Z" fill="url(#paint0_linear)" stroke="url(#paint1_linear)" stroke-width="0.5"/>
<defs>
<linearGradient id="paint0_linear" x1="15.9403" y1="1" x2="15.9403" y2="51" gradientUnits="userSpaceOnUse">
<stop stop-color="#00E19E"/>
<stop offset="1" stop-color="#81E7FF"/>
</linearGradient>
<linearGradient id="paint1_linear" x1="15.9403" y1="1" x2="15.9403" y2="51" gradientUnits="userSpaceOnUse">
<stop stop-color="#00E19E"/>
<stop offset="1" stop-color="#81E7FF"/>
</linearGradient>
</defs>
</svg>
