<svg width="62" height="50" viewBox="0 0 62 50" fill="none" xmlns="http://www.w3.org/2000/svg">
<path d="M37.6393 4.93947C37.5061 4.79419 37.3124 4.69734 37.1187 4.67312L33.172 4.09201L31.4165 0.508475C31.2591 0.193705 30.9565 0 30.6054 0C30.2543 0 29.9516 0.193705 29.7942 0.508475L28.0146 4.09201L24.0557 4.66102C23.5594 4.73366 23.2204 5.19371 23.2809 5.69007C23.3051 5.88378 23.402 6.06538 23.5473 6.21065L26.3923 8.99516L25.7022 12.9298C25.6659 13.1719 25.7143 13.414 25.8596 13.6078C26.0049 13.8015 26.2107 13.9346 26.4407 13.9831C26.6344 14.0194 26.8402 13.9831 27.0218 13.8983L30.5691 12.046L34.1042 13.9104C34.2373 13.9831 34.3826 14.0194 34.5279 14.0194C34.6126 14.0194 34.7095 14.0073 34.7942 13.9831C35.0243 13.9104 35.218 13.753 35.3269 13.5351C35.4238 13.3656 35.448 13.1598 35.4238 12.954L34.7579 9.00727L37.6272 6.22276C37.9783 5.88378 37.9904 5.30266 37.6393 4.93947ZM32.8814 8.84988L33.3172 11.4528L30.9928 10.2058C30.8596 10.1332 30.7143 10.0969 30.5691 10.0969C30.4238 10.0969 30.2785 10.1332 30.1453 10.2058L27.8088 11.4286L28.2567 8.83777C28.3051 8.54722 28.2083 8.24455 28.0025 8.03874L26.1138 6.19855L28.7167 5.82325C29.0073 5.78693 29.2736 5.59322 29.4068 5.32688L30.5812 2.9661L31.7434 5.32688C31.8766 5.59322 32.1308 5.78693 32.4213 5.82325L35.0243 6.21065L33.1356 8.05085C32.9298 8.24455 32.833 8.54722 32.8814 8.84988Z" fill="url(#paint0_linear)"/>
<path d="M55.7023 8.59565C55.7023 8.35352 55.6175 8.1235 55.448 7.954C55.3149 7.80873 55.1212 7.71187 54.9275 7.68766L51.465 7.17919L49.9275 4.03148C49.7701 3.71671 49.4674 3.52301 49.1163 3.52301C48.7652 3.52301 48.4626 3.71671 48.3052 4.03148L46.7313 7.16708L43.2689 7.66345C42.7725 7.73609 42.4335 8.19613 42.494 8.6925C42.5183 8.88621 42.6151 9.06781 42.7604 9.21308L45.2664 11.6586L44.6611 15.109C44.6248 15.3511 44.6732 15.5932 44.8185 15.7869C44.9638 15.9806 45.1696 16.1138 45.3996 16.1622C45.5933 16.1986 45.7991 16.1622 45.9807 16.0775L49.08 14.4552L52.1793 16.0896C52.3125 16.1622 52.4577 16.1986 52.603 16.1986C52.9299 16.1986 53.2447 16.017 53.402 15.7143C53.4989 15.5448 53.5231 15.339 53.4989 15.1332L52.9178 11.6828L55.4359 9.2494C55.5933 9.06781 55.7023 8.83778 55.7023 8.59565ZM51.0413 11.5012L51.3924 13.6078L49.5037 12.6029C49.3706 12.5303 49.2253 12.494 49.08 12.494C48.9347 12.494 48.7894 12.5303 48.6563 12.6029L46.7556 13.5957L47.1187 11.4891C47.1672 11.1986 47.0703 10.8959 46.8645 10.6901L45.3391 9.18887L47.4577 8.88621C47.7483 8.84989 48.0146 8.65618 48.1478 8.38984L49.1042 6.47701L50.0485 8.40195C50.1817 8.66829 50.4359 8.86199 50.7265 8.89831L52.8451 9.21308L51.3076 10.7022C51.0897 10.908 50.9928 11.2107 51.0413 11.5012Z" fill="url(#paint1_linear)"/>
<path d="M18.6682 8.59565C18.6682 8.35352 18.5835 8.1235 18.414 7.954C18.2808 7.80873 18.0871 7.71187 17.8934 7.68766L14.4309 7.17919L12.8934 4.03148C12.736 3.71671 12.4333 3.52301 12.0822 3.52301C11.7312 3.52301 11.4285 3.71671 11.2711 4.03148L9.70936 7.16708L6.24689 7.66345C5.75053 7.73609 5.41154 8.19613 5.47208 8.6925C5.49629 8.88621 5.59314 9.06781 5.73842 9.21308L8.23237 11.6586L7.62704 15.109C7.59072 15.3511 7.63915 15.5932 7.78443 15.7869C7.9297 15.9806 8.13551 16.1138 8.36554 16.1622C8.55924 16.1986 8.76505 16.1622 8.94665 16.0775L12.0459 14.4552L15.1452 16.0896C15.2784 16.1622 15.4237 16.1986 15.5689 16.1986C15.6537 16.1986 15.7505 16.1865 15.8353 16.1622C16.0653 16.0896 16.259 15.9322 16.368 15.7143C16.4648 15.5448 16.489 15.339 16.4648 15.1332L15.8837 11.6828L18.4019 9.2494C18.5714 9.06781 18.6682 8.83778 18.6682 8.59565ZM14.0072 11.5012L14.3583 13.6078L12.4697 12.6029C12.3365 12.5303 12.1912 12.494 12.0459 12.494C11.9006 12.494 11.7554 12.5303 11.6222 12.6029L9.72147 13.5957L10.0847 11.4891C10.1331 11.1986 10.0362 10.8959 9.83043 10.6901L8.30501 9.18887L10.4237 8.88621C10.7142 8.84989 10.9806 8.65618 11.1137 8.38984L12.0701 6.47701L13.0145 8.40195C13.1476 8.66829 13.4019 8.86199 13.6924 8.89831L15.8111 9.21308L14.2735 10.7022C14.0556 10.908 13.9588 11.2107 14.0072 11.5012Z" fill="url(#paint2_linear)"/>
<path d="M54.8789 33.5715H52.9298C52.6998 33.5715 52.5061 33.3777 52.5061 33.1235C52.5061 32.8572 52.4092 32.615 52.2276 32.4213C52.2034 32.3971 52.1913 32.385 52.1671 32.3608C53.4625 31.3317 54.3099 29.7458 54.3099 27.9661V24.879C54.3099 21.7918 51.7918 19.2857 48.7046 19.2736C45.6174 19.2736 43.1114 21.7918 43.0993 24.879V27.9661C43.0993 29.7579 43.9467 31.3439 45.2542 32.3729C45.2421 32.385 45.23 32.3971 45.2179 32.4092L45.2058 32.4213C45.0242 32.615 44.9274 32.8572 44.9274 33.1235C44.9274 33.3656 44.7337 33.5715 44.5036 33.5715H42.5182C42.2276 33.5715 41.9371 33.5957 41.6465 33.632C40.448 32.6635 38.9467 32.1308 37.4213 32.1308H35.2785C34.9758 32.1308 34.7216 31.8644 34.7216 31.5376C34.7216 31.2712 34.6247 31.0291 34.4431 30.8354C34.3947 30.7869 34.3341 30.7385 34.2857 30.7022C35.7506 29.5884 36.707 27.833 36.707 25.8596V22.4576C36.707 19.1162 33.9831 16.3923 30.6417 16.3923C27.3002 16.3923 24.5763 19.1162 24.5763 22.4576V25.8596C24.5763 27.8451 25.5327 29.6005 27.0097 30.7143C26.9613 30.7506 26.9249 30.7869 26.8886 30.8233L26.8644 30.8475C26.6828 31.0412 26.586 31.2833 26.586 31.5497C26.586 31.8765 26.3317 32.1429 26.0291 32.1429H23.8499C22.3245 32.1429 20.8232 32.6756 19.6247 33.6441C19.3341 33.6078 19.0436 33.5836 18.7651 33.5836H16.816C16.586 33.5836 16.3923 33.3899 16.3923 33.1356C16.3923 32.8693 16.2954 32.6271 16.1138 32.4334C16.0896 32.4092 16.0775 32.3971 16.0533 32.3729C17.3487 31.3439 18.1961 29.7579 18.1961 27.9782V24.8911C18.1961 21.8039 15.678 19.2857 12.5908 19.2857C9.50363 19.2857 6.98547 21.8039 6.98547 24.8911V27.9782C6.98547 29.4794 7.56659 30.8838 8.61986 31.9371C8.77724 32.0945 8.94673 32.2518 9.12833 32.385C9.11623 32.3971 9.10412 32.3971 9.10412 32.4092L9.09201 32.4213C8.91041 32.615 8.81356 32.8572 8.81356 33.1235C8.81356 33.3656 8.61986 33.5715 8.38983 33.5715H6.38015C2.86925 33.5715 0.0121065 36.5376 0 40.1816V49.0073C0 49.5521 0.435835 50 0.968523 50H60.2906C60.8233 50 61.2591 49.5521 61.2591 49.0073V40.1816C61.2591 36.5497 58.3898 33.5836 54.8789 33.5715ZM45.0363 27.9661V24.879C45.0363 22.8572 46.6828 21.2107 48.7046 21.2107C50.7264 21.2107 52.3729 22.8572 52.3729 24.879V27.9661C52.3729 29.9879 50.7264 31.6344 48.7046 31.6344C46.6828 31.6344 45.0363 29.9879 45.0363 27.9661ZM43.3293 35.569H44.5036C44.8911 35.569 45.2664 35.4722 45.6053 35.2906L45.7385 35.678C46.017 36.5254 46.5981 37.1913 47.3729 37.5666C48.1235 37.9298 48.9588 37.9782 49.7458 37.6998C50.6538 37.3729 51.3559 36.6465 51.6828 35.7143L51.8281 35.2906C52.1429 35.4601 52.494 35.5569 52.8572 35.569C52.8572 35.569 52.8693 35.569 52.8814 35.569H54.8911C57.3366 35.569 59.322 37.6393 59.3342 40.1937V48.0267H44.3463V39.31C44.3463 37.9782 43.9952 36.6949 43.3293 35.569ZM49.8547 35.0485C49.7458 35.3753 49.5157 35.6296 49.2131 35.7748C48.9225 35.908 48.6078 35.9201 48.3051 35.8112C47.954 35.678 47.6877 35.3995 47.5666 35.0363L46.9976 33.3172C47.5303 33.4867 48.1114 33.5836 48.7046 33.5836C49.322 33.5836 49.9032 33.4867 50.4601 33.3051L49.8547 35.0485ZM30.6295 18.3293C32.9056 18.3293 34.7579 20.1816 34.7579 22.4576V25.8596C34.7579 26.9613 34.3341 28.0024 33.5472 28.7773C32.7603 29.5521 31.7312 29.9879 30.6295 29.9879C29.5279 29.9879 28.4867 29.5642 27.7119 28.7773C26.9371 28.0024 26.5012 26.9613 26.5012 25.8596V22.4576C26.5012 20.1816 28.3535 18.3293 30.6295 18.3293ZM32.724 31.5618L31.9855 33.6804C31.8523 34.0678 31.586 34.3705 31.2228 34.54C30.8838 34.6974 30.5085 34.7216 30.1574 34.5884C29.7458 34.431 29.431 34.1041 29.2857 33.6683L28.5956 31.586C29.2252 31.816 29.9153 31.9371 30.6295 31.9371C31.368 31.925 32.0702 31.8039 32.724 31.5618ZM29.2131 36.3317C30.0121 36.7192 30.908 36.7676 31.7433 36.477C32.7119 36.1259 33.4625 35.3511 33.8136 34.3584L34.0194 33.7773C34.3826 33.9952 34.7821 34.1162 35.1937 34.1284C35.2179 34.1284 35.23 34.1284 35.2542 34.1284H37.4334C40.1816 34.1284 42.4092 36.4528 42.4092 39.31V48.0267H18.8499V39.31C18.8499 36.4528 21.0896 34.1284 23.8257 34.1284H26.0048C26.4528 34.1284 26.8886 34.0073 27.2639 33.7652L27.4455 34.31C27.7603 35.2058 28.3777 35.9322 29.2131 36.3317ZM8.8862 27.9661V24.879C8.8862 22.8572 10.5327 21.2107 12.5545 21.2107C14.5763 21.2107 16.2228 22.8572 16.2228 24.879V27.9661C16.2228 29.9879 14.5763 31.6344 12.5545 31.6344C10.5327 31.6344 8.8862 29.9879 8.8862 27.9661ZM11.2228 37.5666C11.9734 37.9298 12.8087 37.9782 13.5956 37.6998C14.5036 37.3729 15.2058 36.6465 15.5327 35.7143L15.678 35.2906C15.9927 35.4601 16.3438 35.5569 16.707 35.569C16.707 35.569 16.7191 35.569 16.7312 35.569H17.9419C17.276 36.6949 16.9249 37.9782 16.9249 39.31V48.0267H1.93705V40.1937C1.93705 37.6514 3.93463 35.569 6.38015 35.569H8.35351C8.74092 35.569 9.11622 35.4722 9.45521 35.2906L9.58838 35.678C9.86683 36.5133 10.4479 37.1913 11.2228 37.5666ZM13.7046 35.0485C13.5956 35.3753 13.3656 35.6296 13.063 35.7748C12.7724 35.908 12.4576 35.9201 12.155 35.8112C11.8039 35.678 11.5375 35.3995 11.4165 35.0363L10.8475 33.3172C11.3923 33.4867 11.9613 33.5836 12.5545 33.5836C13.1719 33.5836 13.753 33.4867 14.3099 33.3051L13.7046 35.0485Z" fill="url(#paint3_linear)"/>
<defs>
<linearGradient id="paint0_linear" x1="30.5853" y1="0" x2="30.5853" y2="14.0194" gradientUnits="userSpaceOnUse">
<stop offset="0.239583" stop-color="#1B537D"/>
<stop offset="1" stop-color="#0E2A53"/>
</linearGradient>
<linearGradient id="paint1_linear" x1="49.0947" y1="3.52301" x2="49.0947" y2="16.1986" gradientUnits="userSpaceOnUse">
<stop offset="0.239583" stop-color="#1B537D"/>
<stop offset="1" stop-color="#0E2A53"/>
</linearGradient>
<linearGradient id="paint2_linear" x1="12.0666" y1="3.52301" x2="12.0666" y2="16.1986" gradientUnits="userSpaceOnUse">
<stop offset="0.239583" stop-color="#1B537D"/>
<stop offset="1" stop-color="#0E2A53"/>
</linearGradient>
<linearGradient id="paint3_linear" x1="30.6295" y1="16.3923" x2="30.6295" y2="50" gradientUnits="userSpaceOnUse">
<stop offset="0.239583" stop-color="#1B537D"/>
<stop offset="1" stop-color="#0E2A53"/>
</linearGradient>
</defs>
</svg>
