<svg width="25" height="26" viewBox="0 0 25 26" fill="none" xmlns="http://www.w3.org/2000/svg">
<circle cx="12.4999" cy="13" r="12.5" fill="url(#paint0_linear)"/>
<mask id="path-2-inside-1" fill="white">
<path d="M17.6271 14.4415C17.2997 14.1021 16.9048 13.9207 16.4862 13.9207C16.0711 13.9207 15.6728 14.0988 15.3319 14.4382L14.2653 15.4966C14.1776 15.4496 14.0898 15.4059 14.0054 15.3622C13.8839 15.3017 13.7692 15.2446 13.6713 15.1841C12.6722 14.5524 11.7643 13.7292 10.8935 12.664C10.4715 12.1331 10.188 11.6862 9.98213 11.2325C10.2589 10.9805 10.5154 10.7184 10.7652 10.4664C10.8597 10.3723 10.9542 10.2749 11.0487 10.1808C11.7575 9.47513 11.7575 8.56116 11.0487 7.85551L10.1273 6.93817C10.0226 6.83401 9.91463 6.72648 9.81337 6.61895C9.61086 6.41062 9.39822 6.19556 9.17883 5.99395C8.85143 5.67137 8.4599 5.5 8.04812 5.5C7.63634 5.5 7.23806 5.67137 6.90053 5.99395C6.89716 5.99731 6.89716 5.99731 6.89378 6.00067L5.7462 7.15323C5.31416 7.58333 5.06777 8.10753 5.01377 8.71573C4.93276 9.69691 5.22303 10.6109 5.4458 11.209C5.99259 12.6774 6.8094 14.0383 8.02787 15.4966C9.50622 17.254 11.285 18.6418 13.3169 19.6196C14.0932 19.9859 15.1294 20.4194 16.2871 20.4933C16.358 20.4966 16.4322 20.5 16.4997 20.5C17.2794 20.5 17.9342 20.2211 18.4473 19.6667C18.4506 19.6599 18.4574 19.6566 18.4608 19.6499C18.6363 19.4382 18.8388 19.2466 19.0514 19.0417C19.1966 18.9039 19.3451 18.7594 19.4902 18.6082C19.8244 18.2621 19.9999 17.8589 19.9999 17.4456C19.9999 17.0289 19.821 16.629 19.4801 16.293L17.6271 14.4415ZM18.8354 17.9798C18.832 17.9832 19.0336 17.7038 18.8354 17.9798C18.7038 18.121 18.5688 18.2487 18.4236 18.3898C18.2042 18.5981 17.9815 18.8165 17.7722 19.0618C17.4313 19.4247 17.0297 19.5961 16.5031 19.5961C16.4525 19.5961 16.3985 19.5961 16.3479 19.5927C15.3454 19.5289 14.4138 19.1391 13.7152 18.8065C11.8048 17.8858 10.1273 16.5786 8.73329 14.922C7.58233 13.541 6.81278 12.2641 6.30311 10.8931C5.98921 10.0565 5.87446 9.40457 5.92508 8.78965C5.95884 8.39651 6.11072 8.07056 6.39087 7.79167L7.54183 6.64583C7.70722 6.49126 7.88273 6.40726 8.05487 6.40726C8.26751 6.40726 8.43965 6.53495 8.54765 6.64247C8.55103 6.64583 8.5544 6.64919 8.55778 6.65255C8.76367 6.84409 8.95943 7.04234 9.16532 7.25403C9.26996 7.36156 9.37796 7.46909 9.48597 7.57997L10.4074 8.49731C10.7652 8.85349 10.7652 9.1828 10.4074 9.53898C10.3095 9.63643 10.215 9.73387 10.1171 9.82796C9.83362 10.1169 9.5636 10.3858 9.26996 10.6478C9.26321 10.6546 9.25646 10.6579 9.25308 10.6647C8.96281 10.9536 9.01681 11.2359 9.07757 11.4274C9.08094 11.4375 9.08432 11.4476 9.08769 11.4577C9.32734 12.0356 9.66486 12.58 10.1779 13.2285L10.1813 13.2319C11.1128 14.3743 12.095 15.2648 13.1785 15.9469C13.3169 16.0343 13.4586 16.1048 13.5937 16.172C13.7152 16.2325 13.8299 16.2896 13.9278 16.3501C13.9413 16.3569 13.9548 16.3669 13.9683 16.3737C14.0831 16.4308 14.1911 16.4577 14.3025 16.4577C14.5826 16.4577 14.7581 16.2829 14.8155 16.2258L15.9698 15.0766C16.0846 14.9624 16.2669 14.8246 16.4795 14.8246C16.6888 14.8246 16.8609 14.9556 16.9655 15.0699C16.9689 15.0733 16.9689 15.0733 16.9723 15.0766L18.832 16.9281C19.1797 17.2708 19.1797 17.6237 18.8354 17.9798Z"/>
</mask>
<path d="M17.6271 14.4415L15.468 16.5244L15.4871 16.5442L15.5066 16.5637L17.6271 14.4415ZM15.3319 14.4382L17.4451 16.5676L17.4485 16.5642L15.3319 14.4382ZM14.2653 15.4966L12.8479 18.1407L14.8036 19.189L16.3785 17.626L14.2653 15.4966ZM14.0054 15.3622L15.3846 12.6981L15.3635 12.6871L15.3423 12.6766L14.0054 15.3622ZM13.6713 15.1841L12.068 17.7198L12.0811 17.7281L12.0943 17.7362L13.6713 15.1841ZM10.8935 12.664L8.54476 14.5304L8.55768 14.5467L8.57083 14.5628L10.8935 12.664ZM9.98213 11.2325L7.96233 9.01433L6.34799 10.4843L7.25034 12.4724L9.98213 11.2325ZM10.7652 10.4664L8.64861 8.34035L8.64148 8.34745L8.63439 8.3546L10.7652 10.4664ZM11.0487 7.85551L13.1653 5.72946V5.72946L11.0487 7.85551ZM10.1273 6.93817L8.01069 9.06422L8.01069 9.06422L10.1273 6.93817ZM9.81337 6.61895L11.9974 4.56226L11.9811 4.54494L11.9645 4.52788L9.81337 6.61895ZM9.17883 5.99395L7.07329 8.13094L7.11047 8.16757L7.14889 8.20288L9.17883 5.99395ZM6.90053 5.99395L4.82777 3.82516L4.80564 3.84631L4.78395 3.8679L6.90053 5.99395ZM6.89378 6.00067L4.77718 3.8746L4.76788 3.88394L6.89378 6.00067ZM5.7462 7.15323L7.8628 9.2793L7.87209 9.26996L5.7462 7.15323ZM5.01377 8.71573L2.02552 8.45039L2.0247 8.45964L2.02394 8.46889L5.01377 8.71573ZM5.4458 11.209L8.25721 10.1621L8.25714 10.1619L5.4458 11.209ZM8.02787 15.4966L5.72567 17.4202L5.73213 17.4279L8.02787 15.4966ZM13.3169 19.6196L12.016 22.3229L12.0264 22.3279L12.0368 22.3328L13.3169 19.6196ZM16.2871 20.4933L16.0959 23.4872L16.1205 23.4887L16.145 23.4899L16.2871 20.4933ZM18.4473 19.6667L20.6492 21.7042L20.9376 21.3925L21.1281 21.0131L18.4473 19.6667ZM18.4608 19.6499L16.1513 17.7351L15.9332 17.9981L15.7799 18.3034L18.4608 19.6499ZM19.0514 19.0417L16.9861 16.8658L16.9777 16.8738L16.9694 16.8818L19.0514 19.0417ZM19.4902 18.6082L17.3319 16.5245L17.3259 16.5308L19.4902 18.6082ZM19.4801 16.293L17.3596 18.4152L17.3669 18.4224L17.3741 18.4296L19.4801 16.293ZM18.4236 18.3898L20.4894 20.5652L20.5023 20.553L20.5151 20.5406L18.4236 18.3898ZM17.7722 19.0618L19.9588 21.1158L20.0079 21.0635L20.0545 21.0089L17.7722 19.0618ZM16.3479 19.5927L16.5465 16.5993L16.5385 16.5988L16.3479 19.5927ZM13.7152 18.8065L12.4127 21.509L12.4191 21.512L12.4255 21.5151L13.7152 18.8065ZM8.73329 14.922L6.4287 16.8427L6.43326 16.8482L6.43785 16.8536L8.73329 14.922ZM6.30311 10.8931L9.1151 9.84778L9.11195 9.83937L6.30311 10.8931ZM5.92508 8.78965L2.93606 8.53304L2.9352 8.54348L5.92508 8.78965ZM6.39087 7.79167L8.50745 9.91772H8.50745L6.39087 7.79167ZM7.54183 6.64583L5.4934 4.45405L5.45881 4.48638L5.42525 4.51978L7.54183 6.64583ZM8.54765 6.64247L10.6642 4.51642L8.54765 6.64247ZM8.55778 6.65255L6.4412 8.7786L6.47722 8.81446L6.51443 8.84908L8.55778 6.65255ZM9.16532 7.25403L7.01473 9.34567L7.01527 9.34622L9.16532 7.25403ZM9.48597 7.57997L7.33694 9.67321L7.35304 9.68974L7.36939 9.70602L9.48597 7.57997ZM10.1171 9.82796L8.03818 7.66511L8.00649 7.69557L7.9757 7.72695L10.1171 9.82796ZM9.26996 10.6478L7.27228 8.4097L7.2113 8.46413L7.15338 8.5218L9.26996 10.6478ZM9.25308 10.6647L11.3697 12.7907L11.7152 12.4467L11.934 12.0111L9.25308 10.6647ZM9.07757 11.4274L6.21798 12.3345L6.22521 12.3573L6.23279 12.3799L9.07757 11.4274ZM9.08769 11.4577L6.24292 12.4102L6.27626 12.5097L6.31647 12.6067L9.08769 11.4577ZM10.1779 13.2285L7.8251 15.0898L7.93542 15.2292L8.06143 15.3547L10.1779 13.2285ZM10.1813 13.2319L12.5063 11.336L12.408 11.2154L12.2977 11.1057L10.1813 13.2319ZM13.1785 15.9469L14.78 13.4101L14.7768 13.4082L13.1785 15.9469ZM13.5937 16.172L12.2568 18.8577L13.5937 16.172ZM13.9278 16.3501L12.3508 18.9022L12.4678 18.9745L12.5909 19.0358L13.9278 16.3501ZM13.9683 16.3737L12.6315 19.0593L13.9683 16.3737ZM14.8155 16.2258L16.9321 18.3519L14.8155 16.2258ZM16.9655 15.0699L14.7532 17.0961L14.7999 17.1471L14.8489 17.1959L16.9655 15.0699ZM16.9723 15.0766L14.8557 17.2027L16.9723 15.0766ZM18.832 16.9281L16.7155 19.0541L16.7206 19.0593L16.7259 19.0644L18.832 16.9281ZM19.7862 12.3587C18.9781 11.5211 17.8336 10.9207 16.4862 10.9207V16.9207C15.9759 16.9207 15.6212 16.6832 15.468 16.5244L19.7862 12.3587ZM16.4862 10.9207C15.1543 10.9207 14.0244 11.5066 13.2153 12.3121L17.4485 16.5642C17.3212 16.6909 16.9879 16.9207 16.4862 16.9207V10.9207ZM13.2187 12.3088L12.1521 13.3672L16.3785 17.626L17.4451 16.5676L13.2187 12.3088ZM15.6827 12.8526C15.5741 12.7943 15.4086 12.7104 15.3846 12.6981L12.6262 18.0264C12.7711 18.1014 12.7811 18.1048 12.8479 18.1407L15.6827 12.8526ZM15.3423 12.6766C15.3107 12.6608 15.2875 12.6493 15.266 12.6384C15.2451 12.6279 15.2313 12.6208 15.2219 12.6159C15.2125 12.6109 15.2107 12.6099 15.2142 12.6119C15.2178 12.6139 15.2299 12.6207 15.2483 12.6321L12.0943 17.7362C12.3321 17.8832 12.5793 18.0034 12.6686 18.0479L15.3423 12.6766ZM15.2746 12.6485C14.5878 12.2142 13.915 11.6201 13.2161 10.7652L8.57083 14.5628C9.61351 15.8382 10.7566 16.8906 12.068 17.7198L15.2746 12.6485ZM13.2421 10.7975C12.9254 10.3989 12.7908 10.162 12.7139 9.99264L7.25034 12.4724C7.58525 13.2103 8.01773 13.8672 8.54476 14.5304L13.2421 10.7975ZM12.0019 13.4507C12.3488 13.1349 12.6677 12.8085 12.896 12.5782L8.63439 8.3546C8.36313 8.62831 8.16902 8.82613 7.96233 9.01433L12.0019 13.4507ZM12.8818 12.5924C12.94 12.5345 12.9966 12.4771 13.0423 12.4308C13.0911 12.3813 13.129 12.3429 13.1653 12.3068L8.93213 8.05473C8.87388 8.11272 8.81728 8.17011 8.77164 8.21635C8.72277 8.26587 8.68487 8.30425 8.64861 8.34035L12.8818 12.5924ZM13.1653 12.3068C13.987 11.4888 14.5803 10.3497 14.5803 9.01815C14.5803 7.68664 13.987 6.54752 13.1653 5.72946L8.93213 9.98156C8.81922 9.86914 8.58032 9.53984 8.58032 9.01815C8.58032 8.49645 8.81922 8.16715 8.93213 8.05473L13.1653 12.3068ZM13.1653 5.72946L12.2438 4.81212L8.01069 9.06422L8.93213 9.98156L13.1653 5.72946ZM12.2439 4.81212C12.133 4.70173 12.0598 4.62851 11.9974 4.56226L7.62934 8.67565C7.76946 8.82445 7.91231 8.96628 8.01069 9.06422L12.2439 4.81212ZM11.9645 4.52788C11.7548 4.31211 11.4935 4.04668 11.2088 3.78502L7.14889 8.20288C7.30294 8.34444 7.46694 8.50912 7.66223 8.71002L11.9645 4.52788ZM11.2844 3.85696C10.4687 3.05328 9.3447 2.5 8.04812 2.5V8.5C7.57509 8.5 7.23418 8.28946 7.07329 8.13094L11.2844 3.85696ZM8.04812 2.5C6.75964 2.5 5.64304 3.04598 4.82777 3.82516L8.9733 8.16274C8.83307 8.29676 8.51303 8.5 8.04812 8.5V2.5ZM4.78395 3.8679C4.78224 3.8696 4.78139 3.87046 4.78053 3.8713C4.7797 3.87214 4.77887 3.87296 4.7772 3.87462L9.01036 8.12672C9.01207 8.12502 9.01293 8.12417 9.01378 8.12332C9.01461 8.12249 9.01544 8.12166 9.01711 8.12L4.78395 3.8679ZM4.76788 3.88394L3.6203 5.03649L7.87209 9.26996L9.01968 8.11741L4.76788 3.88394ZM3.62962 5.02718C2.6986 5.95405 2.14219 7.13652 2.02552 8.45039L8.00201 8.98106C7.99968 9.00726 7.98894 9.06778 7.95425 9.14172C7.91962 9.21556 7.88035 9.26179 7.86278 9.27928L3.62962 5.02718ZM2.02394 8.46889C1.88637 10.1351 2.37706 11.565 2.63446 12.2561L8.25714 10.1619C8.17022 9.92855 8.09759 9.70528 8.05065 9.48387C8.00354 9.26167 7.99312 9.08941 8.00359 8.96256L2.02394 8.46889ZM2.63439 12.2559C3.32084 14.0994 4.33097 15.7509 5.72568 17.4202L10.3301 13.5731C9.28783 12.3257 8.66433 11.2555 8.25721 10.1621L2.63439 12.2559ZM5.73213 17.4279C7.47774 19.5029 9.59326 21.157 12.016 22.3229L14.6178 16.9164C12.9767 16.1266 11.5347 15.0051 10.3236 13.5654L5.73213 17.4279ZM12.0368 22.3328C12.8846 22.7328 14.347 23.3755 16.0959 23.4872L16.4783 17.4994C15.9118 17.4632 15.3017 17.2389 14.597 16.9064L12.0368 22.3328ZM16.145 23.4899C16.2065 23.4928 16.3502 23.5 16.4997 23.5V17.5C16.5133 17.5 16.5155 17.5003 16.5 17.4998C16.4844 17.4992 16.4645 17.4983 16.4292 17.4966L16.145 23.4899ZM16.4997 23.5C18.0794 23.5 19.5443 22.8982 20.6492 21.7042L16.2453 17.6291C16.2486 17.6256 16.2637 17.6101 16.2921 17.5898C16.3209 17.5693 16.3558 17.5492 16.3945 17.5326C16.4782 17.4968 16.5258 17.5 16.4997 17.5V23.5ZM21.1281 21.0131C21.0607 21.1474 20.9894 21.2641 20.921 21.3635C20.8532 21.4622 20.7889 21.543 20.7362 21.6051C20.7097 21.6362 20.6856 21.6632 20.665 21.6858C20.6444 21.7083 20.6264 21.7272 20.6125 21.7417C20.5986 21.7561 20.5873 21.7675 20.5806 21.7743C20.5772 21.7777 20.5744 21.7805 20.5728 21.7821C20.5714 21.7836 20.5701 21.7848 20.5705 21.7844C20.5705 21.7844 20.571 21.7839 20.5715 21.7835C20.572 21.7829 20.5728 21.7821 20.5738 21.7812C20.5757 21.7792 20.5788 21.7762 20.5825 21.7724C20.5899 21.765 20.6018 21.7529 20.6162 21.7379C20.6308 21.7228 20.6494 21.7032 20.6706 21.68C20.6918 21.6568 20.7165 21.6291 20.7435 21.5973C20.7974 21.5339 20.8629 21.4516 20.9317 21.3515C21.0011 21.2506 21.0734 21.1323 21.1416 20.9963L15.7799 18.3034C15.8473 18.1692 15.9187 18.0524 15.987 17.953C16.0548 17.8544 16.1191 17.7735 16.1719 17.7115C16.1983 17.6804 16.2224 17.6533 16.243 17.6307C16.2636 17.6082 16.2816 17.5893 16.2956 17.5748C16.3094 17.5604 16.3207 17.549 16.3274 17.5423C16.3308 17.5388 16.3336 17.536 16.3352 17.5344C16.3367 17.533 16.3379 17.5318 16.3375 17.5321C16.3375 17.5322 16.3371 17.5326 16.3366 17.5331C16.3361 17.5336 16.3352 17.5344 16.3343 17.5354C16.3323 17.5373 16.3293 17.5404 16.3255 17.5441C16.3182 17.5515 16.3062 17.5636 16.2918 17.5786C16.2772 17.5937 16.2586 17.6133 16.2374 17.6365C16.2162 17.6597 16.1915 17.6875 16.1645 17.7192C16.1106 17.7826 16.0451 17.8649 15.9763 17.9651C15.907 18.066 15.8347 18.1843 15.7664 18.3202L21.1281 21.0131ZM20.7702 21.5646C20.8148 21.5109 20.8765 21.4493 21.1335 21.2016L16.9694 16.8818C16.8011 17.044 16.4577 17.3655 16.1513 17.7351L20.7702 21.5646ZM21.1168 21.2175C21.2788 21.0637 21.4643 20.8838 21.6546 20.6856L17.3259 16.5308C17.2258 16.635 17.1144 16.744 16.9861 16.8658L21.1168 21.2175ZM21.6485 20.6919C22.434 19.8783 22.9999 18.7551 22.9999 17.4456H16.9999C16.9999 16.9627 17.2147 16.6459 17.332 16.5245L21.6485 20.6919ZM22.9999 17.4456C22.9999 16.1141 22.4142 14.9728 21.5861 14.1565L17.3741 18.4296C17.2278 18.2853 16.9999 17.9437 16.9999 17.4456H22.9999ZM21.6005 14.1708L19.7475 12.3193L15.5066 16.5637L17.3596 18.4152L21.6005 14.1708ZM21.2723 19.7296C21.3208 19.662 21.3491 19.6225 21.3623 19.6041C21.3642 19.6013 21.367 19.5973 21.3702 19.5929C21.3717 19.5907 21.3742 19.5873 21.3771 19.5831C21.3791 19.5803 21.3856 19.571 21.3938 19.5591C21.3972 19.5542 21.4069 19.54 21.4191 19.5218C21.4248 19.5132 21.4372 19.4946 21.4524 19.4706C21.4599 19.4588 21.4776 19.4304 21.4878 19.4137C21.5029 19.3886 21.5417 19.3211 21.5651 19.2785C21.6095 19.1927 21.754 18.8499 21.8331 18.586C21.7123 16.7542 18.9082 14.858 17.2741 15.3515C17.0614 15.5052 16.7961 15.7419 16.7313 15.8091C16.6991 15.8442 16.6485 15.9014 16.6299 15.9233C16.5969 15.9624 16.5722 15.9937 16.5648 16.0032C16.5538 16.0171 16.5452 16.0284 16.5403 16.0348C16.524 16.0561 16.5112 16.0734 16.5101 16.075C16.5059 16.0805 16.5026 16.0851 16.5008 16.0875C16.4915 16.1002 16.4804 16.1157 16.4756 16.1223C16.4611 16.1424 16.4403 16.1713 16.4226 16.1961C16.4142 16.2078 16.4038 16.2223 16.3945 16.2354C16.3911 16.2402 16.3815 16.2538 16.3707 16.2694C16.369 16.2718 16.3496 16.2997 16.3266 16.3349C16.3197 16.3454 16.3072 16.3646 16.292 16.3889C16.2826 16.4038 16.2457 16.4627 16.2031 16.5407C16.1921 16.561 16.1676 16.6076 16.1542 16.6339C16.137 16.6688 16.0977 16.7529 16.0761 16.8023C16.0462 16.8751 15.9775 17.0676 15.9417 17.1881C15.8904 17.408 15.8384 18.114 15.8988 18.5934C16.291 19.5692 17.9719 20.8529 19.0637 20.9712C19.5709 20.8883 20.2705 20.6143 20.4753 20.492C20.583 20.4182 20.7509 20.2887 20.813 20.2358C20.8541 20.199 20.9235 20.1339 20.952 20.1059L16.7188 15.8538C16.7473 15.8258 16.8167 15.7607 16.8578 15.7239C16.9199 15.671 17.0877 15.5415 17.1955 15.4678C17.4003 15.3454 18.0998 15.0714 18.607 14.9886C19.6988 15.1068 21.3798 16.3905 21.772 17.3664C21.8324 17.8457 21.7804 18.5517 21.729 18.7716C21.6933 18.8921 21.6245 19.0846 21.5946 19.1574C21.573 19.2068 21.5338 19.2908 21.5165 19.3257C21.5032 19.3521 21.4787 19.3986 21.4677 19.4189C21.4251 19.4968 21.3883 19.5556 21.3791 19.5703C21.3639 19.5945 21.3516 19.6135 21.3448 19.6238C21.3223 19.6581 21.3038 19.6847 21.3034 19.6853C21.2983 19.6926 21.2946 19.698 21.2934 19.6997C21.2918 19.702 21.2908 19.7033 21.2906 19.7035C21.2904 19.7039 21.2912 19.7027 21.2934 19.6997C21.2954 19.6968 21.298 19.6932 21.3012 19.6888C21.3141 19.6707 21.3306 19.6477 21.3414 19.6329C21.3492 19.6221 21.3476 19.6243 21.3424 19.6314C21.3412 19.6331 21.3383 19.637 21.3345 19.6422C21.3337 19.6432 21.3212 19.6602 21.305 19.6813C21.3001 19.6877 21.2915 19.6989 21.2806 19.7127C21.2732 19.7222 21.2485 19.7535 21.2156 19.7926C21.197 19.8144 21.1464 19.8717 21.1141 19.9068C21.0493 19.9739 20.7841 20.2107 20.5714 20.3643C18.9373 20.8579 16.1332 18.9617 16.0124 17.1298C16.0915 16.8659 16.236 16.5232 16.2804 16.4374C16.3037 16.3948 16.3426 16.3273 16.3577 16.3021C16.3679 16.2855 16.3856 16.2571 16.3931 16.2453C16.4083 16.2214 16.4206 16.2028 16.4263 16.1943C16.4384 16.1761 16.448 16.1621 16.4513 16.1573C16.4593 16.1458 16.4655 16.137 16.467 16.1348C16.4695 16.1312 16.4714 16.1285 16.4723 16.1273C16.4741 16.1247 16.4751 16.1233 16.4748 16.1237C16.4699 16.1306 16.4491 16.1597 16.3986 16.2301L21.2723 19.7296ZM16.6416 15.9336C16.5748 16.0052 16.5173 16.059 16.3322 16.239L20.5151 20.5406C20.6203 20.4383 20.8328 20.2367 21.0292 20.0261L16.6416 15.9336ZM16.3578 16.2143C16.1213 16.439 15.8051 16.7454 15.4899 17.1148L20.0545 21.0089C20.1579 20.8877 20.2872 20.7572 20.4894 20.5652L16.3578 16.2143ZM15.5856 17.0078C15.6651 16.9232 15.8169 16.7957 16.0401 16.7014C16.2589 16.609 16.434 16.5961 16.5031 16.5961V22.5961C17.8195 22.5961 19.0251 22.1097 19.9588 21.1158L15.5856 17.0078ZM16.5031 16.5961C16.4895 16.5961 16.4827 16.5961 16.4767 16.5961C16.4714 16.5961 16.471 16.596 16.4736 16.5961C16.4763 16.5961 16.484 16.5963 16.4955 16.5967C16.507 16.5971 16.5244 16.5979 16.5465 16.5993L16.1492 22.5862C16.3166 22.5973 16.4722 22.5961 16.5031 22.5961V16.5961ZM16.5385 16.5988C16.136 16.5732 15.6365 16.3986 15.0048 16.0978L12.4255 21.5151C13.1911 21.8796 14.5548 22.4846 16.1572 22.5867L16.5385 16.5988ZM15.0176 16.1039C13.4962 15.3707 12.1551 14.3291 11.0287 12.9905L6.43785 16.8536C8.09941 18.8282 10.1133 20.4008 12.4127 21.509L15.0176 16.1039ZM11.0379 13.0014C10.0571 11.8246 9.48314 10.8378 9.11509 9.84778L3.49114 11.9385C4.14241 13.6904 5.10756 15.2574 6.4287 16.8427L11.0379 13.0014ZM9.11195 9.83937C8.89327 9.25649 8.91254 9.06532 8.91497 9.03582L2.9352 8.54348C2.83637 9.74382 3.08516 10.8564 3.49428 11.9469L9.11195 9.83937ZM8.91409 9.04626C8.90359 9.16859 8.86862 9.33536 8.78425 9.5162C8.69987 9.69706 8.59451 9.83104 8.50745 9.91772L4.27429 5.66562C3.49116 6.44526 3.03046 7.43367 2.93608 8.53304L8.91409 9.04626ZM8.50745 9.91772L9.65841 8.77188L5.42525 4.51978L4.27429 5.66562L8.50745 9.91772ZM9.59026 8.83762C9.41111 9.00506 8.88997 9.40726 8.05487 9.40726V3.40726C6.87549 3.40726 6.00333 3.97747 5.4934 4.45405L9.59026 8.83762ZM8.05487 9.40726C7.5469 9.40726 7.15085 9.25299 6.90328 9.11787C6.66441 8.9875 6.5098 8.8469 6.43107 8.76852L10.6642 4.51642C10.3679 4.22143 9.46629 3.40726 8.05487 3.40726V9.40726ZM6.43107 8.76852C6.43274 8.77018 6.4344 8.77184 6.43609 8.77352C6.43778 8.7752 6.43949 8.7769 6.4412 8.7786L10.6744 4.5265C10.6727 4.52485 10.671 4.52319 10.6693 4.52151C10.6677 4.51983 10.6659 4.51813 10.6642 4.51642L6.43107 8.76852ZM6.51443 8.84908C6.66232 8.98665 6.81456 9.13985 7.01473 9.34567L11.3159 5.16239C11.1043 4.94483 10.865 4.70152 10.6011 4.45603L6.51443 8.84908ZM7.01527 9.34622C7.0774 9.41007 7.13903 9.47238 7.19126 9.52519C7.24624 9.58079 7.2922 9.62728 7.33694 9.67321L11.635 5.48674C11.5717 5.42178 11.5097 5.35906 11.4575 5.30629C11.4026 5.25074 11.3579 5.20552 11.3154 5.16184L7.01527 9.34622ZM7.36939 9.70602L8.29084 10.6234L12.524 6.37126L11.6026 5.45392L7.36939 9.70602ZM8.29084 10.6234C8.185 10.518 7.67575 9.96877 7.67575 9.01815C7.67575 8.06752 8.185 7.51829 8.29084 7.41293L12.524 11.665C12.9876 11.2035 13.6757 10.3115 13.6757 9.01815C13.6757 7.72478 12.9876 6.83281 12.524 6.37126L8.29084 10.6234ZM8.29084 7.41293C8.14027 7.56282 8.1139 7.59232 8.03818 7.66511L12.1961 11.9908C12.3162 11.8754 12.4788 11.71 12.524 11.665L8.29084 7.41293ZM7.9757 7.72695C7.70385 8.00404 7.48977 8.21558 7.27228 8.4097L11.2676 12.886C11.6374 12.5559 11.9634 12.2298 12.2586 11.929L7.9757 7.72695ZM7.15338 8.5218C7.23912 8.43644 7.31143 8.37522 7.34214 8.34958C7.35464 8.33914 7.36847 8.32785 7.36046 8.33441C7.35857 8.33596 7.33796 8.3528 7.31287 8.37421C7.2255 8.44877 6.84904 8.767 6.5722 9.31821L11.934 12.0111C11.6605 12.5556 11.2891 12.8688 11.2076 12.9383C11.184 12.9584 11.1649 12.974 11.1646 12.9743C11.1582 12.9796 11.1736 12.9669 11.1878 12.9551C11.2217 12.9268 11.2974 12.8626 11.3865 12.7739L7.15338 8.5218ZM7.1365 8.5386C6.53876 9.13368 6.15175 9.89341 6.05377 10.7361C5.96529 11.497 6.14327 12.099 6.21798 12.3345L11.9372 10.5204C11.9511 10.5643 12.0717 10.9294 12.0136 11.4291C11.946 12.0105 11.6771 12.4846 11.3697 12.7907L7.1365 8.5386ZM6.23279 12.3799C6.23449 12.385 6.23618 12.39 6.23787 12.3951C6.23955 12.4001 6.24124 12.4051 6.24292 12.4102L11.9325 10.5052C11.9308 10.5001 11.9291 10.495 11.9274 10.49C11.9257 10.485 11.924 10.4799 11.9223 10.4749L6.23279 12.3799ZM6.31647 12.6067C6.69266 13.514 7.19822 14.2973 7.8251 15.0898L12.5307 11.3672C12.1315 10.8626 11.962 10.5573 11.8589 10.3086L6.31647 12.6067ZM8.06143 15.3547L8.06481 15.358L12.2977 11.1057L12.2944 11.1023L8.06143 15.3547ZM7.85623 15.1277C8.96215 16.484 10.1821 17.6055 11.5801 18.4857L14.7768 13.4082C14.008 12.9241 13.2635 12.2647 12.5063 11.336L7.85623 15.1277ZM11.577 18.4837C11.8637 18.6647 12.1396 18.7994 12.2568 18.8577L14.9305 13.4864C14.8579 13.4502 14.8235 13.4329 14.7942 13.4174C14.7688 13.4039 14.7676 13.4023 14.78 13.4101L11.577 18.4837ZM12.2568 18.8577C12.2884 18.8734 12.3116 18.885 12.3331 18.8958C12.354 18.9063 12.3678 18.9134 12.3772 18.9184C12.3866 18.9233 12.3884 18.9244 12.3848 18.9224C12.3813 18.9204 12.3692 18.9136 12.3508 18.9022L15.5048 13.7981C15.267 13.6511 15.0198 13.5308 14.9305 13.4864L12.2568 18.8577ZM12.5909 19.0358C12.5484 19.0146 12.5119 18.9951 12.4826 18.979C12.4534 18.9628 12.4291 18.9488 12.4113 18.9382C12.3937 18.9278 12.3799 18.9194 12.3724 18.9148C12.3657 18.9107 12.3602 18.9072 12.3631 18.9091C12.3636 18.9093 12.3725 18.9149 12.3826 18.9211C12.3934 18.9277 12.4105 18.9382 12.4316 18.9506C12.4528 18.9631 12.4804 18.9792 12.513 18.9972C12.5456 19.0152 12.5855 19.0365 12.6315 19.0593L15.3052 13.688C15.3477 13.7092 15.3842 13.7287 15.4135 13.7448C15.4427 13.761 15.467 13.775 15.4848 13.7855C15.5024 13.796 15.5162 13.8044 15.5237 13.809C15.5304 13.8131 15.5359 13.8165 15.533 13.8147C15.5325 13.8144 15.5236 13.8089 15.5136 13.8027C15.5027 13.7961 15.4856 13.7856 15.4645 13.7732C15.4434 13.7606 15.4157 13.7446 15.3831 13.7266C15.3505 13.7086 15.3106 13.6873 15.2647 13.6645L12.5909 19.0358ZM12.6315 19.0593C13.1054 19.2953 13.6683 19.4577 14.3025 19.4577V13.4577C14.7138 13.4577 15.0607 13.5663 15.3052 13.688L12.6315 19.0593ZM14.3025 19.4577C15.8824 19.4577 16.8205 18.4629 16.9321 18.3519L12.6989 14.0998C12.6957 14.103 13.2828 13.4577 14.3025 13.4577V19.4577ZM16.9321 18.3519L18.0864 17.2027L13.8532 12.9506L12.6989 14.0998L16.9321 18.3519ZM18.0864 17.2027C18.0213 17.2675 17.8818 17.3968 17.6604 17.5216C17.4368 17.6475 17.0283 17.8246 16.4795 17.8246V11.8246C15.0265 11.8246 14.104 12.7009 13.8532 12.9506L18.0864 17.2027ZM16.4795 17.8246C15.9446 17.8246 15.5299 17.6558 15.2726 17.5087C15.0228 17.3659 14.8556 17.2079 14.7532 17.0961L19.1779 13.0437C18.8505 12.6862 17.9328 11.8246 16.4795 11.8246V17.8246ZM14.8489 17.1959C14.8507 17.1977 14.8517 17.1986 14.8525 17.1995C14.8533 17.2003 14.8541 17.2011 14.8557 17.2027L19.0889 12.9506C19.0871 12.9488 19.0861 12.9479 19.0853 12.947C19.0845 12.9462 19.0837 12.9454 19.0821 12.9438L14.8489 17.1959ZM14.8557 17.2027L16.7155 19.0541L20.9486 14.802L19.0889 12.9506L14.8557 17.2027ZM16.7259 19.0644C16.5529 18.8939 16.0954 18.348 16.0932 17.4561C16.0911 16.5788 16.5326 16.0457 16.6783 15.8949L20.9925 20.0648C21.4825 19.5578 22.0961 18.6702 22.0932 17.4417C22.0902 16.1987 21.4589 15.305 20.9382 14.7917L16.7259 19.0644Z" fill="white" mask="url(#path-2-inside-1)"/>
<defs>
<linearGradient id="paint0_linear" x1="12.4999" y1="0.5" x2="12.4999" y2="25.5" gradientUnits="userSpaceOnUse">
<stop offset="0.239583" stop-color="#1B537D"/>
<stop offset="1" stop-color="#0E2A53"/>
</linearGradient>
</defs>
</svg>
