<svg width="54" height="52" viewBox="0 0 54 52" fill="none" xmlns="http://www.w3.org/2000/svg">
<mask id="path-1-outside-1" maskUnits="userSpaceOnUse" x="0" y="0" width="54" height="52" fill="black">
<rect fill="white" width="54" height="52"/>
<path d="M50.0645 3.5H49.6452V1.83333C49.6452 1.61232 49.5568 1.40036 49.3995 1.24408C49.2422 1.0878 49.0289 1 48.8064 1H45.4516C45.2292 1 45.0158 1.0878 44.8586 1.24408C44.7013 1.40036 44.6129 1.61232 44.6129 1.83333V3.5H39.5806V1.83333C39.5806 1.61232 39.4923 1.40036 39.335 1.24408C39.1777 1.0878 38.9644 1 38.7419 1H35.3871C35.1647 1 34.9513 1.0878 34.794 1.24408C34.6367 1.40036 34.5484 1.61232 34.5484 1.83333V3.5H29.5161V1.83333C29.5161 1.61232 29.4278 1.40036 29.2705 1.24408C29.1132 1.0878 28.8999 1 28.6774 1H25.3226C25.1001 1 24.8868 1.0878 24.7295 1.24408C24.5722 1.40036 24.4839 1.61232 24.4839 1.83333V3.5H19.4516V1.83333C19.4516 1.61232 19.3633 1.40036 19.206 1.24408C19.0487 1.0878 18.8353 1 18.6129 1H15.2581C15.0356 1 14.8223 1.0878 14.665 1.24408C14.5077 1.40036 14.4194 1.61232 14.4194 1.83333V3.5H9.3871V1.83333C9.3871 1.61232 9.29873 1.40036 9.14144 1.24408C8.98416 1.0878 8.77083 1 8.54839 1H5.19355C4.97111 1 4.75778 1.0878 4.60049 1.24408C4.4432 1.40036 4.35484 1.61232 4.35484 1.83333V3.5H3.93548C3.15721 3.50086 2.41106 3.80842 1.86073 4.35522C1.31041 4.90201 1.00086 5.64338 1 6.41667V43.0833C1.00086 43.8566 1.31041 44.598 1.86073 45.1448C2.41106 45.6916 3.15721 45.9992 3.93548 46H14.6867C17.9736 49.2047 22.3949 51 27 51C31.6051 51 36.0264 49.2047 39.3133 46H50.0645C50.8428 45.9992 51.5889 45.6916 52.1393 45.1448C52.6896 44.598 52.9991 43.8566 53 43.0833V6.41667C52.9991 5.64338 52.6896 4.90201 52.1393 4.35522C51.5889 3.80842 50.8428 3.50086 50.0645 3.5ZM46.2903 2.66667H47.9677V6H46.2903V2.66667ZM36.2258 2.66667H37.9032V6H36.2258V2.66667ZM26.1613 2.66667H27.8387V6H26.1613V2.66667ZM16.0968 2.66667H17.7742V6H16.0968V2.66667ZM6.03226 2.66667H7.70968V6H6.03226V2.66667ZM27 49.3333C18.2135 49.3333 11.0645 42.2302 11.0645 33.5C11.0645 24.7698 18.2135 17.6667 27 17.6667C35.7865 17.6667 42.9355 24.7698 42.9355 33.5C42.9355 42.2302 35.7865 49.3333 27 49.3333ZM51.3226 43.0833C51.3223 43.4148 51.1897 43.7326 50.9538 43.9669C50.7179 44.2013 50.3981 44.3331 50.0645 44.3333H40.823C43.2808 41.2508 44.6166 37.4327 44.6129 33.5C44.6129 23.85 36.7123 16 27 16C17.2877 16 9.3871 23.85 9.3871 33.5C9.38342 37.4327 10.7192 41.2508 13.177 44.3333H3.93548C3.60191 44.3331 3.28208 44.2013 3.0462 43.9669C2.81033 43.7326 2.6777 43.4148 2.67742 43.0833V12.8362H51.3226V43.0833ZM51.3226 11.1696H2.67742V6.41667C2.6777 6.08523 2.81033 5.76745 3.0462 5.53309C3.28208 5.29873 3.60191 5.16694 3.93548 5.16667H4.35484V6.83333C4.35484 7.05435 4.4432 7.26631 4.60049 7.42259C4.75778 7.57887 4.97111 7.66667 5.19355 7.66667H8.54839C8.77083 7.66667 8.98416 7.57887 9.14144 7.42259C9.29873 7.26631 9.3871 7.05435 9.3871 6.83333V5.16667H14.4194V6.83333C14.4194 7.05435 14.5077 7.26631 14.665 7.42259C14.8223 7.57887 15.0356 7.66667 15.2581 7.66667H18.6129C18.8353 7.66667 19.0487 7.57887 19.206 7.42259C19.3633 7.26631 19.4516 7.05435 19.4516 6.83333V5.16667H24.4839V6.83333C24.4839 7.05435 24.5722 7.26631 24.7295 7.42259C24.8868 7.57887 25.1001 7.66667 25.3226 7.66667H28.6774C28.8999 7.66667 29.1132 7.57887 29.2705 7.42259C29.4278 7.26631 29.5161 7.05435 29.5161 6.83333V5.16667H34.5484V6.83333C34.5484 7.05435 34.6367 7.26631 34.794 7.42259C34.9513 7.57887 35.1647 7.66667 35.3871 7.66667H38.7419C38.9644 7.66667 39.1777 7.57887 39.335 7.42259C39.4923 7.26631 39.5806 7.05435 39.5806 6.83333V5.16667H44.6129V6.83333C44.6129 7.05435 44.7013 7.26631 44.8586 7.42259C45.0158 7.57887 45.2292 7.66667 45.4516 7.66667H48.8064C49.0289 7.66667 49.2422 7.57887 49.3995 7.42259C49.5568 7.26631 49.6452 7.05435 49.6452 6.83333V5.16667H50.0645C50.3981 5.16694 50.7179 5.29873 50.9538 5.53309C51.1897 5.76745 51.3223 6.08523 51.3226 6.41667V11.1696Z"/>
</mask>
<path d="M50.0645 3.5H49.6452V1.83333C49.6452 1.61232 49.5568 1.40036 49.3995 1.24408C49.2422 1.0878 49.0289 1 48.8064 1H45.4516C45.2292 1 45.0158 1.0878 44.8586 1.24408C44.7013 1.40036 44.6129 1.61232 44.6129 1.83333V3.5H39.5806V1.83333C39.5806 1.61232 39.4923 1.40036 39.335 1.24408C39.1777 1.0878 38.9644 1 38.7419 1H35.3871C35.1647 1 34.9513 1.0878 34.794 1.24408C34.6367 1.40036 34.5484 1.61232 34.5484 1.83333V3.5H29.5161V1.83333C29.5161 1.61232 29.4278 1.40036 29.2705 1.24408C29.1132 1.0878 28.8999 1 28.6774 1H25.3226C25.1001 1 24.8868 1.0878 24.7295 1.24408C24.5722 1.40036 24.4839 1.61232 24.4839 1.83333V3.5H19.4516V1.83333C19.4516 1.61232 19.3633 1.40036 19.206 1.24408C19.0487 1.0878 18.8353 1 18.6129 1H15.2581C15.0356 1 14.8223 1.0878 14.665 1.24408C14.5077 1.40036 14.4194 1.61232 14.4194 1.83333V3.5H9.3871V1.83333C9.3871 1.61232 9.29873 1.40036 9.14144 1.24408C8.98416 1.0878 8.77083 1 8.54839 1H5.19355C4.97111 1 4.75778 1.0878 4.60049 1.24408C4.4432 1.40036 4.35484 1.61232 4.35484 1.83333V3.5H3.93548C3.15721 3.50086 2.41106 3.80842 1.86073 4.35522C1.31041 4.90201 1.00086 5.64338 1 6.41667V43.0833C1.00086 43.8566 1.31041 44.598 1.86073 45.1448C2.41106 45.6916 3.15721 45.9992 3.93548 46H14.6867C17.9736 49.2047 22.3949 51 27 51C31.6051 51 36.0264 49.2047 39.3133 46H50.0645C50.8428 45.9992 51.5889 45.6916 52.1393 45.1448C52.6896 44.598 52.9991 43.8566 53 43.0833V6.41667C52.9991 5.64338 52.6896 4.90201 52.1393 4.35522C51.5889 3.80842 50.8428 3.50086 50.0645 3.5ZM46.2903 2.66667H47.9677V6H46.2903V2.66667ZM36.2258 2.66667H37.9032V6H36.2258V2.66667ZM26.1613 2.66667H27.8387V6H26.1613V2.66667ZM16.0968 2.66667H17.7742V6H16.0968V2.66667ZM6.03226 2.66667H7.70968V6H6.03226V2.66667ZM27 49.3333C18.2135 49.3333 11.0645 42.2302 11.0645 33.5C11.0645 24.7698 18.2135 17.6667 27 17.6667C35.7865 17.6667 42.9355 24.7698 42.9355 33.5C42.9355 42.2302 35.7865 49.3333 27 49.3333ZM51.3226 43.0833C51.3223 43.4148 51.1897 43.7326 50.9538 43.9669C50.7179 44.2013 50.3981 44.3331 50.0645 44.3333H40.823C43.2808 41.2508 44.6166 37.4327 44.6129 33.5C44.6129 23.85 36.7123 16 27 16C17.2877 16 9.3871 23.85 9.3871 33.5C9.38342 37.4327 10.7192 41.2508 13.177 44.3333H3.93548C3.60191 44.3331 3.28208 44.2013 3.0462 43.9669C2.81033 43.7326 2.6777 43.4148 2.67742 43.0833V12.8362H51.3226V43.0833ZM51.3226 11.1696H2.67742V6.41667C2.6777 6.08523 2.81033 5.76745 3.0462 5.53309C3.28208 5.29873 3.60191 5.16694 3.93548 5.16667H4.35484V6.83333C4.35484 7.05435 4.4432 7.26631 4.60049 7.42259C4.75778 7.57887 4.97111 7.66667 5.19355 7.66667H8.54839C8.77083 7.66667 8.98416 7.57887 9.14144 7.42259C9.29873 7.26631 9.3871 7.05435 9.3871 6.83333V5.16667H14.4194V6.83333C14.4194 7.05435 14.5077 7.26631 14.665 7.42259C14.8223 7.57887 15.0356 7.66667 15.2581 7.66667H18.6129C18.8353 7.66667 19.0487 7.57887 19.206 7.42259C19.3633 7.26631 19.4516 7.05435 19.4516 6.83333V5.16667H24.4839V6.83333C24.4839 7.05435 24.5722 7.26631 24.7295 7.42259C24.8868 7.57887 25.1001 7.66667 25.3226 7.66667H28.6774C28.8999 7.66667 29.1132 7.57887 29.2705 7.42259C29.4278 7.26631 29.5161 7.05435 29.5161 6.83333V5.16667H34.5484V6.83333C34.5484 7.05435 34.6367 7.26631 34.794 7.42259C34.9513 7.57887 35.1647 7.66667 35.3871 7.66667H38.7419C38.9644 7.66667 39.1777 7.57887 39.335 7.42259C39.4923 7.26631 39.5806 7.05435 39.5806 6.83333V5.16667H44.6129V6.83333C44.6129 7.05435 44.7013 7.26631 44.8586 7.42259C45.0158 7.57887 45.2292 7.66667 45.4516 7.66667H48.8064C49.0289 7.66667 49.2422 7.57887 49.3995 7.42259C49.5568 7.26631 49.6452 7.05435 49.6452 6.83333V5.16667H50.0645C50.3981 5.16694 50.7179 5.29873 50.9538 5.53309C51.1897 5.76745 51.3223 6.08523 51.3226 6.41667V11.1696Z" fill="url(#paint0_linear)"/>
<path d="M50.0645 3.5H49.6452V1.83333C49.6452 1.61232 49.5568 1.40036 49.3995 1.24408C49.2422 1.0878 49.0289 1 48.8064 1H45.4516C45.2292 1 45.0158 1.0878 44.8586 1.24408C44.7013 1.40036 44.6129 1.61232 44.6129 1.83333V3.5H39.5806V1.83333C39.5806 1.61232 39.4923 1.40036 39.335 1.24408C39.1777 1.0878 38.9644 1 38.7419 1H35.3871C35.1647 1 34.9513 1.0878 34.794 1.24408C34.6367 1.40036 34.5484 1.61232 34.5484 1.83333V3.5H29.5161V1.83333C29.5161 1.61232 29.4278 1.40036 29.2705 1.24408C29.1132 1.0878 28.8999 1 28.6774 1H25.3226C25.1001 1 24.8868 1.0878 24.7295 1.24408C24.5722 1.40036 24.4839 1.61232 24.4839 1.83333V3.5H19.4516V1.83333C19.4516 1.61232 19.3633 1.40036 19.206 1.24408C19.0487 1.0878 18.8353 1 18.6129 1H15.2581C15.0356 1 14.8223 1.0878 14.665 1.24408C14.5077 1.40036 14.4194 1.61232 14.4194 1.83333V3.5H9.3871V1.83333C9.3871 1.61232 9.29873 1.40036 9.14144 1.24408C8.98416 1.0878 8.77083 1 8.54839 1H5.19355C4.97111 1 4.75778 1.0878 4.60049 1.24408C4.4432 1.40036 4.35484 1.61232 4.35484 1.83333V3.5H3.93548C3.15721 3.50086 2.41106 3.80842 1.86073 4.35522C1.31041 4.90201 1.00086 5.64338 1 6.41667V43.0833C1.00086 43.8566 1.31041 44.598 1.86073 45.1448C2.41106 45.6916 3.15721 45.9992 3.93548 46H14.6867C17.9736 49.2047 22.3949 51 27 51C31.6051 51 36.0264 49.2047 39.3133 46H50.0645C50.8428 45.9992 51.5889 45.6916 52.1393 45.1448C52.6896 44.598 52.9991 43.8566 53 43.0833V6.41667C52.9991 5.64338 52.6896 4.90201 52.1393 4.35522C51.5889 3.80842 50.8428 3.50086 50.0645 3.5ZM46.2903 2.66667H47.9677V6H46.2903V2.66667ZM36.2258 2.66667H37.9032V6H36.2258V2.66667ZM26.1613 2.66667H27.8387V6H26.1613V2.66667ZM16.0968 2.66667H17.7742V6H16.0968V2.66667ZM6.03226 2.66667H7.70968V6H6.03226V2.66667ZM27 49.3333C18.2135 49.3333 11.0645 42.2302 11.0645 33.5C11.0645 24.7698 18.2135 17.6667 27 17.6667C35.7865 17.6667 42.9355 24.7698 42.9355 33.5C42.9355 42.2302 35.7865 49.3333 27 49.3333ZM51.3226 43.0833C51.3223 43.4148 51.1897 43.7326 50.9538 43.9669C50.7179 44.2013 50.3981 44.3331 50.0645 44.3333H40.823C43.2808 41.2508 44.6166 37.4327 44.6129 33.5C44.6129 23.85 36.7123 16 27 16C17.2877 16 9.3871 23.85 9.3871 33.5C9.38342 37.4327 10.7192 41.2508 13.177 44.3333H3.93548C3.60191 44.3331 3.28208 44.2013 3.0462 43.9669C2.81033 43.7326 2.6777 43.4148 2.67742 43.0833V12.8362H51.3226V43.0833ZM51.3226 11.1696H2.67742V6.41667C2.6777 6.08523 2.81033 5.76745 3.0462 5.53309C3.28208 5.29873 3.60191 5.16694 3.93548 5.16667H4.35484V6.83333C4.35484 7.05435 4.4432 7.26631 4.60049 7.42259C4.75778 7.57887 4.97111 7.66667 5.19355 7.66667H8.54839C8.77083 7.66667 8.98416 7.57887 9.14144 7.42259C9.29873 7.26631 9.3871 7.05435 9.3871 6.83333V5.16667H14.4194V6.83333C14.4194 7.05435 14.5077 7.26631 14.665 7.42259C14.8223 7.57887 15.0356 7.66667 15.2581 7.66667H18.6129C18.8353 7.66667 19.0487 7.57887 19.206 7.42259C19.3633 7.26631 19.4516 7.05435 19.4516 6.83333V5.16667H24.4839V6.83333C24.4839 7.05435 24.5722 7.26631 24.7295 7.42259C24.8868 7.57887 25.1001 7.66667 25.3226 7.66667H28.6774C28.8999 7.66667 29.1132 7.57887 29.2705 7.42259C29.4278 7.26631 29.5161 7.05435 29.5161 6.83333V5.16667H34.5484V6.83333C34.5484 7.05435 34.6367 7.26631 34.794 7.42259C34.9513 7.57887 35.1647 7.66667 35.3871 7.66667H38.7419C38.9644 7.66667 39.1777 7.57887 39.335 7.42259C39.4923 7.26631 39.5806 7.05435 39.5806 6.83333V5.16667H44.6129V6.83333C44.6129 7.05435 44.7013 7.26631 44.8586 7.42259C45.0158 7.57887 45.2292 7.66667 45.4516 7.66667H48.8064C49.0289 7.66667 49.2422 7.57887 49.3995 7.42259C49.5568 7.26631 49.6452 7.05435 49.6452 6.83333V5.16667H50.0645C50.3981 5.16694 50.7179 5.29873 50.9538 5.53309C51.1897 5.76745 51.3223 6.08523 51.3226 6.41667V11.1696Z" stroke="url(#paint1_linear)" stroke-width="0.6" mask="url(#path-1-outside-1)"/>
<path d="M24.8309 35.0516L25.0634 34.9598L24.8309 35.0516C24.8843 35.1872 24.963 35.3111 25.063 35.4161L25.063 35.4161L28.3963 38.9161C28.5985 39.1284 28.8753 39.25 29.1666 39.25C29.458 39.25 29.7348 39.1284 29.937 38.9161C30.1387 38.7043 30.25 38.4195 30.25 38.125C30.25 37.8304 30.1387 37.5456 29.937 37.3338L26.9167 34.1625V25.875C26.9167 25.5805 26.8053 25.2957 26.6036 25.0839C26.4015 24.8716 26.1247 24.75 25.8333 24.75C25.542 24.75 25.2652 24.8716 25.063 25.0839C24.8613 25.2957 24.75 25.5805 24.75 25.875V34.625C24.75 34.7711 24.7774 34.916 24.8309 35.0516Z" fill="url(#paint2_linear)" stroke="url(#paint3_linear)" stroke-width="0.5"/>
<defs>
<linearGradient id="paint0_linear" x1="27" y1="1" x2="27" y2="51" gradientUnits="userSpaceOnUse">
<stop stop-color="#00E19E"/>
<stop offset="1" stop-color="#81E7FF"/>
</linearGradient>
<linearGradient id="paint1_linear" x1="27" y1="1" x2="27" y2="51" gradientUnits="userSpaceOnUse">
<stop stop-color="#00E19E"/>
<stop offset="1" stop-color="#81E7FF"/>
</linearGradient>
<linearGradient id="paint2_linear" x1="27.5" y1="25" x2="27.5" y2="39" gradientUnits="userSpaceOnUse">
<stop stop-color="#00E19E"/>
<stop offset="1" stop-color="#81E7FF"/>
</linearGradient>
<linearGradient id="paint3_linear" x1="27.5" y1="25" x2="27.5" y2="39" gradientUnits="userSpaceOnUse">
<stop stop-color="#00E19E"/>
<stop offset="1" stop-color="#81E7FF"/>
</linearGradient>
</defs>
</svg>
