<svg width="26" height="50" viewBox="0 0 26 50" fill="none" xmlns="http://www.w3.org/2000/svg">
<path d="M25.9366 32.8107C25.7931 29.0893 24.2412 25.4591 21.646 22.7787C16.56 18.3287 18.0728 8.89518 17.8771 2.96185C17.7728 -0.746487 13.5344 0.112285 11.0436 0.0342151C9.42646 0.0342151 8.10931 1.3484 8.10931 2.96185V13.4493C8.14843 21.8548 1.64088 22.9348 0.323725 30.5206C-0.276169 32.5114 0.167231 42.9078 0.0368194 45.1198C-0.0153453 47.7351 2.30598 50.0512 4.92726 49.9991H21.0592C22.9893 50.0252 24.8281 48.7891 25.5714 47.0195C26.3148 45.9265 25.8453 34.255 25.9366 32.8107ZM10.0655 2.96185C10.0655 2.42837 10.5089 1.98597 11.0436 1.98597H14.9559C16.0253 1.98597 15.9731 3.17003 15.934 3.93773H10.0655V2.96185ZM10.0655 5.88948H15.934V7.84123H10.0655V5.88948ZM24.0065 45.1198C24.0065 46.7332 22.6893 48.0474 21.0722 48.0474H4.92726C3.31015 48.0474 1.993 46.7332 1.993 45.1198V33.4613C2.38423 22.3493 11.0957 24.7825 10.0655 9.79299H15.934C15.7906 14.0478 15.9471 18.1465 18.3988 21.8028C19.8985 24.0538 22.1286 25.7974 23.0284 28.4257C24.6716 31.5355 23.7978 41.6847 24.0065 45.1198Z" fill="url(#paint0_linear)"/>
<path d="M21.2808 29.909C21.3851 25.459 16.8337 28.1914 13.9386 24.8604C11.9954 23.234 11.0174 27.0724 6.71377 27.0204C5.21404 27.0854 4.35332 28.4907 4.49677 29.896C4.45765 32.16 4.39244 34.9575 5.34445 37.5468C6.55728 40.7868 8.95685 42.7775 12.3215 43.9616C12.6736 44.0917 13.0779 44.0917 13.443 43.9616C20.0549 41.8928 21.7111 35.8944 21.2808 29.909ZM18.7769 36.9353C17.8379 39.4856 15.9078 41.2292 12.8953 42.2831C7.09197 40.5786 5.87914 35.0226 6.27037 29.961C6.28341 29.5316 6.20517 28.816 6.8181 28.777C9.20464 28.6338 11.1739 27.8922 12.8953 26.2917C16.7164 29.922 19.8593 27.5929 19.5202 29.948C19.5593 32.16 19.6115 34.6713 18.7769 36.9353Z" fill="url(#paint1_linear)"/>
<path d="M15.2429 31.5877L11.474 35.3481L10.4568 34.3332C10.0786 33.9558 9.47873 33.9558 9.10054 34.3332C8.72235 34.7105 8.72235 35.309 9.10054 35.6864L10.7959 37.3779C10.9785 37.5601 11.2263 37.6511 11.474 37.6511C11.7218 37.6511 11.9566 37.5601 12.1522 37.3779L16.5992 32.9409C16.9774 32.5636 16.9774 31.965 16.5992 31.5877C16.221 31.2104 15.6211 31.2104 15.2429 31.5877Z" fill="url(#paint2_linear)"/>
<defs>
<linearGradient id="paint0_linear" x1="13" y1="0" x2="13" y2="50" gradientUnits="userSpaceOnUse">
<stop offset="0.239583" stop-color="#1B537D"/>
<stop offset="1" stop-color="#0E2A53"/>
</linearGradient>
<linearGradient id="paint1_linear" x1="12.9114" y1="24.4585" x2="12.9114" y2="44.0592" gradientUnits="userSpaceOnUse">
<stop offset="0.239583" stop-color="#1B537D"/>
<stop offset="1" stop-color="#0E2A53"/>
</linearGradient>
<linearGradient id="paint2_linear" x1="12.8499" y1="31.3047" x2="12.8499" y2="37.6511" gradientUnits="userSpaceOnUse">
<stop offset="0.239583" stop-color="#1B537D"/>
<stop offset="1" stop-color="#0E2A53"/>
</linearGradient>
</defs>
</svg>
