<svg width="25" height="25" viewBox="0 0 25 25" fill="none" xmlns="http://www.w3.org/2000/svg">
<circle cx="12.5" cy="12.5" r="12.5" fill="url(#paint0_linear)"/>
<path d="M6.82542 9.28123L6.00951 8.61615V9.66879V16.3492C6.00951 16.6149 6.16887 16.7976 6.30028 16.8915C6.43827 16.99 6.60845 17.0426 6.78037 17.0426H18.2197C18.3916 17.0426 18.5617 16.99 18.6996 16.8916C18.8309 16.7979 18.9904 16.6153 18.9906 16.3497V16.3493V9.66864V8.616L18.1747 9.28108L13.0008 13.4985L13.3167 13.8861L13.0008 13.4985C12.9853 13.5111 12.9623 13.5202 12.9368 13.5202C12.9368 13.5202 12.9368 13.5202 12.9368 13.5202L12.0631 13.5202H12.063C12.0374 13.5202 12.0146 13.5111 11.9992 13.4986L11.9991 13.4985L6.82542 9.28123ZM12.1835 12.9601L12.5 13.219L12.8166 12.9601L17.8486 8.84442L18.9332 7.95738H17.5321H7.46796H6.06688L7.15141 8.84442L12.1835 12.9601ZM6.78037 7.5H18.2197C18.9615 7.5 19.5 8.05159 19.5 8.65079V16.3492C19.5 16.9484 18.9615 17.5 18.2197 17.5H6.78037C6.03857 17.5 5.5 16.9484 5.5 16.3492V8.65079C5.5 8.0516 6.03857 7.5 6.78037 7.5Z" stroke="#000037"/>
<defs>
<linearGradient id="paint0_linear" x1="12.5" y1="0" x2="12.5" y2="25" gradientUnits="userSpaceOnUse">
<stop offset="0.151042" stop-color="#A3E419"/>
<stop offset="1" stop-color="#83BB0D"/>
</linearGradient>
</defs>
</svg>
