<svg width="25" height="25" viewBox="0 0 25 25" fill="none" xmlns="http://www.w3.org/2000/svg">
<circle cx="12.5" cy="12.5" r="12.5" fill="url(#paint0_linear)"/>
<mask id="path-2-inside-1" fill="white">
<path d="M17.6272 13.9415C17.2998 13.6021 16.9049 13.4207 16.4864 13.4207C16.0712 13.4207 15.6729 13.5988 15.332 13.9382L14.2654 14.9966C14.1777 14.9496 14.0899 14.9059 14.0056 14.8622C13.884 14.8017 13.7693 14.7446 13.6714 14.6841C12.6723 14.0524 11.7644 13.2292 10.8936 12.164C10.4717 11.6331 10.1881 11.1862 9.98226 10.7325C10.259 10.4805 10.5155 10.2184 10.7653 9.9664C10.8598 9.87231 10.9543 9.77487 11.0488 9.68078C11.7576 8.97513 11.7576 8.06116 11.0488 7.35551L10.1274 6.43817C10.0228 6.33401 9.91475 6.22648 9.81349 6.11895C9.61098 5.91062 9.39834 5.69556 9.17895 5.49395C8.85155 5.17137 8.46002 5 8.04824 5C7.63646 5 7.23818 5.17137 6.90065 5.49395C6.89728 5.49731 6.89728 5.49731 6.8939 5.50067L5.74632 6.65323C5.31429 7.08333 5.06789 7.60753 5.01389 8.21573C4.93288 9.19691 5.22315 10.1109 5.44592 10.709C5.99271 12.1774 6.80952 13.5383 8.02799 14.9966C9.50635 16.754 11.2851 18.1418 13.317 19.1196C14.0933 19.4859 15.1295 19.9194 16.2872 19.9933C16.3581 19.9966 16.4324 20 16.4999 20C17.2795 20 17.9343 19.7211 18.4474 19.1667C18.4508 19.1599 18.4575 19.1566 18.4609 19.1499C18.6364 18.9382 18.8389 18.7466 19.0516 18.5417C19.1967 18.4039 19.3452 18.2594 19.4903 18.1082C19.8245 17.7621 20 17.3589 20 16.9456C20 16.5289 19.8211 16.129 19.4802 15.793L17.6272 13.9415ZM18.8355 17.4798C18.8322 17.4832 19.0337 17.2038 18.8355 17.4798C18.7039 17.621 18.5689 17.7487 18.4238 17.8898C18.2044 18.0981 17.9816 18.3165 17.7723 18.5618C17.4314 18.9247 17.0298 19.0961 16.5032 19.0961C16.4526 19.0961 16.3986 19.0961 16.348 19.0927C15.3455 19.0289 14.414 18.6391 13.7153 18.3065C11.8049 17.3858 10.1274 16.0786 8.73341 14.422C7.58245 13.041 6.8129 11.7641 6.30323 10.3931C5.98934 9.55645 5.87458 8.90457 5.92521 8.28965C5.95896 7.89651 6.11085 7.57056 6.39099 7.29167L7.54195 6.14583C7.70734 5.99126 7.88285 5.90726 8.05499 5.90726C8.26763 5.90726 8.43977 6.03495 8.54778 6.14247C8.55115 6.14583 8.55453 6.14919 8.5579 6.15255C8.76379 6.34409 8.95956 6.54234 9.16545 6.75403C9.27008 6.86156 9.37809 6.96909 9.48609 7.07997L10.4075 7.99731C10.7653 8.35349 10.7653 8.6828 10.4075 9.03898C10.3097 9.13643 10.2151 9.23387 10.1173 9.32796C9.83375 9.61694 9.56373 9.88575 9.27008 10.1478C9.26333 10.1546 9.25658 10.1579 9.2532 10.1647C8.96293 10.4536 9.01694 10.7359 9.07769 10.9274C9.08107 10.9375 9.08444 10.9476 9.08782 10.9577C9.32746 11.5356 9.66498 12.08 10.178 12.7285L10.1814 12.7319C11.113 13.8743 12.0952 14.7648 13.1786 15.4469C13.317 15.5343 13.4588 15.6048 13.5938 15.672C13.7153 15.7325 13.83 15.7896 13.9279 15.8501C13.9414 15.8569 13.9549 15.8669 13.9684 15.8737C14.0832 15.9308 14.1912 15.9577 14.3026 15.9577C14.5827 15.9577 14.7582 15.7829 14.8156 15.7258L15.9699 14.5766C16.0847 14.4624 16.267 14.3246 16.4796 14.3246C16.6889 14.3246 16.861 14.4556 16.9656 14.5699C16.969 14.5733 16.969 14.5733 16.9724 14.5766L18.8322 16.4281C19.1798 16.7708 19.1798 17.1237 18.8355 17.4798Z"/>
</mask>
<path d="M17.6272 13.9415L15.4681 16.0244L15.4873 16.0442L15.5068 16.0637L17.6272 13.9415ZM15.332 13.9382L17.4452 16.0676L17.4486 16.0642L15.332 13.9382ZM14.2654 14.9966L12.8481 17.6407L14.8037 18.689L16.3787 17.126L14.2654 14.9966ZM14.0056 14.8622L15.3848 12.1981L15.3637 12.1871L15.3424 12.1766L14.0056 14.8622ZM13.6714 14.6841L12.0681 17.2198L12.0812 17.2281L12.0944 17.2362L13.6714 14.6841ZM10.8936 12.164L8.54488 14.0304L8.55781 14.0467L8.57095 14.0628L10.8936 12.164ZM9.98226 10.7325L7.96246 8.51433L6.34811 9.98429L7.25047 11.9724L9.98226 10.7325ZM10.7653 9.9664L8.64874 7.84035L8.6416 7.84745L8.63451 7.8546L10.7653 9.9664ZM11.0488 7.35551L13.1654 5.22946V5.22946L11.0488 7.35551ZM10.1274 6.43817L8.01081 8.56422L8.01081 8.56422L10.1274 6.43817ZM9.81349 6.11895L11.9975 4.06226L11.9812 4.04494L11.9646 4.02788L9.81349 6.11895ZM9.17895 5.49395L7.07341 7.63094L7.11059 7.66757L7.14902 7.70288L9.17895 5.49395ZM6.90065 5.49395L4.82789 3.32516L4.80576 3.34631L4.78407 3.3679L6.90065 5.49395ZM6.8939 5.50067L4.7773 3.3746L4.76801 3.38394L6.8939 5.50067ZM5.74632 6.65323L7.86292 8.7793L7.87222 8.76996L5.74632 6.65323ZM5.01389 8.21573L2.02565 7.95039L2.02482 7.95964L2.02406 7.96889L5.01389 8.21573ZM5.44592 10.709L8.25733 9.66212L8.25726 9.66193L5.44592 10.709ZM8.02799 14.9966L5.72579 16.9202L5.73226 16.9279L8.02799 14.9966ZM13.317 19.1196L12.0161 21.8229L12.0265 21.8279L12.0369 21.8328L13.317 19.1196ZM16.2872 19.9933L16.0961 22.9872L16.1206 22.9887L16.1452 22.9899L16.2872 19.9933ZM18.4474 19.1667L20.6493 21.2042L20.9377 20.8925L21.1283 20.5131L18.4474 19.1667ZM18.4609 19.1499L16.1514 17.2351L15.9333 17.4981L15.78 17.8034L18.4609 19.1499ZM19.0516 18.5417L16.9862 16.3658L16.9778 16.3738L16.9695 16.3818L19.0516 18.5417ZM19.4903 18.1082L17.3321 16.0245L17.326 16.0308L19.4903 18.1082ZM19.4802 15.793L17.3598 17.9152L17.367 17.9224L17.3742 17.9296L19.4802 15.793ZM18.4238 17.8898L20.4895 20.0652L20.5024 20.053L20.5152 20.0406L18.4238 17.8898ZM17.7723 18.5618L19.9589 20.6158L20.0081 20.5635L20.0546 20.5089L17.7723 18.5618ZM16.348 19.0927L16.5467 16.0993L16.5387 16.0988L16.348 19.0927ZM13.7153 18.3065L12.4128 21.009L12.4192 21.012L12.4256 21.0151L13.7153 18.3065ZM8.73341 14.422L6.42882 16.3427L6.43338 16.3482L6.43797 16.3536L8.73341 14.422ZM6.30323 10.3931L9.11522 9.34778L9.11207 9.33937L6.30323 10.3931ZM5.92521 8.28965L2.93618 8.03304L2.93532 8.04348L5.92521 8.28965ZM6.39099 7.29167L8.50757 9.41772H8.50757L6.39099 7.29167ZM7.54195 6.14583L5.49352 3.95405L5.45893 3.98638L5.42537 4.01978L7.54195 6.14583ZM8.54778 6.14247L10.6644 4.01642L8.54778 6.14247ZM8.5579 6.15255L6.44132 8.2786L6.47734 8.31446L6.51455 8.34908L8.5579 6.15255ZM9.16545 6.75403L7.01485 8.84567L7.01539 8.84622L9.16545 6.75403ZM9.48609 7.07997L7.33706 9.17321L7.35316 9.18974L7.36952 9.20602L9.48609 7.07997ZM10.1173 9.32796L8.0383 7.16511L8.00661 7.19557L7.97582 7.22695L10.1173 9.32796ZM9.27008 10.1478L7.2724 7.9097L7.21142 7.96413L7.1535 8.0218L9.27008 10.1478ZM9.2532 10.1647L11.3698 12.2907L11.7153 11.9467L11.9341 11.5111L9.2532 10.1647ZM9.07769 10.9274L6.2181 11.8345L6.22533 11.8573L6.23292 11.8799L9.07769 10.9274ZM9.08782 10.9577L6.24304 11.9102L6.27638 12.0097L6.31659 12.1067L9.08782 10.9577ZM10.178 12.7285L7.82522 14.5898L7.93554 14.7292L8.06155 14.8547L10.178 12.7285ZM10.1814 12.7319L12.5064 10.836L12.4081 10.7154L12.2979 10.6057L10.1814 12.7319ZM13.1786 15.4469L14.7801 12.9101L14.777 12.9082L13.1786 15.4469ZM13.5938 15.672L12.2569 18.3577L13.5938 15.672ZM13.9279 15.8501L12.3509 18.4022L12.4679 18.4745L12.5911 18.5358L13.9279 15.8501ZM13.9684 15.8737L12.6316 18.5593L13.9684 15.8737ZM14.8156 15.7258L16.9322 17.8519L14.8156 15.7258ZM16.9656 14.5699L14.7533 16.5961L14.8 16.6471L14.8491 16.6959L16.9656 14.5699ZM16.9724 14.5766L14.8558 16.7027L16.9724 14.5766ZM18.8322 16.4281L16.7156 18.5541L16.7208 18.5593L16.726 18.5644L18.8322 16.4281ZM19.7863 11.8587C18.9783 11.0211 17.8337 10.4207 16.4864 10.4207V16.4207C15.9761 16.4207 15.6213 16.1832 15.4681 16.0244L19.7863 11.8587ZM16.4864 10.4207C15.1544 10.4207 14.0245 11.0066 13.2154 11.8121L17.4486 16.0642C17.3213 16.1909 16.988 16.4207 16.4864 16.4207V10.4207ZM13.2188 11.8088L12.1522 12.8672L16.3787 17.126L17.4452 16.0676L13.2188 11.8088ZM15.6828 12.3526C15.5742 12.2943 15.4087 12.2104 15.3848 12.1981L12.6264 17.5264C12.7712 17.6014 12.7812 17.6048 12.8481 17.6407L15.6828 12.3526ZM15.3424 12.1766C15.3108 12.1608 15.2876 12.1493 15.2661 12.1384C15.2453 12.1279 15.2315 12.1208 15.222 12.1159C15.2126 12.1109 15.2108 12.1099 15.2144 12.1119C15.2179 12.1139 15.23 12.1207 15.2484 12.1321L12.0944 17.2362C12.3322 17.3832 12.5794 17.5034 12.6687 17.5479L15.3424 12.1766ZM15.2747 12.1485C14.5879 11.7142 13.9151 11.1201 13.2162 10.2652L8.57095 14.0628C9.61363 15.3382 10.7568 16.3906 12.0681 17.2198L15.2747 12.1485ZM13.2423 10.2975C12.9255 9.89889 12.7909 9.66201 12.714 9.49264L7.25047 11.9724C7.58538 12.7103 8.01786 13.3672 8.54488 14.0304L13.2423 10.2975ZM12.0021 12.9507C12.3489 12.6349 12.6678 12.3085 12.8961 12.0782L8.63451 7.8546C8.36325 8.12831 8.16914 8.32613 7.96246 8.51433L12.0021 12.9507ZM12.8819 12.0924C12.9401 12.0345 12.9967 11.9771 13.0424 11.9308C13.0913 11.8813 13.1292 11.8429 13.1654 11.8068L8.93226 7.55473C8.87401 7.61272 8.8174 7.67011 8.77176 7.71635C8.72289 7.76587 8.68499 7.80425 8.64874 7.84035L12.8819 12.0924ZM13.1654 11.8068C13.9871 10.9888 14.5804 9.84965 14.5804 8.51815C14.5804 7.18664 13.9871 6.04752 13.1654 5.22946L8.93226 9.48156C8.81934 9.36914 8.58044 9.03984 8.58044 8.51815C8.58044 7.99645 8.81934 7.66715 8.93226 7.55473L13.1654 11.8068ZM13.1654 5.22946L12.244 4.31212L8.01081 8.56422L8.93226 9.48156L13.1654 5.22946ZM12.244 4.31212C12.1331 4.20173 12.0599 4.12851 11.9975 4.06226L7.62946 8.17565C7.76958 8.32445 7.91243 8.46628 8.01081 8.56422L12.244 4.31212ZM11.9646 4.02788C11.7549 3.81211 11.4936 3.54668 11.2089 3.28502L7.14902 7.70288C7.30306 7.84444 7.46706 8.00912 7.66235 8.21002L11.9646 4.02788ZM11.2845 3.35696C10.4688 2.55328 9.34482 2 8.04824 2V8C7.57522 8 7.2343 7.78946 7.07341 7.63094L11.2845 3.35696ZM8.04824 2C6.75976 2 5.64316 2.54598 4.82789 3.32516L8.97342 7.66274C8.83319 7.79676 8.51315 8 8.04824 8V2ZM4.78407 3.3679C4.78237 3.3696 4.78151 3.37046 4.78066 3.3713C4.77982 3.37214 4.77899 3.37296 4.77732 3.37462L9.01048 7.62672C9.01219 7.62502 9.01305 7.62417 9.0139 7.62332C9.01474 7.62249 9.01556 7.62166 9.01723 7.62L4.78407 3.3679ZM4.76801 3.38394L3.62042 4.53649L7.87222 8.76996L9.0198 7.61741L4.76801 3.38394ZM3.62974 4.52718C2.69872 5.45405 2.14231 6.63652 2.02565 7.95039L8.00213 8.48106C7.99981 8.50726 7.98906 8.56778 7.95438 8.64172C7.91974 8.71556 7.88047 8.76179 7.8629 8.77928L3.62974 4.52718ZM2.02406 7.96889C1.8865 9.63513 2.37718 11.065 2.63458 11.7561L8.25726 9.66193C8.17034 9.42855 8.09771 9.20528 8.05077 8.98387C8.00367 8.76167 7.99324 8.58941 8.00372 8.46256L2.02406 7.96889ZM2.63451 11.7559C3.32097 13.5994 4.33109 15.2509 5.7258 16.9202L10.3302 13.0731C9.28795 11.8257 8.66446 10.7555 8.25733 9.66212L2.63451 11.7559ZM5.73226 16.9279C7.47786 19.0029 9.59338 20.657 12.0161 21.8229L14.6179 16.4164C12.9768 15.6266 11.5348 14.5051 10.3237 13.0654L5.73226 16.9279ZM12.0369 21.8328C12.8848 22.2328 14.3471 22.8755 16.0961 22.9872L16.4784 16.9994C15.9119 16.9632 15.3019 16.7389 14.5971 16.4064L12.0369 21.8328ZM16.1452 22.9899C16.2066 22.9928 16.3503 23 16.4999 23V17C16.5134 17 16.5157 17.0003 16.5002 16.9998C16.4845 16.9992 16.4646 16.9983 16.4293 16.9966L16.1452 22.9899ZM16.4999 23C18.0795 23 19.5445 22.3982 20.6493 21.2042L16.2455 17.1291C16.2487 17.1256 16.2638 17.1101 16.2922 17.0898C16.321 17.0693 16.3559 17.0492 16.3946 17.0326C16.4783 16.9968 16.5259 17 16.4999 17V23ZM21.1283 20.5131C21.0608 20.6474 20.9895 20.7641 20.9212 20.8635C20.8534 20.9622 20.789 21.043 20.7363 21.1051C20.7099 21.1362 20.6857 21.1632 20.6651 21.1858C20.6445 21.2083 20.6266 21.2272 20.6126 21.2417C20.5987 21.2561 20.5875 21.2675 20.5807 21.2743C20.5773 21.2777 20.5745 21.2805 20.5729 21.2821C20.5715 21.2836 20.5703 21.2848 20.5706 21.2844C20.5707 21.2844 20.5711 21.2839 20.5716 21.2835C20.5721 21.2829 20.5729 21.2821 20.5739 21.2812C20.5758 21.2792 20.5789 21.2762 20.5826 21.2724C20.59 21.265 20.6019 21.2529 20.6164 21.2379C20.631 21.2228 20.6495 21.2032 20.6707 21.18C20.692 21.1568 20.7167 21.1291 20.7437 21.0973C20.7976 21.0339 20.863 20.9516 20.9318 20.8515C21.0012 20.7506 21.0735 20.6323 21.1418 20.4963L15.78 17.8034C15.8474 17.6692 15.9188 17.5524 15.9871 17.453C16.0549 17.3544 16.1193 17.2735 16.172 17.2115C16.1984 17.1804 16.2225 17.1533 16.2432 17.1307C16.2638 17.1082 16.2817 17.0893 16.2957 17.0748C16.3095 17.0604 16.3208 17.049 16.3275 17.0423C16.331 17.0388 16.3337 17.036 16.3353 17.0344C16.3368 17.033 16.338 17.0318 16.3376 17.0321C16.3376 17.0322 16.3372 17.0326 16.3367 17.0331C16.3362 17.0336 16.3354 17.0344 16.3344 17.0354C16.3325 17.0373 16.3294 17.0404 16.3256 17.0441C16.3183 17.0515 16.3064 17.0636 16.2919 17.0786C16.2773 17.0937 16.2587 17.1133 16.2376 17.1365C16.2163 17.1597 16.1916 17.1875 16.1646 17.2192C16.1107 17.2826 16.0453 17.3649 15.9764 17.4651C15.9071 17.566 15.8348 17.6843 15.7665 17.8202L21.1283 20.5131ZM20.7704 21.0646C20.8149 21.0109 20.8766 20.9493 21.1336 20.7016L16.9695 16.3818C16.8012 16.544 16.4579 16.8655 16.1514 17.2351L20.7704 21.0646ZM21.1169 20.7175C21.2789 20.5637 21.4644 20.3838 21.6547 20.1856L17.326 16.0308C17.226 16.135 17.1145 16.244 16.9862 16.3658L21.1169 20.7175ZM21.6486 20.1919C22.4341 19.3783 23 18.2551 23 16.9456H17C17 16.4627 17.2148 16.1459 17.3321 16.0245L21.6486 20.1919ZM23 16.9456C23 15.6141 22.4143 14.4728 21.5862 13.6565L17.3742 17.9296C17.2279 17.7853 17 17.4437 17 16.9456H23ZM21.6007 13.6708L19.7476 11.8193L15.5068 16.0637L17.3598 17.9152L21.6007 13.6708ZM21.2724 19.2296C21.3209 19.162 21.3492 19.1225 21.3624 19.1041C21.3643 19.1013 21.3672 19.0973 21.3703 19.0929C21.3718 19.0907 21.3743 19.0873 21.3772 19.0831C21.3792 19.0803 21.3857 19.071 21.3939 19.0591C21.3973 19.0542 21.407 19.04 21.4192 19.0218C21.4249 19.0132 21.4373 18.9946 21.4525 18.9706C21.46 18.9588 21.4777 18.9304 21.4879 18.9137C21.503 18.8886 21.5419 18.8211 21.5652 18.7785C21.6096 18.6927 21.7541 18.3499 21.8332 18.086C21.7124 16.2542 18.9083 14.358 17.2742 14.8515C17.0616 15.0052 16.7963 15.2419 16.7315 15.3091C16.6992 15.3442 16.6486 15.4014 16.63 15.4233C16.597 15.4624 16.5724 15.4937 16.5649 15.5032C16.5539 15.5171 16.5453 15.5284 16.5404 15.5348C16.5241 15.5561 16.5113 15.5734 16.5102 15.575C16.506 15.5805 16.5027 15.5851 16.501 15.5875C16.4916 15.6002 16.4805 15.6157 16.4757 15.6223C16.4612 15.6424 16.4404 15.6713 16.4227 15.6961C16.4143 15.7078 16.4039 15.7223 16.3946 15.7354C16.3912 15.7402 16.3816 15.7538 16.3708 15.7694C16.3692 15.7718 16.3497 15.7997 16.3267 15.8349C16.3198 15.8454 16.3073 15.8646 16.2921 15.8889C16.2828 15.9038 16.2458 15.9627 16.2032 16.0407C16.1922 16.061 16.1678 16.1076 16.1544 16.1339C16.1371 16.1688 16.0979 16.2529 16.0763 16.3023C16.0463 16.3751 15.9776 16.5676 15.9419 16.6881C15.8905 16.908 15.8385 17.614 15.8989 18.0934C16.2911 19.0692 17.9721 20.3529 19.0639 20.4712C19.5711 20.3883 20.2706 20.1143 20.4754 19.992C20.5832 19.9182 20.751 19.7887 20.8131 19.7358C20.8543 19.699 20.9236 19.6339 20.9521 19.6059L16.719 15.3538C16.7474 15.3258 16.8168 15.2607 16.858 15.2239C16.92 15.171 17.0879 15.0415 17.1956 14.9678C17.4004 14.8454 18.0999 14.5714 18.6072 14.4886C19.6989 14.6068 21.3799 15.8905 21.7721 16.8664C21.8325 17.3457 21.7805 18.0517 21.7291 18.2716C21.6934 18.3921 21.6247 18.5846 21.5947 18.6574C21.5731 18.7068 21.5339 18.7908 21.5167 18.8257C21.5033 18.8521 21.4788 18.8986 21.4678 18.9189C21.4253 18.9968 21.3884 19.0556 21.3792 19.0703C21.3641 19.0945 21.3517 19.1135 21.3449 19.1238C21.3224 19.1581 21.3039 19.1847 21.3035 19.1853C21.2984 19.1926 21.2947 19.198 21.2935 19.1997C21.2919 19.202 21.2909 19.2033 21.2908 19.2035C21.2905 19.2039 21.2913 19.2027 21.2935 19.1997C21.2956 19.1968 21.2982 19.1932 21.3013 19.1888C21.3142 19.1707 21.3308 19.1477 21.3415 19.1329C21.3493 19.1221 21.3477 19.1243 21.3425 19.1314C21.3413 19.1331 21.3384 19.137 21.3346 19.1422C21.3338 19.1432 21.3213 19.1602 21.3051 19.1813C21.3003 19.1877 21.2917 19.1989 21.2808 19.2127C21.2733 19.2222 21.2487 19.2535 21.2157 19.2926C21.1971 19.3144 21.1465 19.3717 21.1143 19.4068C21.0495 19.4739 20.7842 19.7107 20.5715 19.8643C18.9374 20.3579 16.1333 18.4617 16.0126 16.6298C16.0916 16.3659 16.2361 16.0232 16.2805 15.9374C16.3039 15.8948 16.3427 15.8273 16.3578 15.8021C16.368 15.7855 16.3857 15.7571 16.3932 15.7453C16.4084 15.7214 16.4207 15.7028 16.4264 15.6943C16.4385 15.6761 16.4482 15.6621 16.4515 15.6573C16.4594 15.6458 16.4656 15.637 16.4671 15.6348C16.4696 15.6312 16.4715 15.6285 16.4724 15.6273C16.4742 15.6247 16.4753 15.6233 16.475 15.6237C16.47 15.6306 16.4492 15.6597 16.3987 15.7301L21.2724 19.2296ZM16.6417 15.4336C16.5749 15.5052 16.5174 15.559 16.3323 15.739L20.5152 20.0406C20.6204 19.9383 20.8329 19.7367 21.0294 19.5261L16.6417 15.4336ZM16.358 15.7143C16.1214 15.939 15.8052 16.2454 15.49 16.6148L20.0546 20.5089C20.158 20.3877 20.2873 20.2572 20.4895 20.0652L16.358 15.7143ZM15.5858 16.5078C15.6652 16.4232 15.8171 16.2957 16.0402 16.2014C16.2591 16.109 16.4342 16.0961 16.5032 16.0961V22.0961C17.8197 22.0961 19.0253 21.6097 19.9589 20.6158L15.5858 16.5078ZM16.5032 16.0961C16.4896 16.0961 16.4828 16.0961 16.4769 16.0961C16.4716 16.0961 16.4712 16.096 16.4738 16.0961C16.4764 16.0961 16.4841 16.0963 16.4957 16.0967C16.5071 16.0971 16.5245 16.0979 16.5467 16.0993L16.1493 22.0862C16.3167 22.0973 16.4723 22.0961 16.5032 22.0961V16.0961ZM16.5387 16.0988C16.1361 16.0732 15.6367 15.8986 15.005 15.5978L12.4256 21.0151C13.1913 21.3796 14.5549 21.9846 16.1573 22.0867L16.5387 16.0988ZM15.0177 15.6039C13.4964 14.8707 12.1553 13.8291 11.0289 12.4905L6.43797 16.3536C8.09953 18.3282 10.1134 19.9008 12.4128 21.009L15.0177 15.6039ZM11.038 12.5014C10.0572 11.3246 9.48326 10.3378 9.11521 9.34778L3.49126 11.4385C4.14253 13.1904 5.10768 14.7574 6.42882 16.3427L11.038 12.5014ZM9.11207 9.33937C8.89339 8.75649 8.91266 8.56532 8.91509 8.53582L2.93532 8.04348C2.83649 9.24382 3.08528 10.3564 3.4944 11.4469L9.11207 9.33937ZM8.91421 8.54626C8.90371 8.66859 8.86875 8.83536 8.78438 9.0162C8.7 9.19706 8.59463 9.33104 8.50757 9.41772L4.27441 5.16562C3.49128 5.94526 3.03058 6.93367 2.9362 8.03304L8.91421 8.54626ZM8.50757 9.41772L9.65853 8.27188L5.42537 4.01978L4.27441 5.16562L8.50757 9.41772ZM9.59038 8.33762C9.41123 8.50506 8.89009 8.90726 8.05499 8.90726V2.90726C6.87561 2.90726 6.00345 3.47747 5.49352 3.95405L9.59038 8.33762ZM8.05499 8.90726C7.54702 8.90726 7.15097 8.75299 6.9034 8.61787C6.66453 8.4875 6.50992 8.3469 6.4312 8.26852L10.6644 4.01642C10.368 3.72143 9.46641 2.90726 8.05499 2.90726V8.90726ZM6.4312 8.26852C6.43286 8.27018 6.43453 8.27184 6.43622 8.27352C6.4379 8.2752 6.43961 8.2769 6.44132 8.2786L10.6745 4.0265C10.6728 4.02485 10.6712 4.02319 10.6695 4.02151C10.6678 4.01983 10.6661 4.01813 10.6644 4.01642L6.4312 8.26852ZM6.51455 8.34908C6.66244 8.48665 6.81468 8.63985 7.01485 8.84567L11.316 4.66239C11.1044 4.44483 10.8651 4.20152 10.6013 3.95603L6.51455 8.34908ZM7.01539 8.84622C7.07752 8.91007 7.13915 8.97238 7.19138 9.02519C7.24636 9.08079 7.29232 9.12728 7.33706 9.17321L11.6351 4.98674C11.5719 4.92178 11.5098 4.85906 11.4576 4.80629C11.4027 4.75074 11.358 4.70552 11.3155 4.66184L7.01539 8.84622ZM7.36952 9.20602L8.29096 10.1234L12.5241 5.87126L11.6027 4.95392L7.36952 9.20602ZM8.29096 10.1234C8.18512 10.018 7.67587 9.46877 7.67587 8.51815C7.67587 7.56752 8.18512 7.01829 8.29096 6.91293L12.5241 11.165C12.9877 10.7035 13.6759 9.81151 13.6759 8.51815C13.6759 7.22478 12.9877 6.33281 12.5241 5.87126L8.29096 10.1234ZM8.29096 6.91293C8.1404 7.06282 8.11402 7.09232 8.0383 7.16511L12.1962 11.4908C12.3163 11.3754 12.4789 11.21 12.5241 11.165L8.29096 6.91293ZM7.97582 7.22695C7.70397 7.50404 7.4899 7.71558 7.2724 7.9097L11.2678 12.386C11.6376 12.0559 11.9635 11.7298 12.2587 11.429L7.97582 7.22695ZM7.1535 8.0218C7.23924 7.93644 7.31156 7.87522 7.34226 7.84958C7.35476 7.83914 7.36859 7.82785 7.36058 7.83441C7.35869 7.83596 7.33808 7.8528 7.31299 7.87421C7.22563 7.94877 6.84916 8.267 6.57232 8.81821L11.9341 11.5111C11.6606 12.0556 11.2892 12.3688 11.2078 12.4383C11.1841 12.4584 11.1651 12.474 11.1647 12.4743C11.1583 12.4796 11.1737 12.4669 11.1879 12.4551C11.2219 12.4268 11.2975 12.3626 11.3867 12.2739L7.1535 8.0218ZM7.13662 8.0386C6.53888 8.63368 6.15187 9.39341 6.05389 10.2361C5.96541 10.997 6.1434 11.599 6.2181 11.8345L11.9373 10.0204C11.9512 10.0643 12.0718 10.4294 12.0137 10.9291C11.9461 11.5105 11.6773 11.9846 11.3698 12.2907L7.13662 8.0386ZM6.23292 11.8799C6.23461 11.885 6.2363 11.89 6.23799 11.8951C6.23968 11.9001 6.24136 11.9051 6.24304 11.9102L11.9326 10.0052C11.9309 10.0001 11.9292 9.99505 11.9275 9.99001C11.9258 9.98497 11.9241 9.97994 11.9225 9.97492L6.23292 11.8799ZM6.31659 12.1067C6.69278 13.014 7.19834 13.7973 7.82522 14.5898L12.5308 10.8672C12.1316 10.3626 11.9621 10.0573 11.859 9.80861L6.31659 12.1067ZM8.06155 14.8547L8.06493 14.858L12.2979 10.6057L12.2945 10.6023L8.06155 14.8547ZM7.85635 14.6277C8.96227 15.984 10.1822 17.1055 11.5803 17.9857L14.777 12.9082C14.0081 12.4241 13.2637 11.7647 12.5064 10.836L7.85635 14.6277ZM11.5771 17.9837C11.8639 18.1647 12.1397 18.2994 12.2569 18.3577L14.9306 12.9864C14.858 12.9502 14.8236 12.9329 14.7943 12.9174C14.7689 12.9039 14.7678 12.9023 14.7801 12.9101L11.5771 17.9837ZM12.2569 18.3577C12.2885 18.3734 12.3117 18.385 12.3332 18.3958C12.3541 18.4063 12.3679 18.4134 12.3773 18.4184C12.3867 18.4233 12.3886 18.4244 12.385 18.4224C12.3814 18.4204 12.3693 18.4136 12.3509 18.4022L15.5049 13.2981C15.2671 13.1511 15.0199 13.0308 14.9306 12.9864L12.2569 18.3577ZM12.5911 18.5358C12.5485 18.5146 12.512 18.4951 12.4828 18.479C12.4535 18.4628 12.4293 18.4488 12.4115 18.4382C12.3938 18.4278 12.38 18.4194 12.3725 18.4148C12.3658 18.4107 12.3604 18.4072 12.3633 18.4091C12.3637 18.4093 12.3726 18.4149 12.3827 18.4211C12.3935 18.4277 12.4107 18.4382 12.4317 18.4506C12.4529 18.4631 12.4805 18.4792 12.5131 18.4972C12.5458 18.5152 12.5856 18.5365 12.6316 18.5593L15.3053 13.188C15.3479 13.2092 15.3843 13.2287 15.4136 13.2448C15.4428 13.261 15.4671 13.275 15.4849 13.2855C15.5026 13.296 15.5163 13.3044 15.5238 13.309C15.5305 13.3131 15.536 13.3165 15.5331 13.3147C15.5326 13.3144 15.5238 13.3089 15.5137 13.3027C15.5028 13.2961 15.4857 13.2856 15.4646 13.2732C15.4435 13.2606 15.4158 13.2446 15.3832 13.2266C15.3506 13.2086 15.3107 13.1873 15.2648 13.1645L12.5911 18.5358ZM12.6316 18.5593C13.1056 18.7953 13.6684 18.9577 14.3026 18.9577V12.9577C14.714 12.9577 15.0608 13.0663 15.3053 13.188L12.6316 18.5593ZM14.3026 18.9577C15.8825 18.9577 16.8207 17.9629 16.9322 17.8519L12.699 13.5998C12.6958 13.603 13.2829 12.9577 14.3026 12.9577V18.9577ZM16.9322 17.8519L18.0865 16.7027L13.8534 12.4506L12.699 13.5998L16.9322 17.8519ZM18.0865 16.7027C18.0214 16.7675 17.8819 16.8968 17.6605 17.0216C17.4369 17.1475 17.0284 17.3246 16.4796 17.3246V11.3246C15.0266 11.3246 14.1041 12.2009 13.8534 12.4506L18.0865 16.7027ZM16.4796 17.3246C15.9447 17.3246 15.53 17.1558 15.2727 17.0087C15.0229 16.8659 14.8557 16.7079 14.7533 16.5961L19.178 12.5437C18.8506 12.1862 17.9329 11.3246 16.4796 11.3246V17.3246ZM14.8491 16.6959C14.8509 16.6977 14.8518 16.6986 14.8527 16.6995C14.8535 16.7003 14.8542 16.7011 14.8558 16.7027L19.089 12.4506C19.0872 12.4488 19.0863 12.4479 19.0854 12.447C19.0846 12.4462 19.0838 12.4454 19.0822 12.4438L14.8491 16.6959ZM14.8558 16.7027L16.7156 18.5541L20.9487 14.302L19.089 12.4506L14.8558 16.7027ZM16.726 18.5644C16.553 18.3939 16.0955 17.848 16.0933 16.9561C16.0912 16.0788 16.5327 15.5457 16.6785 15.3949L20.9926 19.5648C21.4827 19.0578 22.0963 18.1702 22.0933 16.9417C22.0903 15.6987 21.459 14.805 20.9383 14.2917L16.726 18.5644Z" fill="#000037" mask="url(#path-2-inside-1)"/>
<defs>
<linearGradient id="paint0_linear" x1="12.5" y1="0" x2="12.5" y2="25" gradientUnits="userSpaceOnUse">
<stop offset="0.151042" stop-color="#A3E419"/>
<stop offset="1" stop-color="#83BB0D"/>
</linearGradient>
</defs>
</svg>
