<svg width="50" height="50" viewBox="0 0 50 50" fill="none" xmlns="http://www.w3.org/2000/svg">
<path d="M39.6537 39.932C38.6629 39.1494 37.4564 40.7244 38.4766 41.4776C38.8886 41.7026 40.2227 43.033 40.7328 42.945C41.3802 43.17 44.1857 39.4429 44.637 39.1298C45.5002 38.2103 44.0288 36.8799 43.195 37.8288L40.615 40.6657L39.6537 39.932Z" fill="url(#paint0_linear)"/>
<path d="M49.993 34.7473C49.9832 34.2484 49.6007 33.8473 49.1004 33.7984C44.0779 33.4462 41.6843 28.3398 40.4287 29.8463C39.487 30.8343 38.3981 31.6854 37.27 32.3506C35.1316 29.9637 32.3849 28.2322 29.2654 27.2539C32.1789 24.3681 33.5816 20.9247 33.2972 17.3541C35.9065 16.3171 35.8182 12.3161 33.1598 11.4064C32.6595 6.56403 29.236 2.49453 24.5372 1.14455C24.3999 0.498906 23.8113 0 23.1148 0H19.5834C18.9065 0 18.3376 0.459776 18.1708 1.08585C13.4622 2.27931 9.7444 6.59338 9.30297 11.4161C6.64458 12.3259 6.5563 16.3269 9.16564 17.3639C8.88116 20.9345 10.2937 24.3779 13.1974 27.2637C6.18353 29.4256 1.81828 35.2364 0.248748 42.4559C-0.0357293 43.7472 -0.25154 45.3808 0.631321 46.4765C1.49456 47.5525 3.04447 47.6895 4.29029 47.6895C12.4126 47.6895 29.0889 47.6895 37.27 47.6895C42.1356 53.9796 46.6087 45.6547 47.9232 43.6102C49.4928 40.7048 50.0715 38.2201 49.993 34.7473ZM31.1783 11.2107H25.8223C24.8119 8.56944 24.6157 6.39773 24.5863 3.20865C28.0883 4.44124 30.6388 7.5325 31.1783 11.2107ZM20.0739 1.93693H22.6244C22.6342 5.69339 22.7225 8.23683 23.7427 11.2009H18.9458C19.9758 8.24662 20.0641 5.69339 20.0739 1.93693ZM18.1218 3.13039C18.0923 6.36838 17.906 8.54987 16.8858 11.2107H11.2943C11.8535 7.48358 14.5413 4.31407 18.1218 3.13039ZM9.17545 14.4193C9.17545 13.7248 9.7444 13.1476 10.4507 13.1476H16.9642C17.0231 13.1965 17.0721 13.1965 17.1212 13.1476H32.0219C32.7184 13.1476 33.2972 13.715 33.2972 14.4193C33.2972 15.1237 32.7282 15.6911 32.0219 15.6911H10.4507C9.75421 15.6911 9.17545 15.1139 9.17545 14.4193ZM11.1177 18.8899V17.628H31.3549C31.8257 21.991 28.2747 26.892 23.6642 28.6822C17.8765 31.0398 11.1472 23.8594 11.1177 18.8899ZM27.3133 34.6886L23.3307 30.8245C24.8217 30.4235 26.2147 29.7191 27.4997 28.78C27.951 28.8876 28.4022 29.0148 28.8338 29.1517C29.2949 31.656 28.3237 33.3778 27.3133 34.6886ZM19.142 30.8245L15.1593 34.6886C14.1489 33.3778 13.1778 31.656 13.6486 29.1517C14.0802 29.0148 14.5217 28.8876 14.9827 28.78C16.258 29.7191 17.6509 30.4332 19.142 30.8245ZM20.6723 45.7526C19.2891 45.5178 2.85809 46.32 2.1518 45.2635C1.44551 40.5092 5.64401 32.5952 11.5984 29.9637C11.412 33.2408 13.1974 35.3832 14.3255 36.7429C14.6688 37.1734 15.3653 37.2125 15.7577 36.8212L21.2412 31.4995L26.7248 36.8212C27.1171 37.2125 27.8136 37.1734 28.157 36.7429C29.2851 35.3832 31.0704 33.2408 30.884 29.9637C32.6105 30.7854 34.1408 31.8713 35.4553 33.2408C34.4155 33.8669 32.3653 33.3875 32.2966 34.7473C32.277 39.394 33.0323 41.7809 35.7299 45.7526H20.6723ZM46.2066 42.7004C45.0588 44.8428 42.3612 48.1493 41.135 48.1493C37.6428 46.8776 33.925 39.932 34.2193 35.6179C36.7501 35.119 39.1731 33.6908 41.135 31.8908C43.2048 33.818 45.7357 35.1777 48.0508 35.6179C48.0213 38.3277 47.4916 40.3135 46.2066 42.7004Z" fill="url(#paint1_linear)"/>
<defs>
<linearGradient id="paint0_linear" x1="41.4943" y1="37.5022" x2="41.4943" y2="42.9548" gradientUnits="userSpaceOnUse">
<stop offset="0.239583" stop-color="#1B537D"/>
<stop offset="1" stop-color="#0E2A53"/>
</linearGradient>
<linearGradient id="paint1_linear" x1="25" y1="0" x2="25" y2="50" gradientUnits="userSpaceOnUse">
<stop offset="0.239583" stop-color="#1B537D"/>
<stop offset="1" stop-color="#0E2A53"/>
</linearGradient>
</defs>
</svg>
