<svg width="35" height="50" viewBox="0 0 35 50" fill="none" xmlns="http://www.w3.org/2000/svg">
<path d="M34.9942 12.8388C34.9942 12.3042 34.5534 11.8609 34.0218 11.8609H31.1694C31.2991 3.7637 33.581 4.54604 26.6445 3.92016C25.698 -1.5823 17.4131 -1.17809 17.0241 4.41565L8.82998 13.6212C7.74089 13.1909 6.54807 13.4386 5.71828 14.2731L0.843273 19.1888C-0.686649 20.6622 -0.038377 23.4787 2.01016 24.0524C3.0474 24.3784 4.20132 24.1045 4.97925 23.3222L9.82832 18.4326C10.7489 17.5459 10.9433 15.9943 10.308 14.899L17.452 6.86698C17.7891 7.59716 18.3077 8.23607 18.943 8.71852V11.8479C13.705 11.7044 15.3127 11.9 15.0534 16.7375C15.0534 17.2721 15.4942 17.7154 16.0258 17.7154H18.943C18.8004 22.9832 18.9949 21.3664 23.8051 21.6271C24.3366 21.6271 24.7775 21.1838 24.7775 20.6492V17.7154H29.1598V44.1325H27.0464C27.3317 44.2889 27.1761 34.2228 27.215 33.9229C27.3317 31.0934 24.8553 30.7675 24.7775 28.5639C24.6997 26.921 25.3998 23.6221 22.8327 23.596C18.3077 23.27 18.969 24.913 18.943 28.5639C18.8652 30.7414 16.3888 31.0934 16.5185 33.9229C16.5444 34.3141 16.3888 44.1716 16.687 44.1325C8.16875 44.5367 8.64847 42.2027 8.73922 49.0221C8.73922 49.5567 9.18005 50 9.71163 50H34.0218C34.5534 50 34.9942 49.5567 34.9942 49.0221C35.0072 40.2207 34.9942 21.7314 34.9942 12.8388ZM8.45399 17.0504C7.83164 17.3895 3.46229 22.8528 2.59361 22.1878C2.06202 22.1226 1.64713 21.0795 2.21761 20.597L7.09261 15.6813C7.9613 14.7686 9.33564 16.0856 8.45399 17.0504ZM26.6056 5.88905L29.5876 6.18895L29.2246 11.8609H24.7904V8.73156C25.698 8.04049 26.3593 7.03649 26.6056 5.88905ZM21.8732 1.88608C25.711 1.95127 25.711 7.68844 21.8732 7.75363C18.0354 7.68844 18.0354 1.95127 21.8732 1.88608ZM22.8327 9.60517V11.8609H20.8878V9.60517C21.5231 9.73556 22.2103 9.73556 22.8327 9.60517ZM22.8327 19.6843H20.8878V17.7285H22.8327V19.6843ZM16.9982 15.7726V13.8168H33.0494V15.7726H16.9982ZM18.4633 33.9229C18.5281 31.7454 21.0175 31.3803 20.8878 28.5639V25.5519H22.8327C22.8327 27.6381 22.4826 30.5588 24.3885 31.9801C26.061 32.8928 24.9849 41.642 25.2702 43.1545C25.2702 43.6891 24.8293 44.1325 24.2978 44.1325H19.4357C18.9041 44.1325 18.4633 43.6891 18.4633 43.1545V33.9229ZM33.0494 48.0442H10.684V46.0883H33.0494V48.0442ZM33.0494 44.1325H31.1046V17.7285H33.0494C33.0494 24.1567 33.0494 37.8085 33.0494 44.1325Z" fill="url(#paint0_linear)"/>
<defs>
<linearGradient id="paint0_linear" x1="17.5" y1="0" x2="17.5" y2="50" gradientUnits="userSpaceOnUse">
<stop offset="0.239583" stop-color="#1B537D"/>
<stop offset="1" stop-color="#0E2A53"/>
</linearGradient>
</defs>
</svg>
