<svg width="30" height="40" viewBox="0 0 30 40" fill="none" xmlns="http://www.w3.org/2000/svg">
<path d="M19.4016 0.598524L29.4016 10.5985C29.5313 10.7283 29.5313 10.94 29.4016 11.0698C29.3374 11.1339 29.253 11.1667 29.1668 11.1667C29.0814 11.1667 28.996 11.1344 28.9292 11.0687C28.929 11.0684 28.9287 11.0682 28.9284 11.0679L18.9303 1.06978C18.8006 0.940039 18.8006 0.728262 18.9303 0.598524C19.06 0.468786 19.2718 0.468786 19.4016 0.598524Z" stroke="url(#paint0_linear)"/>
<path d="M18.8334 1.66664V1.16664H18.3334H2.5C1.76322 1.16664 1.16664 1.76614 1.16664 2.5V37.5C1.16664 38.2339 1.76322 38.8334 2.5 38.8334H27.5C28.2368 38.8334 28.8334 38.2339 28.8334 37.5V11.6666V11.1666H28.3334H20.8334C19.7311 11.1666 18.8334 10.2689 18.8334 9.16664V1.66664ZM20.8334 10.5H29.1666C29.3505 10.5 29.5 10.6495 29.5 10.8334V37.5C29.5 38.6022 28.6022 39.5 27.5 39.5H2.5C1.39778 39.5 0.5 38.6022 0.5 37.5V2.5C0.5 1.39778 1.39778 0.5 2.5 0.5H19.1666C19.3505 0.5 19.5 0.649502 19.5 0.833359V9.16664C19.5 9.9005 20.0966 10.5 20.8334 10.5Z" stroke="url(#paint1_linear)"/>
<defs>
<linearGradient id="paint0_linear" x1="24.1659" y1="0.0012207" x2="24.1659" y2="11.6667" gradientUnits="userSpaceOnUse">
<stop offset="0.151042" stop-color="#A3E419"/>
<stop offset="1" stop-color="#83BB0D"/>
</linearGradient>
<linearGradient id="paint1_linear" x1="15" y1="0" x2="15" y2="40" gradientUnits="userSpaceOnUse">
<stop offset="0.151042" stop-color="#A3E419"/>
<stop offset="1" stop-color="#83BB0D"/>
</linearGradient>
</defs>
</svg>
