<svg width="50" height="50" viewBox="0 0 50 50" fill="none" xmlns="http://www.w3.org/2000/svg">
<path d="M27.4271 17.83C27.9995 18.1938 32.163 12.685 32.5533 12.4251C32.9176 12.0873 32.7615 11.2428 32.7875 10.8141H48.986C49.5064 10.8271 49.9748 10.3594 49.9618 9.83966C49.8838 9.50185 50.235 0.329235 49.6756 0.381205C49.1031 -0.450308 1.7307 0.381205 0.976076 0.0953723C0.455644 0.0823799 -0.012746 0.550106 0.000264802 1.0698V9.83966C-0.012746 10.3594 0.455644 10.8271 0.976076 10.8141H17.1745C17.2136 11.2558 17.0444 12.0743 17.4087 12.4121L21.7023 17.4792C22.0796 18.0508 23.4588 17.752 24.0052 17.83V19.7788C21.4291 19.8048 22.1447 23.0789 22.0536 24.7289C22.1447 26.262 20.5183 26.9116 20.0239 28.1979C19.7507 28.7955 19.6206 29.4192 19.6206 30.0688C19.6596 30.4586 19.4775 40.2808 19.7897 40.2418H12.5167C12.8029 40.3977 12.6468 30.3676 12.6858 30.0688C12.8029 27.2494 10.3178 26.9246 10.2398 24.7289C10.2138 21.1041 10.8773 19.454 6.33653 19.7788C3.76039 19.8048 4.46298 23.0789 4.38491 24.7289C4.31986 26.8987 1.82178 27.2494 1.95189 30.0688C2.12103 31.2641 1.4835 40.0599 2.4463 40.9044C-1.80824 43.2301 -0.0517784 50.09 4.87932 49.9991H45.0828C50.0009 50.09 51.7833 43.2301 47.5158 40.9044C48.4786 40.1119 47.8411 31.2381 48.0102 30.0688C48.1403 27.2365 45.6032 26.9246 45.5642 24.651C45.4861 23.0139 46.1627 19.8048 43.6125 19.7788C39.1368 19.467 39.7223 21.0131 39.7093 24.651C39.8004 26.249 38.2 26.8857 37.6796 28.1979C37.4064 28.7955 37.2763 29.4192 37.2763 30.0688C37.3023 30.4586 37.1462 40.2808 37.4454 40.2418H30.1854C30.4586 40.4237 30.3285 30.3546 30.3545 30.0688C30.4846 27.2624 27.9995 26.9116 27.9085 24.7289C27.8304 23.0919 28.533 19.8048 25.9569 19.7788V17.83H27.4271ZM34.7392 5.94194V2.04423H48.0102V8.86523H32.7875V6.91637C33.5552 6.95535 34.7392 7.00732 34.7392 5.94194ZM17.1745 8.86523H1.95189V2.04423H15.2229V5.94194C15.2229 7.00732 16.4069 6.95535 17.1745 6.91637V8.86523ZM17.1745 4.96751V2.04423H32.7875V4.96751H17.1745ZM3.90351 30.0688C3.96857 27.8991 6.46664 27.5353 6.33653 24.7289V21.7277H8.28816C8.28816 23.8065 7.93687 26.7168 9.84946 28.1329C11.5279 29.0424 10.448 37.7603 10.7342 39.2674C10.7342 39.8001 10.2918 40.2418 9.75838 40.2418H4.87932C4.34588 40.2418 3.90351 39.8001 3.90351 39.2674V30.0688ZM39.2279 30.0688C39.2149 28.2239 41.4007 27.4833 41.5698 25.6254C41.6479 24.651 41.6999 22.7021 41.6739 21.7277H43.6255C43.6646 23.8454 43.2743 26.6648 45.1868 28.1329C46.8522 29.0294 45.7853 37.7603 46.0716 39.2674C46.0716 39.8001 45.6292 40.2418 45.0958 40.2418H40.2037C39.6703 40.2418 39.2279 39.8001 39.2279 39.2674V30.0688ZM45.0828 42.1907C48.921 42.2556 48.934 47.9723 45.0828 48.0373H4.87932C3.26598 48.0373 1.95189 46.725 1.95189 45.114C1.95189 43.5029 3.26598 42.1907 4.87932 42.1907H45.0828ZM26.3602 26.5998C26.8546 27.8861 28.4809 28.5357 28.3899 30.0688C28.3899 32.6283 28.3899 36.6819 28.3899 39.2674C28.3899 39.8001 27.9475 40.2418 27.4141 40.2418H22.535C22.0016 40.2418 21.5592 39.8001 21.5592 39.2674C21.5722 36.8638 21.5592 32.4204 21.5592 30.0688C22.1317 26.4699 24.3956 29.2633 23.9922 21.7277H25.9438C26.0089 23.0009 25.7357 25.4565 26.3602 26.5998ZM24.981 12.9578C23.5759 12.9188 24.0963 15.0626 24.0052 15.8811H22.8993L19.1262 11.4377V6.91637H30.8359V11.4247L26.9717 15.8811H25.9569C25.8658 15.0496 26.3862 12.9188 24.981 12.9578Z" fill="url(#paint0_linear)"/>
<defs>
<linearGradient id="paint0_linear" x1="25" y1="0" x2="25" y2="50" gradientUnits="userSpaceOnUse">
<stop offset="0.239583" stop-color="#1B537D"/>
<stop offset="1" stop-color="#0E2A53"/>
</linearGradient>
</defs>
</svg>
