<svg width="52" height="50" viewBox="0 0 52 50" fill="none" xmlns="http://www.w3.org/2000/svg">
<path d="M51.9871 29.1313C51.8289 25.7733 47.4005 24.089 45.1019 26.5678C42.6557 29.0466 39.6612 32.6377 35.9287 32.8602C37.2678 30.3178 35.2644 27.0233 32.3859 27.0974H25.8909C19.09 21.3241 11.2453 25.8263 6.33187 31.6949C5.68869 31.25 4.7081 30.7839 4.20199 31.6843L0.142577 38.75C-0.152653 39.2585 0.0265938 39.9046 0.532703 40.2013C2.7153 41.3241 15.7792 49.3114 17.7299 50C18.0989 50 18.4468 49.8093 18.6472 49.4703C18.7526 49.1631 23.3498 41.7796 22.812 41.6208C30.1295 41.4513 41.0425 43.1038 46.3988 36.7373L50.8062 32.3093C51.6497 31.4724 52.082 30.3178 51.9871 29.1313ZM17.3503 47.4894C15.0833 46.1864 4.9717 40.3178 2.50442 38.8877L5.50944 33.6547L20.3553 42.2669L17.3503 47.4894ZM49.33 30.8157L44.9227 35.2436C39.8194 41.5254 26.7449 39.0466 19.807 39.5021L8.22978 32.786C11.0977 29.6292 14.651 26.3771 19.1955 26.5996C21.2832 26.5996 23.2443 27.4152 24.7205 28.8983C24.9208 29.0996 25.1844 29.2055 25.4691 29.2055H32.3859C33.4087 29.2055 34.2417 30.0424 34.2417 31.0699C34.2417 32.0974 33.4087 32.9343 32.3859 32.9343H24.3725C23.0124 32.9131 23.0018 35.0741 24.3725 35.053H34.6212C39.6085 35.339 43.4571 31.4407 46.5886 28.0614C48.3811 26.2818 51.112 29.0148 49.33 30.8157Z" fill="url(#paint0_linear)"/>
<path d="M20.9457 11.0275L25.6482 14.4491L23.8452 19.9788C23.5395 20.9004 23.8558 21.8644 24.636 22.4364C25.4163 23.0085 26.4285 23.0085 27.2087 22.4364L31.8903 19.0042L36.5718 22.4364C37.352 23.0085 38.3642 23.0085 39.1445 22.4364C39.9247 21.8644 40.2411 20.9004 39.9353 19.9788L38.1323 14.4491L42.8349 11.0275C43.6151 10.4555 43.9314 9.49152 43.6362 8.56991C43.341 7.6483 42.5185 7.05508 41.559 7.05508H35.7493L33.9674 1.52542C33.6722 0.603814 32.8498 0 31.8903 0C30.9202 0 30.1083 0.59322 29.8131 1.52542L28.0312 7.05508H22.2215C20.1549 6.97034 19.227 9.87288 20.9457 11.0275ZM22.1477 9.2161C31.3736 8.7394 28.7271 11.2924 31.8165 2.17161C31.8165 2.10805 31.9641 2.09746 31.9641 2.17161C34.9902 10.9746 32.3542 8.95127 41.559 9.16313C42.0652 9.22669 36.2027 13.1038 36.2765 13.178C35.9075 13.4428 35.7493 13.9301 35.8969 14.3644L37.9425 20.6356C37.9847 20.6886 37.8687 20.7839 37.8265 20.7203C30.3087 15.4131 33.4613 15.4555 25.9857 20.7203C25.9435 20.7733 25.8275 20.6886 25.8697 20.6356C28.7165 11.3771 29.307 15.0318 22.1477 9.2161Z" fill="url(#paint1_linear)"/>
<defs>
<linearGradient id="paint0_linear" x1="26" y1="24.4185" x2="26" y2="50" gradientUnits="userSpaceOnUse">
<stop offset="0.239583" stop-color="#1B537D"/>
<stop offset="1" stop-color="#0E2A53"/>
</linearGradient>
<linearGradient id="paint1_linear" x1="31.8967" y1="0" x2="31.8967" y2="22.8655" gradientUnits="userSpaceOnUse">
<stop offset="0.239583" stop-color="#1B537D"/>
<stop offset="1" stop-color="#0E2A53"/>
</linearGradient>
</defs>
</svg>
