<svg width="25" height="26" viewBox="0 0 25 26" fill="none" xmlns="http://www.w3.org/2000/svg">
<circle cx="12.5" cy="13" r="12.5" fill="url(#paint0_linear)"/>
<mask id="path-2-inside-1" fill="white">
<path d="M18.2197 7.5H6.78037C5.79868 7.5 5 8.24055 5 9.15079V16.8492C5 17.7594 5.79868 18.5 6.78037 18.5H18.2197C19.2014 18.5 20 17.7594 20 16.8492V9.15079C20 8.24055 19.2014 7.5 18.2197 7.5ZM18.2197 17.0426H6.78037C6.63607 17.0426 6.50951 16.9523 6.50951 16.8492V10.1688L11.6832 14.3861C11.7893 14.4726 11.9241 14.5202 12.063 14.5202L12.9368 14.5202C13.0756 14.5202 13.2106 14.4726 13.3167 14.3861L18.4906 10.1686V16.8493C18.4905 16.9523 18.3639 17.0426 18.2197 17.0426ZM12.5 13.0731L7.46796 8.95738H17.5321L12.5 13.0731Z"/>
</mask>
<path d="M6.50951 10.1688L8.40499 7.84345L3.50951 3.85295V10.1688H6.50951ZM11.6832 14.3861L13.5791 12.0611L13.5787 12.0607L11.6832 14.3861ZM12.063 14.5202L12.0632 11.5202H12.063V14.5202ZM12.9368 14.5202L12.9367 17.5202H12.9368V14.5202ZM13.3167 14.3861L11.4212 12.0607L11.4212 12.0607L13.3167 14.3861ZM18.4906 10.1686H21.4906V3.85284L16.5951 7.84329L18.4906 10.1686ZM18.4906 16.8493L21.4906 16.8516V16.8493H18.4906ZM12.5 13.0731L10.6007 15.3953L12.5 16.9487L14.3993 15.3953L12.5 13.0731ZM7.46796 8.95738V5.95738H-0.938522L5.56864 11.2796L7.46796 8.95738ZM17.5321 8.95738L19.4314 11.2796L25.9386 5.95738H17.5321V8.95738ZM18.2197 4.5H6.78037V10.5H18.2197V4.5ZM6.78037 4.5C4.35933 4.5 2 6.37425 2 9.15079H8C8 10.1069 7.23803 10.5 6.78037 10.5V4.5ZM2 9.15079V16.8492H8V9.15079H2ZM2 16.8492C2 19.6257 4.35933 21.5 6.78037 21.5V15.5C7.23803 15.5 8 15.8931 8 16.8492H2ZM6.78037 21.5H18.2197V15.5H6.78037V21.5ZM18.2197 21.5C20.6408 21.5 23 19.6257 23 16.8492H17C17 15.8932 17.7619 15.5 18.2197 15.5V21.5ZM23 16.8492V9.15079H17V16.8492H23ZM23 9.15079C23 6.37434 20.6408 4.5 18.2197 4.5V10.5C17.7619 10.5 17 10.1068 17 9.15079H23ZM18.2197 14.0426H6.78037V20.0426H18.2197V14.0426ZM6.78037 14.0426C7.30682 14.0426 7.85393 14.2002 8.33413 14.5431C8.77484 14.8577 9.50951 15.6156 9.50951 16.8492H3.50951C3.50951 18.1859 4.30746 19.0404 4.84753 19.4261C5.42708 19.8399 6.10962 20.0426 6.78037 20.0426V14.0426ZM9.50951 16.8492V10.1688H3.50951V16.8492H9.50951ZM4.61404 12.4941L9.78773 16.7114L13.5787 12.0607L8.40499 7.84345L4.61404 12.4941ZM9.78731 16.7111C10.4376 17.2413 11.2448 17.5202 12.063 17.5202V11.5202C12.6035 11.5202 13.141 11.7038 13.5791 12.0611L9.78731 16.7111ZM12.0629 17.5202L12.9367 17.5202L12.9369 11.5202L12.0632 11.5202L12.0629 17.5202ZM12.9368 17.5202C13.7555 17.5202 14.5624 17.241 15.2121 16.7114L11.4212 12.0607C11.8588 11.7041 12.3958 11.5202 12.9368 11.5202V17.5202ZM15.2121 16.7114L20.3861 12.494L16.5951 7.84329L11.4212 12.0607L15.2121 16.7114ZM15.4906 10.1686V16.8493H21.4906V10.1686H15.4906ZM15.4906 16.847C15.4915 15.6134 16.2267 14.8565 16.6665 14.5426C17.1463 14.2003 17.693 14.0426 18.2197 14.0426V20.0426C18.8906 20.0426 19.5728 19.8398 20.1519 19.4265C20.6911 19.0417 21.4896 18.1881 21.4906 16.8516L15.4906 16.847ZM14.3993 10.7509L9.36728 6.63519L5.56864 11.2796L10.6007 15.3953L14.3993 10.7509ZM7.46796 11.9574H17.5321V5.95738H7.46796V11.9574ZM15.6328 6.63519L10.6007 10.7509L14.3993 15.3953L19.4314 11.2796L15.6328 6.63519Z" fill="white" mask="url(#path-2-inside-1)"/>
<defs>
<linearGradient id="paint0_linear" x1="12.5" y1="0.5" x2="12.5" y2="25.5" gradientUnits="userSpaceOnUse">
<stop offset="0.239583" stop-color="#1B537D"/>
<stop offset="1" stop-color="#0E2A53"/>
</linearGradient>
</defs>
</svg>
