<svg width="25" height="25" viewBox="0 0 25 25" fill="none" xmlns="http://www.w3.org/2000/svg">
<circle cx="12.5" cy="12.5" r="12.5" fill="url(#paint0_linear)"/>
<path d="M15.1733 13.8244L13.0818 12.2559V9.06069C13.0818 8.73942 12.8221 8.47974 12.5009 8.47974C12.1796 8.47974 11.9199 8.73942 11.9199 9.06069V12.5464C11.9199 12.7294 12.0059 12.9019 12.1523 13.0111L14.4761 14.754C14.5806 14.8324 14.7027 14.8702 14.8241 14.8702C15.0012 14.8702 15.1755 14.7906 15.2894 14.6372C15.4823 14.381 15.43 14.0167 15.1733 13.8244Z" fill="#000037"/>
<path d="M12.5 5C8.36425 5 5 8.36425 5 12.5C5 16.6358 8.36425 20 12.5 20C16.6358 20 20 16.6358 20 12.5C20 8.36425 16.6358 5 12.5 5ZM12.5 18.8381C9.00562 18.8381 6.16188 15.9944 6.16188 12.5C6.16188 9.00562 9.00562 6.16188 12.5 6.16188C15.995 6.16188 18.8381 9.00562 18.8381 12.5C18.8381 15.9944 15.9944 18.8381 12.5 18.8381Z" fill="#000037"/>
<defs>
<linearGradient id="paint0_linear" x1="12.5" y1="0" x2="12.5" y2="25" gradientUnits="userSpaceOnUse">
<stop offset="0.151042" stop-color="#A3E419"/>
<stop offset="1" stop-color="#83BB0D"/>
</linearGradient>
</defs>
</svg>
