<svg width="381" height="382" viewBox="0 0 381 382" fill="none" xmlns="http://www.w3.org/2000/svg">
<g opacity="0.5">
<path d="M324.602 259.938L311.546 255.317L314.048 248.247L320.883 250.666L329.424 226.533L322.59 224.114L325.092 217.044L338.132 221.712L336.731 225.671L349.08 230.042C352.254 231.166 354.734 232.751 356.52 234.797C358.337 236.855 359.427 239.221 359.789 241.895C360.14 244.6 359.781 247.461 358.713 250.478C357.646 253.494 356.13 255.928 354.167 257.779C352.192 259.661 349.851 260.831 347.144 261.287C344.468 261.754 341.543 261.426 338.369 260.303L326.02 255.932L324.602 259.938ZM328.739 248.249L341.749 252.853C344.325 253.765 346.507 253.795 348.294 252.942C350.07 252.121 351.375 250.532 352.209 248.175C353.032 245.85 353.023 243.778 352.181 241.96C351.328 240.173 349.614 238.824 347.037 237.912L334.028 233.307L328.739 248.249Z" fill="white"/>
<path d="M302.737 279.71L315.994 288.845L309.445 274.556L311.317 271.839L326.929 273.063L313.63 263.9L317.63 258.094L339.781 273.356L335.157 280.068L317.473 278.327L325.086 294.684L320.945 300.695L298.737 285.516L302.737 279.71Z" fill="white"/>
<path d="M294.229 325.841L276.2 305.877L281.729 300.884L283.84 303.221C283.8 301.685 284.124 300.203 284.81 298.775C285.472 297.369 286.409 296.118 287.621 295.024C290.243 292.656 293.015 291.522 295.936 291.624C298.833 291.748 301.622 293.294 304.302 296.263L314.49 307.543L308.701 312.771L299.284 302.344C296.38 299.128 293.58 298.737 290.883 301.173C289.473 302.446 288.75 303.908 288.713 305.558C288.698 307.233 289.495 308.961 291.104 310.742L300.018 320.613L294.229 325.841Z" fill="white"/>
<path d="M255.859 348.341C252.848 349.845 250.015 350.143 247.362 349.233C244.694 348.368 242.473 346.161 240.7 342.612L233.817 328.837L240.794 325.35L247.141 338.052C248.095 339.961 249.205 341.176 250.472 341.698C251.724 342.265 253.081 342.183 254.542 341.453C256.182 340.634 257.211 339.449 257.628 337.899C258.061 336.378 257.756 334.574 256.713 332.487L250.679 320.411L257.656 316.924L264.003 329.627C265.896 333.414 268.362 334.547 271.404 333.027C273.014 332.223 274.028 331.045 274.446 329.495C274.878 327.975 274.573 326.171 273.53 324.084L267.496 312.007L274.473 308.521L286.497 332.584L279.833 335.914L278.447 333.141C278.06 334.602 277.359 335.921 276.345 337.098C275.301 338.29 274.004 339.274 272.453 340.049C270.753 340.898 269.046 341.323 267.332 341.322C265.633 341.351 264.045 340.934 262.57 340.069C262.211 341.813 261.458 343.4 260.31 344.831C259.132 346.277 257.648 347.447 255.859 348.341Z" fill="white"/>
<path d="M222.056 357.924C219.24 358.461 216.678 358.373 214.37 357.659C212.062 356.945 210.138 355.667 208.599 353.822C207.059 351.978 206.027 349.681 205.503 346.93C204.991 344.245 205.078 341.769 205.765 339.5C206.458 337.263 207.678 335.385 209.424 333.864C211.176 332.376 213.329 331.389 215.883 330.902C219.256 330.258 222.095 330.82 224.4 332.586L222.048 320.258L229.71 318.797L234.029 341.438C234.547 344.156 234.397 346.662 233.579 348.956C232.761 351.25 231.365 353.179 229.39 354.743C227.414 356.308 224.97 357.368 222.056 357.924ZM218.409 336.935C216.411 337.316 214.919 338.297 213.93 339.876C212.942 341.456 212.654 343.327 213.066 345.488C213.485 347.681 214.444 349.331 215.944 350.436C217.451 351.574 219.203 351.952 221.2 351.571C223.198 351.191 224.69 350.21 225.679 348.63C226.634 347.057 226.902 345.173 226.484 342.979C226.066 340.786 225.123 339.133 223.655 338.022C222.187 336.91 220.439 336.548 218.409 336.935Z" fill="white"/>
<path d="M187.365 333.055C190.198 333.121 192.733 333.763 194.972 334.982C197.177 336.233 198.889 337.923 200.106 340.052C201.324 342.181 201.902 344.578 201.84 347.244C201.779 349.91 201.09 352.278 199.775 354.348C198.46 356.418 196.673 358.01 194.413 359.125C192.119 360.272 189.556 360.813 186.724 360.747C183.891 360.682 181.372 360.023 179.167 358.772C176.962 357.554 175.25 355.88 174.032 353.752C172.814 351.623 172.237 349.226 172.298 346.56C172.36 343.894 173.048 341.526 174.363 339.456C175.678 337.385 177.466 335.776 179.727 334.628C181.986 333.514 184.532 332.989 187.365 333.055ZM187.217 339.453C185.217 339.407 183.569 340.036 182.272 341.339C180.941 342.675 180.249 344.477 180.196 346.743C180.144 349.009 180.752 350.823 182.021 352.186C183.255 353.582 184.872 354.303 186.872 354.349C188.871 354.396 190.537 353.751 191.868 352.414C193.198 351.112 193.89 349.327 193.942 347.061C193.995 344.795 193.387 342.964 192.119 341.567C190.85 340.204 189.216 339.5 187.217 339.453Z" fill="white"/>
<path d="M147.301 341.661C144.455 339.91 143.391 337.475 144.11 334.357C144.657 331.986 145.973 330.357 148.059 329.47C150.146 328.582 152.959 328.547 156.499 329.363L170.482 332.588L164.438 358.8L151.04 355.71C147.759 354.954 145.332 353.761 143.757 352.133C142.175 350.536 141.632 348.666 142.126 346.523C142.426 345.223 143.033 344.149 143.947 343.299C144.821 342.475 145.939 341.929 147.301 341.661ZM159.954 346.426L154.205 345.1C151.541 344.486 149.992 345.121 149.558 347.005C149.131 348.856 150.249 350.089 152.913 350.703L158.662 352.029L159.954 346.426ZM155.942 334.674C153.148 334.03 151.531 334.666 151.089 336.582C150.857 337.589 151.013 338.395 151.558 338.999C152.095 339.636 153.062 340.116 154.459 340.438L160.987 341.943L162.324 336.146L155.942 334.674Z" fill="white"/>
<path d="M131.186 320.047C133.805 321.213 135.928 322.797 137.555 324.798C139.137 326.816 140.096 329.048 140.429 331.496C140.732 333.929 140.342 336.364 139.257 338.8C138.173 341.237 136.625 343.156 134.614 344.56C132.572 345.95 130.279 346.717 127.734 346.861C125.144 347.022 122.54 346.519 119.921 345.354C117.333 344.201 115.323 342.65 113.893 340.7C112.418 338.766 111.687 336.598 111.698 334.195L118.547 333.686C118.823 336.509 120.164 338.456 122.57 339.527C124.427 340.354 126.236 340.429 127.997 339.753C129.757 339.078 131.105 337.689 132.04 335.588C132.975 333.487 133.105 331.556 132.429 329.795C131.753 328.035 130.487 326.742 128.629 325.915C126.193 324.83 123.849 325.137 121.597 326.835L117.412 321.359C119.163 319.804 121.257 318.911 123.694 318.683C126.1 318.44 128.598 318.895 131.186 320.047Z" fill="white"/>
<path d="M103.002 315.953L106.303 318.3L112.213 309.986L118.57 314.505L102.986 336.431L96.6282 331.912L102.682 323.394L99.2591 320.961L87.2548 325.249L80.4897 320.44L95.625 315.372L95.5444 298.138L103.043 303.468L103.002 315.953Z" fill="white"/>
<path d="M57.0972 295.908L76.8632 277.662L81.9165 283.136L79.6018 285.273C81.1374 285.216 82.623 285.523 84.0587 286.194C85.4718 286.84 86.7323 287.763 87.8402 288.964C90.2368 291.56 91.4002 294.319 91.3305 297.241C91.2382 300.139 89.7225 302.945 86.7833 305.658L75.6144 315.968L70.3238 310.236L80.6477 300.706C83.8318 297.767 84.1916 294.963 81.7272 292.293C80.4384 290.897 78.9688 290.189 77.3183 290.17C75.6434 290.174 73.9241 290.99 72.1606 292.618L62.3878 301.639L57.0972 295.908Z" fill="white"/>
<path d="M37.9839 265.426L61.1445 251.744L64.9337 258.159L62.2216 259.761C63.7347 260.029 65.1226 260.641 66.3852 261.599C67.6308 262.528 68.669 263.695 69.4997 265.102C71.2968 268.144 71.8541 271.086 71.1716 273.928C70.472 276.742 68.4003 279.166 64.9563 281.2L51.8693 288.931L47.902 282.216L59.9989 275.07C63.7299 272.866 64.6714 270.199 62.8234 267.071C61.857 265.435 60.569 264.435 58.9594 264.069C57.321 263.721 55.4687 264.157 53.4023 265.377L41.9511 272.142L37.9839 265.426ZM42.5314 278.826C45.5154 283.877 44.7916 287.731 40.3601 290.388L37.7661 285.997C38.7536 285.375 39.3818 284.636 39.6506 283.78C39.8738 282.913 39.6802 281.962 39.0699 280.929C38.4595 279.896 37.7206 279.268 36.8532 279.045C35.9401 278.81 34.9814 278.989 33.9769 279.582L31.332 275.105C35.7974 272.506 39.5306 273.746 42.5314 278.826Z" fill="white"/>
<path d="M52.6912 224.657C53.3989 227.435 53.4713 230.082 52.9086 232.599C52.3053 235.092 51.1466 237.227 49.4326 239.005C47.7103 240.751 45.5571 241.953 42.9729 242.612C40.3888 243.27 37.9229 243.245 35.5752 242.536C33.2193 241.794 31.1962 240.47 29.5061 238.561C27.7754 236.628 26.5562 234.273 25.8485 231.495C25.1491 228.75 25.1215 226.211 25.766 223.88C26.3699 221.525 27.6184 219.607 29.5117 218.127L34.1547 223.188C32.11 225.153 31.4127 227.412 32.0628 229.964C32.5648 231.934 33.6264 233.401 35.2476 234.364C36.8688 235.327 38.7938 235.524 41.0226 234.956C43.2515 234.389 44.8473 233.294 45.8102 231.673C46.7731 230.052 47.0036 228.256 46.5016 226.285C45.8433 223.701 44.1502 222.051 41.4225 221.336L43.1268 214.659C45.4328 215.069 47.4305 216.159 49.12 217.93C50.8013 219.669 51.9917 221.911 52.6912 224.657Z" fill="white"/>
<path d="M21.1404 177.346C21.1794 173.98 22.2102 171.325 24.2328 169.382C26.2225 167.405 29.2006 166.439 33.167 166.485L48.5659 166.663L48.4756 174.463L34.2766 174.298C32.1434 174.274 30.5549 174.705 29.5113 175.593C28.4346 176.447 27.8869 177.691 27.8679 179.324C27.8467 181.158 28.4299 182.615 29.6174 183.695C30.7717 184.775 32.5154 185.329 34.8486 185.356L48.3477 185.512L48.2573 193.312L34.0583 193.147C29.8252 193.098 27.689 194.773 27.6497 198.173C27.6288 199.973 28.2122 201.413 29.3997 202.494C30.554 203.574 32.2977 204.127 34.6309 204.154L48.13 204.311L48.0396 212.11L21.1414 211.799L21.2277 204.349L24.3275 204.385C23.2058 203.372 22.3533 202.145 21.7699 200.705C21.187 199.232 20.9055 197.628 20.9256 195.895C20.9476 193.995 21.3508 192.283 22.1351 190.759C22.8862 189.234 23.9837 188.013 25.4278 187.097C24.0406 185.981 22.9734 184.585 22.226 182.909C21.4791 181.201 21.1172 179.346 21.1404 177.346Z" fill="white"/>
<path d="M48.317 138.986C48.6985 137.639 48.8422 136.398 48.748 135.262C48.6308 134.086 48.2665 132.926 47.6549 131.783L53.1155 129.016C55.2154 132.244 55.6022 136.199 54.2759 140.881C53.4493 143.8 52.1567 146.223 50.3984 148.15C48.6079 150.068 46.5298 151.35 44.1641 151.997C41.7984 152.643 39.3327 152.603 36.7669 151.876C34.2333 151.158 32.1242 149.92 30.4398 148.161C28.7324 146.361 27.6127 144.26 27.0807 141.857C26.5256 139.413 26.6206 136.877 27.3654 134.247C28.0649 131.777 29.23 129.682 30.8606 127.961C32.4592 126.232 34.4208 125.055 36.7453 124.431C39.0469 123.767 41.5447 123.816 44.2387 124.579L42.5199 144.775C43.9571 144.593 45.16 144.016 46.1285 143.043C47.106 142.038 47.8355 140.686 48.317 138.986ZM33.0421 135.855C32.5062 137.747 32.6795 139.459 33.5621 140.991C34.4447 142.523 35.9514 143.625 38.082 144.298L39.1985 130.999C37.7516 130.97 36.4728 131.387 35.3621 132.25C34.2515 133.114 33.4782 134.315 33.0421 135.855Z" fill="white"/>
<path d="M54.9175 121.237L53.0404 124.826L62.0787 129.553L58.4636 136.465L34.6273 123.997L38.2424 117.086L47.5023 121.929L49.4489 118.207L43.5725 106.895L47.4194 99.5408L54.4934 113.849L71.5569 111.432L67.2929 119.585L54.9175 121.237Z" fill="white"/>
<path d="M80.6396 101.218C78.8422 103.408 76.7735 105.009 74.4337 106.021C72.0893 106.986 69.7036 107.292 67.2767 106.939C64.8499 106.586 62.6057 105.563 60.5444 103.872C58.4831 102.18 57.0425 100.178 56.2228 97.8671C55.403 95.5557 55.2507 93.1667 55.7656 90.7002C56.276 88.1868 57.4299 85.835 59.2274 83.6448C61.0249 81.4546 63.0958 79.877 65.4403 78.9119C67.7589 77.9257 70.1317 77.6091 72.5586 77.9622C74.9855 78.3153 77.2296 79.3377 79.2909 81.0294C81.3523 82.7212 82.7928 84.7227 83.6125 87.0341C84.4323 89.3455 84.5975 91.745 84.1083 94.2327C83.5933 96.6992 82.4371 99.0275 80.6396 101.218ZM75.6924 97.1575C76.9612 95.6115 77.4821 93.926 77.255 92.101C77.0232 90.2291 76.0313 88.5741 74.2792 87.1362C72.527 85.6982 70.7232 85.0587 68.8679 85.2178C67.0078 85.3299 65.4434 86.159 64.1746 87.705C62.9058 89.251 62.3873 90.96 62.619 92.8319C62.825 94.6826 63.804 96.327 65.5562 97.765C67.3083 99.203 69.125 99.853 71.0061 99.7151C72.8615 99.5561 74.4236 98.7035 75.6924 97.1575Z" fill="white"/>
<path d="M94.3061 51.2157L111.143 72.1947L105.06 77.0769L92.2288 61.0891L85.5997 66.4094L88.3779 70.2704C90.4854 73.1094 92.0615 75.6058 93.106 77.7593C94.1506 79.9129 94.6222 81.8851 94.5209 83.6761C94.4196 85.4671 93.537 87.0302 91.8733 88.3655C90.9894 89.0748 89.8113 89.7638 88.3392 90.4325L84.6452 85.1908C85.1029 84.909 85.4227 84.6951 85.6047 84.549C86.5146 83.8188 86.9297 82.9514 86.85 81.9468C86.7755 80.8953 86.4094 79.8001 85.7517 78.661C85.0731 77.496 84.0947 76.0373 82.8165 74.2849L76.3686 65.6118L94.3061 51.2157Z" fill="white"/>
<path d="M127.037 64.3535C123.235 66.2889 119.922 66.909 117.1 66.2136C114.307 65.5032 112.071 63.4992 110.393 60.2018L102.954 45.5861L109.861 42.0706L113.989 50.1806C114.459 49.2678 115.198 48.3681 116.205 47.4813C117.242 46.5794 118.489 45.7581 119.944 45.0172C122.945 43.49 125.67 43.0382 128.119 43.6616C130.568 44.2851 132.519 46.0228 133.97 48.8746C135.528 51.9344 135.667 54.818 134.39 57.5254C133.142 60.2177 130.691 62.4937 127.037 64.3535ZM124.542 59.4519C126.028 58.6959 126.967 57.7128 127.361 56.5024C127.785 55.277 127.649 53.981 126.953 52.6145C126.288 51.3074 125.365 50.4866 124.185 50.1522C123.035 49.8027 121.732 49.9984 120.276 50.7393C119.207 51.2836 118.354 51.9605 117.719 52.7701C117.084 53.5797 116.725 54.4543 116.642 55.3941L117.64 57.3547C118.351 58.7509 119.311 59.646 120.522 60.0398C121.747 60.3888 123.087 60.1928 124.542 59.4519Z" fill="white"/>
<path d="M132.79 31.1625L140.27 29.1354L143.017 39.2699L154.309 36.2096L151.563 26.0752L159.092 24.035L166.128 49.9985L158.599 52.0387L155.97 42.3386L144.678 45.3988L147.306 55.0989L139.826 57.126L132.79 31.1625Z" fill="white"/>
<path d="M181.4 49.3989C177.134 49.4813 173.916 48.5932 171.747 46.7347C169.577 44.8763 168.457 42.0974 168.385 38.3981L168.069 22.0011L175.817 21.8516L175.993 30.9499C176.749 30.4018 177.74 29.9326 178.966 29.5422C180.226 29.1512 181.655 28.9402 183.255 28.9093C186.554 28.8456 189.153 29.629 191.052 31.2593C192.95 32.8896 193.93 35.3045 193.992 38.5039C194.058 41.9033 192.959 44.5583 190.695 46.469C188.431 48.3464 185.333 49.323 181.4 49.3989ZM196.514 21.4521L204.312 21.3015L204.831 48.1965L197.033 48.3471L196.514 21.4521ZM181.294 43.9C182.894 43.8691 184.101 43.379 184.916 42.4298C185.731 41.4806 186.124 40.2561 186.096 38.7563C186.069 37.3566 185.614 36.2485 184.731 35.4321C183.881 34.5816 182.656 34.1719 181.057 34.2027C179.924 34.2246 178.928 34.4772 178.071 34.9605C177.246 35.4098 176.591 36.0226 176.106 36.7988L176.148 38.9984C176.179 40.5647 176.636 41.7895 177.52 42.6726C178.403 43.5224 179.661 43.9315 181.294 43.9Z" fill="white"/>
<path d="M242.557 29.1035L236.413 55.2924L229.16 53.5908L229.88 50.5241C228.64 51.4315 227.237 52.0098 225.672 52.259C224.14 52.5157 222.578 52.4576 220.988 52.0845C217.548 51.2775 215.038 49.6444 213.458 47.1851C211.911 44.7335 211.594 41.5606 212.507 37.6663L215.979 22.8681L223.573 24.6496L220.364 38.3282C219.374 42.547 220.648 45.0714 224.185 45.9012C226.035 46.3352 227.648 46.0975 229.026 45.188C230.411 44.2462 231.378 42.6069 231.926 40.2704L234.963 27.3219L242.557 29.1035ZM229.736 23.1168C224.024 21.7768 221.742 18.588 222.89 13.5503L227.855 14.7151C227.621 15.8585 227.72 16.8233 228.152 17.6094C228.624 18.3706 229.444 18.8883 230.612 19.1624C231.78 19.4365 232.745 19.3375 233.506 18.8656C234.308 18.3688 234.842 17.5525 235.108 16.4167L240.171 17.6044C238.958 22.6269 235.48 24.4643 229.736 23.1168Z" fill="white"/>
<path d="M272.316 57.2271C273.471 58.442 274.176 59.7116 274.431 61.036C274.715 62.3766 274.508 63.6731 273.811 64.9256C272.984 66.4111 271.745 67.4382 270.094 68.0068C268.458 68.5464 266.582 68.6277 264.465 68.2507C262.348 67.8736 260.168 67.0611 257.925 65.8131C256.09 64.792 254.39 63.5977 252.823 62.2304C251.257 60.863 249.928 59.3793 248.835 57.7792L253.32 54.0379C255.131 56.6098 257.537 58.7305 260.537 60.4C262.139 61.2914 263.521 61.7553 264.683 61.7918C265.891 61.8152 266.738 61.3901 267.224 60.5163C267.645 59.7589 267.641 59.0127 267.211 58.2774C266.797 57.5131 265.978 56.7905 264.755 56.1098L259.949 53.4354L262.307 49.1974L266.502 51.5314C267.696 52.1959 268.719 52.5171 269.57 52.495C270.422 52.473 271.05 52.0978 271.455 51.3697C271.877 50.6123 271.793 49.8029 271.204 48.9413C270.645 48.0959 269.622 47.2599 268.137 46.4332C265.865 45.169 263.089 44.3302 259.81 43.9167L260.775 38.2742C264.832 38.6623 268.404 39.7154 271.491 41.4334C273.618 42.6166 275.365 43.9323 276.734 45.3804C278.131 46.8448 279.027 48.3542 279.421 49.9085C279.831 51.4337 279.663 52.8662 278.918 54.2061C278.302 55.3129 277.408 56.1314 276.235 56.6616C275.079 57.1626 273.773 57.3511 272.316 57.2271Z" fill="white"/>
<path d="M311.133 71.0342L293.617 91.4505L287.963 86.5996L289.982 84.2468C286.995 84.7589 284.11 83.8212 281.327 81.4337C279.405 79.7842 278.028 77.8565 277.197 75.6507C276.392 73.4666 276.23 71.1978 276.712 68.8443C277.194 66.4908 278.336 64.2641 280.137 62.1643C281.939 60.0645 283.966 58.5975 286.219 57.7633C288.472 56.9291 290.739 56.7439 293.02 57.2077C295.326 57.6932 297.441 58.7607 299.364 60.4103C301.969 62.6458 303.301 65.2152 303.357 68.1185L305.213 65.9554L311.133 71.0342ZM286.519 77.4553C288.012 78.7359 289.686 79.2934 291.54 79.1279C293.417 78.9371 295.093 77.9816 296.569 76.2612C298.045 74.5409 298.724 72.7515 298.605 70.8931C298.508 69.0094 297.714 67.4272 296.221 66.1467C294.703 64.8444 293.006 64.2887 291.129 64.4795C289.274 64.645 287.609 65.5879 286.133 67.3082C284.657 69.0286 283.968 70.8306 284.065 72.7143C284.183 74.5727 285.001 76.1531 286.519 77.4553Z" fill="white"/>
<path d="M320.025 102.239C321.106 105.401 320.378 107.955 317.839 109.903C315.908 111.384 313.856 111.804 311.682 111.161C309.508 110.518 307.316 108.755 305.104 105.872L296.369 94.4872L317.711 78.1128L326.081 89.0219C328.13 91.693 329.244 94.1576 329.422 96.4158C329.626 98.6537 328.856 100.442 327.111 101.781C326.053 102.593 324.901 103.036 323.655 103.109C322.456 103.189 321.246 102.899 320.025 102.239ZM313.296 90.5118L316.888 95.1928C318.552 97.3614 320.151 97.8573 321.684 96.6804C323.192 95.5239 323.114 93.8613 321.45 91.6927L317.858 87.0117L313.296 90.5118ZM308.913 102.13C310.658 104.405 312.311 104.943 313.871 103.746C314.691 103.117 315.083 102.396 315.048 101.583C315.039 100.75 314.598 99.7648 313.725 98.6276L309.647 93.3119L304.926 96.9337L308.913 102.13Z" fill="white"/>
<path d="M318.544 128.683C317.305 126.134 316.716 123.586 316.774 121.037C316.878 118.504 317.597 116.209 318.932 114.152C320.268 112.095 322.135 110.483 324.533 109.318C326.932 108.153 329.352 107.681 331.795 107.902C334.237 108.124 336.471 108.984 338.496 110.483C340.566 111.998 342.22 114.029 343.458 116.577C344.697 119.126 345.264 121.667 345.161 124.2C345.087 126.719 344.383 129.006 343.048 131.063C341.712 133.12 339.845 134.732 337.447 135.897C335.048 137.062 332.628 137.534 330.185 137.313C327.743 137.091 325.494 136.238 323.439 134.754C321.413 133.255 319.782 131.231 318.544 128.683ZM324.3 125.886C325.174 127.685 326.487 128.862 328.24 129.419C330.038 129.991 331.956 129.782 333.994 128.791C336.033 127.801 337.368 126.429 337.999 124.677C338.675 122.941 338.576 121.173 337.702 119.374C336.828 117.575 335.492 116.39 333.695 115.818C331.927 115.231 330.024 115.433 327.986 116.424C325.947 117.414 324.597 118.793 323.936 120.559C323.305 122.311 323.426 124.087 324.3 125.886Z" fill="white"/>
<path d="M358.631 164.141L336.863 169.423C332.069 170.586 328.203 170.204 325.265 168.275C322.328 166.347 320.277 162.986 319.114 158.191C318.501 155.665 318.227 153.193 318.292 150.776C318.358 148.359 318.793 146.264 319.597 144.491L325.77 146.183C325.131 147.505 324.756 149.071 324.646 150.881C324.504 152.699 324.638 154.45 325.046 156.135C325.683 158.758 326.75 160.54 328.247 161.481C329.72 162.461 331.655 162.66 334.052 162.079L335.17 161.807C332.52 160.358 330.766 157.868 329.91 154.337C329.328 151.94 329.312 149.612 329.861 147.352C330.451 145.116 331.56 143.184 333.188 141.554C334.816 139.924 336.877 138.806 339.372 138.201C341.866 137.596 344.21 137.644 346.404 138.347C348.598 139.049 350.454 140.263 351.97 141.987C353.526 143.736 354.595 145.809 355.177 148.206C356.096 151.996 355.549 155.182 353.534 157.763L356.886 156.95L358.631 164.141ZM336.495 154.334C336.982 156.343 337.962 157.837 339.435 158.817C340.948 159.822 342.66 160.093 344.571 159.629C346.482 159.165 347.864 158.144 348.715 156.565C349.607 155.011 349.81 153.23 349.323 151.222C348.835 149.213 347.835 147.707 346.322 146.702C344.841 145.689 343.146 145.414 341.234 145.878C339.323 146.342 337.926 147.367 337.041 148.954C336.19 150.532 336.007 152.326 336.495 154.334Z" fill="white"/>
</g>
</svg>
