<svg width="125" height="77" viewBox="0 0 125 77" fill="none" xmlns="http://www.w3.org/2000/svg">
<path d="M62.5831 6.37123C75.4615 6.37123 86.0147 16.7472 86.5513 29.7324C88.5785 29.1863 90.6653 28.8829 92.7521 28.8222C91.7385 12.7425 78.6215 0 62.5234 0C46.485 0 33.3084 12.7425 32.2948 28.8222C34.4412 28.9436 36.528 29.3077 38.4955 29.8538C39.1514 16.8079 49.7046 6.37123 62.5831 6.37123Z" fill="#89DDFA"/>
<path d="M62.5833 15.3516C71.2882 15.3516 78.3833 22.5723 78.3833 31.4314V33.2517C80.2912 32.0381 82.378 31.0673 84.584 30.3391C83.9878 18.4462 74.3885 9.04102 62.5833 9.04102C50.7184 9.04102 41.1191 18.5675 40.5825 30.4605C42.7886 31.2493 44.8753 32.2202 46.7833 33.4944V31.492C46.8429 22.5723 53.8784 15.3516 62.5833 15.3516Z" fill="#1FCEF7"/>
<path d="M48.2734 33.009V34.0405C50.5391 35.6788 52.5663 37.6205 54.2953 39.8049V33.009C54.2953 28.1547 57.9919 24.2106 62.5829 24.2106C67.1738 24.2106 70.8704 28.1547 70.8704 33.009V39.3802C72.5994 37.2565 74.6266 35.3754 76.8923 33.7978V33.009C76.8923 24.6353 70.453 17.8394 62.5829 17.8394C54.7127 17.8394 48.2734 24.6353 48.2734 33.009Z" fill="#0063A5"/>
<path d="M92.8713 31.2494C93.2887 31.2494 93.706 31.1887 94.1234 31.1887C96.091 31.1887 97.9989 31.3709 99.8472 31.7355C98.4759 31.4317 97.0449 31.2494 95.614 31.1887C95.137 31.1887 94.6004 31.1279 94.1234 31.1279C93.706 31.1887 93.2887 31.1887 92.8713 31.2494Z" fill="#89DDFA"/>
<path d="M53.1628 75.1201V74.4526V71.6007V68.2634V66.9892V62.681C53.1628 57.0379 51.076 51.8802 47.6775 47.9361C47.3794 47.5721 47.0813 47.2687 46.7832 46.9653C44.9945 45.0843 42.8481 43.5673 40.5228 42.4144C39.867 42.111 39.2111 41.8076 38.5553 41.5649C36.5877 40.8368 34.5009 40.412 32.2949 40.2907C31.8775 40.2907 31.4602 40.23 31.0428 40.23C19.7741 40.23 10.3247 48.9627 8.95337 60.0669H15.9172C17.2289 52.5427 23.2323 46.6012 30.9832 46.6012C31.4005 46.6012 31.8179 46.6619 32.2353 46.6619C34.5605 46.8439 36.707 47.5114 38.6149 48.6036C39.2707 48.9677 39.867 49.3924 40.4036 49.8172C44.3983 52.7904 46.9024 57.402 46.9024 62.681V64.3193V69.9624V72.2075V77.0001H53.1628V75.1201Z" fill="#1FCEF7"/>
<path d="M44.5175 71.6004L44.5772 68.9306V64.2584C44.5772 63.955 44.5772 63.6621 44.5772 63.3994C44.3387 59.0305 42.4308 55.0959 39.6285 52.4867C39.2708 52.1227 38.8534 51.8193 38.436 51.5159C36.6474 50.181 34.5606 49.3315 32.2949 49.0888C31.8776 49.0281 31.4602 49.0281 31.0428 49.0281C24.9613 49.0281 19.5763 53.8168 17.9069 60.0666H24.8707C25.8655 57.5765 28.1213 55.46 31.0428 55.46C31.9968 55.46 32.8315 55.642 33.6662 56.0061C36.707 57.2197 38.8534 60.4963 38.8534 64.2584V66.018V76.9999H44.5175V71.6004Z" fill="#0063A5"/>
<path d="M61.3307 62.0134C61.3307 44.9627 47.856 31.1887 31.1021 31.1887C15.0636 31.1887 1.07308 44.0476 -0.00012207 60.0667H6.9637C8.03691 47.567 18.5217 37.56 31.0425 37.56C44.2787 37.56 55.0704 48.5428 55.0704 62.0134V77H61.3307V62.0134Z" fill="#89DDFA"/>
<path d="M71.837 75.1201V74.4526V71.6007V68.2634V66.9892V62.681C71.837 57.0379 73.9238 51.8802 77.3222 47.9361C77.6204 47.5721 77.9185 47.2687 78.2166 46.9653C80.0053 45.0843 82.1517 43.5673 84.477 42.4144C85.1328 42.111 85.7887 41.8076 86.4445 41.5649C88.412 40.8368 90.4988 40.412 92.7049 40.2907C93.1222 40.2907 93.5396 40.23 93.9569 40.23C105.226 40.23 114.675 48.9627 116.046 60.0669H109.083C107.771 52.5427 101.768 46.6012 94.0166 46.6012C93.5992 46.6012 93.1819 46.6619 92.7645 46.6619C90.4392 46.8439 88.2928 47.5114 86.3849 48.6036C85.729 48.9677 85.1328 49.3924 84.5962 49.8172C80.6015 52.7904 78.0973 57.402 78.0973 62.681V64.3193V69.9624V72.2075V77.0001H71.837V75.1201Z" fill="#1FCEF7"/>
<path d="M80.4822 71.6004L80.4226 68.9306V64.2584C80.4226 63.955 80.4226 63.6621 80.4226 63.3994C80.6611 59.0305 82.569 55.0959 85.3713 52.4867C85.729 52.1227 86.1464 51.8193 86.5637 51.5159C88.3524 50.181 90.4392 49.3315 92.7048 49.0888C93.1222 49.0281 93.5396 49.0281 93.9569 49.0281C100.038 49.0281 105.423 53.8168 107.093 60.0666H100.129C99.1342 57.5765 96.8784 55.46 93.9569 55.46C93.003 55.46 92.1682 55.642 91.3335 56.0061C88.2928 57.2197 86.1464 60.4963 86.1464 64.2584V66.018V76.9999H80.4822V71.6004Z" fill="#0063A5"/>
<path d="M63.669 62.0134C63.669 44.9627 77.1437 31.1887 93.8977 31.1887C109.936 31.1887 123.927 44.0476 125 60.0667H118.036C116.963 47.567 106.478 37.56 93.9573 37.56C80.7211 37.56 69.9294 48.5428 69.9294 62.0134V77H63.669V62.0134Z" fill="#89DDFA"/>
</svg>
