<svg width="217" height="133" viewBox="0 0 217 133" fill="none" xmlns="http://www.w3.org/2000/svg">
<path d="M108.583 6.37123C121.462 6.37123 132.015 16.7472 132.551 29.7324C134.579 29.1863 136.665 28.8829 138.752 28.8222C137.739 12.7425 124.622 0 108.524 0C92.4851 0 79.3085 12.7425 78.2949 28.8222C80.4413 28.9436 82.5281 29.3077 84.4957 29.8538C85.1515 16.8079 95.7047 6.37123 108.583 6.37123Z" fill="#89DDFA"/>
<path d="M108.583 15.3516C117.288 15.3516 124.383 22.5723 124.383 31.4314V33.2517C126.291 32.0381 128.378 31.0673 130.584 30.3391C129.988 18.4462 120.389 9.04102 108.583 9.04102C96.7184 9.04102 87.1191 18.5675 86.5825 30.4605C88.7886 31.2493 90.8753 32.2202 92.7833 33.4944V31.492C92.8429 22.5723 99.8784 15.3516 108.583 15.3516Z" fill="#1FCEF7"/>
<path d="M94.2734 33.009V34.0405C96.5391 35.6788 98.5663 37.6205 100.295 39.8049V33.009C100.295 28.1547 103.992 24.2106 108.583 24.2106C113.174 24.2106 116.87 28.1547 116.87 33.009V39.3802C118.599 37.2565 120.627 35.3754 122.892 33.7978V33.009C122.892 24.6353 116.453 17.8394 108.583 17.8394C100.713 17.8394 94.2734 24.6353 94.2734 33.009Z" fill="#0063A5"/>
<path d="M138.872 31.2494C139.289 31.2494 139.706 31.1887 140.124 31.1887C142.091 31.1887 143.999 31.3709 145.847 31.7355C144.476 31.4317 143.045 31.2494 141.614 31.1887C141.137 31.1887 140.601 31.1279 140.124 31.1279C139.706 31.1887 139.289 31.1887 138.872 31.2494Z" fill="#89DDFA"/>
<path d="M99.163 75.1201V74.4526V71.6007V68.2634V66.9892V62.681C99.163 57.0379 97.0762 51.8802 93.6778 47.9361C93.3796 47.5721 93.0815 47.2687 92.7834 46.9653C90.9947 45.0843 88.8483 43.5673 86.523 42.4144C85.8672 42.111 85.2113 41.8076 84.5555 41.5649C82.588 40.8368 80.5012 40.412 78.2951 40.2907C77.8778 40.2907 77.4604 40.23 77.0431 40.23C65.7744 40.23 56.3249 48.9627 54.9536 60.0669H61.9174C63.2291 52.5427 69.2325 46.6012 76.9834 46.6012C77.4008 46.6012 77.8181 46.6619 78.2355 46.6619C80.5608 46.8439 82.7072 47.5114 84.6151 48.6036C85.271 48.9677 85.8672 49.3924 86.4038 49.8172C90.3985 52.7904 92.9027 57.402 92.9027 62.681V64.3193V69.9624V72.2075V77.0001H99.163V75.1201Z" fill="#1FCEF7"/>
<path d="M90.5174 71.6004L90.577 68.9306V64.2584C90.577 63.955 90.577 63.6621 90.577 63.3994C90.3386 59.0305 88.4306 55.0959 85.6284 52.4867C85.2706 52.1227 84.8533 51.8193 84.4359 51.5159C82.6472 50.181 80.5604 49.3315 78.2948 49.0888C77.8774 49.0281 77.4601 49.0281 77.0427 49.0281C70.9612 49.0281 65.5762 53.8168 63.9067 60.0666H70.8706C71.8654 57.5765 74.1212 55.46 77.0427 55.46C77.9967 55.46 78.8314 55.642 79.6661 56.0061C82.7069 57.2197 84.8533 60.4963 84.8533 64.2584V66.018V76.9999H90.5174V71.6004Z" fill="#0063A5"/>
<path d="M107.331 62.0134C107.331 44.9627 93.8562 31.1887 77.1022 31.1887C61.0637 31.1887 47.0732 44.0476 46 60.0667H52.9638C54.037 47.567 64.5218 37.56 77.0426 37.56C90.2788 37.56 101.07 48.5428 101.07 62.0134V77H107.331V62.0134Z" fill="#89DDFA"/>
<path d="M117.837 75.1201V74.4526V71.6007V68.2634V66.9892V62.681C117.837 57.0379 119.924 51.8802 123.323 47.9361C123.621 47.5721 123.919 47.2687 124.217 46.9653C126.006 45.0843 128.152 43.5673 130.477 42.4144C131.133 42.111 131.789 41.8076 132.445 41.5649C134.413 40.8368 136.499 40.412 138.705 40.2907C139.123 40.2907 139.54 40.23 139.957 40.23C151.226 40.23 160.676 48.9627 162.047 60.0669H155.083C153.771 52.5427 147.768 46.6012 140.017 46.6012C139.6 46.6012 139.182 46.6619 138.765 46.6619C136.44 46.8439 134.293 47.5114 132.385 48.6036C131.73 48.9677 131.133 49.3924 130.597 49.8172C126.602 52.7904 124.098 57.402 124.098 62.681V64.3193V69.9624V72.2075V77.0001H117.837V75.1201Z" fill="#1FCEF7"/>
<path d="M126.483 71.6004L126.423 68.9306V64.2584C126.423 63.955 126.423 63.6621 126.423 63.3994C126.661 59.0305 128.569 55.0959 131.372 52.4867C131.729 52.1227 132.147 51.8193 132.564 51.5159C134.353 50.181 136.44 49.3315 138.705 49.0888C139.123 49.0281 139.54 49.0281 139.957 49.0281C146.039 49.0281 151.424 53.8168 153.093 60.0666H146.129C145.135 57.5765 142.879 55.46 139.957 55.46C139.003 55.46 138.169 55.642 137.334 56.0061C134.293 57.2197 132.147 60.4963 132.147 64.2584V66.018V76.9999H126.483V71.6004Z" fill="#0063A5"/>
<path d="M109.669 62.0134C109.669 44.9627 123.144 31.1887 139.898 31.1887C155.936 31.1887 169.927 44.0476 171 60.0667H164.036C162.963 47.567 152.478 37.56 139.957 37.56C126.721 37.56 115.93 48.5428 115.93 62.0134V77H109.669V62.0134Z" fill="#89DDFA"/>
<path d="M22.5035 99.0307V106.652H18.3465V102.662H4.15705V106.652H0L0.0277137 99.0307H2.35566V91.8222C2.35566 89.9697 2.72518 88.3922 3.46421 87.0899C4.20324 85.7693 5.23788 84.7697 6.56814 84.091C7.91687 83.4123 9.47808 83.073 11.2518 83.073C13.0254 83.073 14.5774 83.4123 15.9076 84.091C17.2564 84.7697 18.3003 85.7693 19.0393 87.0899C19.7783 88.3922 20.1478 89.9697 20.1478 91.8222V99.0307H22.5035ZM15.6305 99.0307V91.437C15.6305 89.933 15.2425 88.7958 14.4665 88.0254C13.709 87.255 12.6374 86.8698 11.2518 86.8698C9.88454 86.8698 8.80371 87.255 8.00925 88.0254C7.23327 88.7958 6.84528 89.933 6.84528 91.437V99.0307H15.6305Z" fill="#0063A5"/>
<path d="M39.7802 102.662V93.8032L35.3183 101.232H33.4892L29.1381 93.7757V102.662H25.2305V87.8603H29.7478L34.5146 96.4169L39.5862 87.8603H43.6324L43.6878 102.662H39.7802Z" fill="#0063A5"/>
<path d="M62.545 87.8603V102.662H58.4157V100.929C57.8614 101.571 57.1778 102.057 56.3648 102.387C55.5704 102.717 54.7205 102.883 53.8152 102.883C51.8568 102.883 50.2956 102.323 49.1316 101.204C47.9861 100.085 47.4133 98.4254 47.4133 96.2243V87.8603H51.7367V95.5915C51.7367 97.976 52.7436 99.1683 54.7575 99.1683C55.8106 99.1683 56.6512 98.8381 57.2794 98.1778C57.9076 97.4991 58.2217 96.4995 58.2217 95.1788V87.8603H62.545Z" fill="#0063A5"/>
<path d="M85.7327 87.6402C87.5987 87.6402 89.0768 88.1905 90.1669 89.291C91.2754 90.3732 91.8297 92.0056 91.8297 94.1884V102.662H87.5064V94.8487C87.5064 93.6748 87.2569 92.8035 86.7581 92.2349C86.2777 91.648 85.5849 91.3545 84.6796 91.3545C83.6634 91.3545 82.8597 91.6847 82.2685 92.345C81.6772 92.9869 81.3816 93.9499 81.3816 95.2339V102.662H77.0583V94.8487C77.0583 92.5192 76.116 91.3545 74.2315 91.3545C73.2338 91.3545 72.4394 91.6847 71.8481 92.345C71.2569 92.9869 70.9613 93.9499 70.9613 95.2339V102.662H66.638V87.8603H70.7673V89.5661C71.3216 88.9425 71.9959 88.4656 72.7904 88.1355C73.6033 87.8053 74.4902 87.6402 75.4509 87.6402C76.504 87.6402 77.4555 87.8511 78.3054 88.273C79.1553 88.6765 79.8389 89.2727 80.3562 90.0614C80.9659 89.291 81.7327 88.6949 82.6565 88.273C83.5987 87.8511 84.6241 87.6402 85.7327 87.6402Z" fill="#0063A5"/>
<path d="M103.246 87.6402C104.835 87.6402 106.221 87.952 107.403 88.5757C108.586 89.1993 109.5 90.0889 110.147 91.2444C110.794 92.4 111.117 93.7481 111.117 95.2889C111.117 96.7929 110.812 98.1227 110.202 99.2783C109.593 100.416 108.734 101.305 107.625 101.947C106.516 102.571 105.242 102.883 103.8 102.883C101.897 102.883 100.41 102.286 99.3386 101.094V108H95.0153V95.3164C95.0153 93.794 95.3571 92.455 96.0407 91.2995C96.7243 90.1439 97.685 89.2452 98.9229 88.6032C100.161 87.9612 101.602 87.6402 103.246 87.6402ZM103.052 99.3608C104.179 99.3608 105.094 98.9848 105.796 98.2328C106.498 97.4808 106.849 96.4995 106.849 95.2889C106.849 94.06 106.498 93.0695 105.796 92.3175C105.094 91.5471 104.179 91.1619 103.052 91.1619C101.925 91.1619 101.011 91.5379 100.309 92.2899C99.625 93.042 99.2832 94.0324 99.2832 95.2614C99.2832 96.4903 99.625 97.4808 100.309 98.2328C100.992 98.9848 101.907 99.3608 103.052 99.3608Z" fill="#0063A5"/>
<path d="M121.147 102.883C119.577 102.883 118.163 102.562 116.907 101.92C115.669 101.259 114.699 100.351 113.997 99.1958C113.295 98.0402 112.944 96.7287 112.944 95.2614C112.944 93.794 113.295 92.4825 113.997 91.327C114.699 90.1714 115.669 89.2727 116.907 88.6307C118.163 87.9704 119.577 87.6402 121.147 87.6402C122.718 87.6402 124.122 87.9704 125.36 88.6307C126.597 89.2727 127.567 90.1714 128.27 91.327C128.972 92.4825 129.323 93.794 129.323 95.2614C129.323 96.7287 128.972 98.0402 128.27 99.1958C127.567 100.351 126.597 101.259 125.36 101.92C124.122 102.562 122.718 102.883 121.147 102.883ZM121.147 99.3608C122.256 99.3608 123.161 98.994 123.863 98.2603C124.584 97.5083 124.944 96.5086 124.944 95.2614C124.944 94.0141 124.584 93.0236 123.863 92.2899C123.161 91.5379 122.256 91.1619 121.147 91.1619C120.039 91.1619 119.124 91.5379 118.403 92.2899C117.683 93.0236 117.323 94.0141 117.323 95.2614C117.323 96.5086 117.683 97.5083 118.403 98.2603C119.124 98.994 120.039 99.3608 121.147 99.3608Z" fill="#0063A5"/>
<path d="M143.687 94.9312C145.442 95.5182 146.319 96.6921 146.319 98.4529C146.319 99.7919 145.811 100.828 144.795 101.562C143.779 102.296 142.264 102.662 140.25 102.662H132.296V87.8603H139.917C141.784 87.8603 143.243 88.1996 144.296 88.8783C145.349 89.5386 145.876 90.4741 145.876 91.6847C145.876 92.4183 145.682 93.0695 145.294 93.6381C144.924 94.1884 144.389 94.6194 143.687 94.9312ZM136.259 93.9407H139.529C141.044 93.9407 141.802 93.4088 141.802 92.345C141.802 91.2995 141.044 90.7767 139.529 90.7767H136.259V93.9407ZM139.89 99.746C141.479 99.746 142.273 99.2049 142.273 98.1228C142.273 97.5541 142.088 97.1414 141.719 96.8847C141.349 96.6095 140.767 96.472 139.973 96.472H136.259V99.746H139.89Z" fill="#0063A5"/>
<path d="M156.631 102.883C155.042 102.883 153.61 102.562 152.335 101.92C151.079 101.259 150.09 100.351 149.37 99.1958C148.668 98.0402 148.317 96.7287 148.317 95.2614C148.317 93.794 148.668 92.4825 149.37 91.327C150.09 90.1714 151.079 89.2727 152.335 88.6307C153.61 87.9704 155.042 87.6402 156.631 87.6402C158.201 87.6402 159.568 87.9704 160.732 88.6307C161.915 89.2727 162.774 90.1989 163.31 91.4095L159.956 93.1979C159.18 91.8406 158.063 91.1619 156.603 91.1619C155.476 91.1619 154.543 91.5287 153.804 92.2624C153.065 92.9961 152.695 93.9958 152.695 95.2614C152.695 96.527 153.065 97.5266 153.804 98.2603C154.543 98.994 155.476 99.3608 156.603 99.3608C158.081 99.3608 159.199 98.6822 159.956 97.3249L163.31 99.1407C162.774 100.315 161.915 101.232 160.732 101.892C159.568 102.552 158.201 102.883 156.631 102.883Z" fill="#0063A5"/>
<path d="M172.505 97.0497H170.26V102.662H165.937V87.8603H170.26V93.6106H172.588L176.634 87.8603H181.235L176.025 94.9587L181.595 102.662H176.496L172.505 97.0497Z" fill="#0063A5"/>
<path d="M198.163 87.8603V102.662H194.034V100.929C193.48 101.571 192.796 102.057 191.983 102.387C191.189 102.717 190.339 102.883 189.434 102.883C187.475 102.883 185.914 102.323 184.75 101.204C183.604 100.085 183.032 98.4254 183.032 96.2243V87.8603H187.355V95.5915C187.355 97.976 188.362 99.1683 190.376 99.1683C191.429 99.1683 192.27 98.8381 192.898 98.1778C193.526 97.4991 193.84 96.4995 193.84 95.1788V87.8603H198.163Z" fill="#0063A5"/>
<path d="M217 87.8603V102.662H212.871V100.929C212.316 101.571 211.633 102.057 210.82 102.387C210.025 102.717 209.176 102.883 208.27 102.883C206.312 102.883 204.751 102.323 203.587 101.204C202.441 100.085 201.868 98.4254 201.868 96.2243V87.8603H206.192V95.5915C206.192 97.976 207.199 99.1683 209.212 99.1683C210.266 99.1683 211.106 98.8381 211.734 98.1778C212.363 97.4991 212.677 96.4995 212.677 95.1788V87.8603H217ZM209.323 86.2646C206.072 86.2646 204.436 84.843 204.418 82H207.245C207.263 82.642 207.439 83.1464 207.771 83.5132C208.122 83.8617 208.63 84.036 209.296 84.036C209.961 84.036 210.469 83.8617 210.82 83.5132C211.189 83.1464 211.374 82.642 211.374 82H214.256C214.238 84.843 212.594 86.2646 209.323 86.2646Z" fill="#0063A5"/>
<path d="M6.29403 130.159C5.08632 130.159 4.00248 129.896 3.0425 129.368C2.09801 128.84 1.3548 128.103 0.812882 127.156C0.270961 126.194 0 125.115 0 123.92C0 122.724 0.270961 121.653 0.812882 120.707C1.3548 119.76 2.09801 119.023 3.0425 118.495C4.00248 117.967 5.08632 117.703 6.29403 117.703C7.34691 117.703 8.28366 117.913 9.10428 118.332C9.94039 118.735 10.5984 119.333 11.0784 120.125L9.84749 120.963C9.44492 120.357 8.93396 119.907 8.31462 119.612C7.69528 119.302 7.02175 119.147 6.29403 119.147C5.41147 119.147 4.61407 119.348 3.90183 119.752C3.20508 120.14 2.65542 120.699 2.25284 121.428C1.86576 122.158 1.67221 122.988 1.67221 123.92C1.67221 124.867 1.86576 125.705 2.25284 126.434C2.65542 127.148 3.20508 127.707 3.90183 128.111C4.61407 128.499 5.41147 128.693 6.29403 128.693C7.02175 128.693 7.69528 128.545 8.31462 128.25C8.93396 127.955 9.44492 127.505 9.84749 126.9L11.0784 127.738C10.5984 128.53 9.94039 129.135 9.10428 129.554C8.26817 129.958 7.33142 130.159 6.29403 130.159Z" fill="#0063A5"/>
<path d="M22.6379 119.263H18.016V130.043H16.3671V119.263H11.7452V117.796H22.6379V119.263Z" fill="#0063A5"/>
<path d="M35.1386 124.432H24.9196C25.0125 125.705 25.5002 126.737 26.3827 127.529C27.2653 128.305 28.3801 128.693 29.7272 128.693C30.4859 128.693 31.1826 128.561 31.8174 128.297C32.4523 128.017 33.0019 127.614 33.4664 127.086L34.3954 128.157C33.8535 128.809 33.1722 129.306 32.3516 129.647C31.5465 129.989 30.6562 130.159 29.6807 130.159C28.4266 130.159 27.3118 129.896 26.3363 129.368C25.3763 128.825 24.6254 128.08 24.0834 127.133C23.5415 126.186 23.2706 125.115 23.2706 123.92C23.2706 122.724 23.526 121.653 24.037 120.707C24.5634 119.76 25.2757 119.023 26.1737 118.495C27.0872 117.967 28.1091 117.703 29.2394 117.703C30.3697 117.703 31.3839 117.967 32.2819 118.495C33.18 119.023 33.8845 119.76 34.3954 120.707C34.9064 121.638 35.1619 122.709 35.1619 123.92L35.1386 124.432ZM29.2394 119.123C28.0627 119.123 27.0718 119.504 26.2666 120.264C25.477 121.009 25.0279 121.987 24.9196 123.198H33.5826C33.4742 121.987 33.0174 121.009 32.2123 120.264C31.4226 119.504 30.4317 119.123 29.2394 119.123Z" fill="#0063A5"/>
<path d="M43.2481 124.595H40.461V130.043H38.812V117.796H40.461V123.175H43.2713L47.5679 117.796H49.3563L44.5487 123.733L49.7047 130.043H47.7537L43.2481 124.595Z" fill="#0063A5"/>
<path d="M56.9161 130.159C55.7393 130.159 54.6787 129.896 53.7342 129.368C52.7897 128.825 52.0465 128.08 51.5046 127.133C50.9627 126.186 50.6917 125.115 50.6917 123.92C50.6917 122.724 50.9627 121.653 51.5046 120.707C52.0465 119.76 52.7897 119.023 53.7342 118.495C54.6787 117.967 55.7393 117.703 56.9161 117.703C58.0928 117.703 59.1535 117.967 60.0979 118.495C61.0424 119.023 61.7779 119.76 62.3043 120.707C62.8463 121.653 63.1172 122.724 63.1172 123.92C63.1172 125.115 62.8463 126.186 62.3043 127.133C61.7779 128.08 61.0424 128.825 60.0979 129.368C59.1535 129.896 58.0928 130.159 56.9161 130.159ZM56.9161 128.693C57.7832 128.693 58.5573 128.499 59.2386 128.111C59.9354 127.707 60.4773 127.14 60.8644 126.411C61.2515 125.681 61.445 124.851 61.445 123.92C61.445 122.988 61.2515 122.158 60.8644 121.428C60.4773 120.699 59.9354 120.14 59.2386 119.752C58.5573 119.348 57.7832 119.147 56.9161 119.147C56.049 119.147 55.2671 119.348 54.5703 119.752C53.8891 120.14 53.3471 120.699 52.9446 121.428C52.5575 122.158 52.3639 122.988 52.3639 123.92C52.3639 124.851 52.5575 125.681 52.9446 126.411C53.3471 127.14 53.8891 127.707 54.5703 128.111C55.2671 128.499 56.049 128.693 56.9161 128.693Z" fill="#0063A5"/>
<path d="M76.5603 117.796V130.043H74.9113V119.263H69.0585L68.8959 122.29C68.7721 124.835 68.4779 126.791 68.0134 128.157C67.5489 129.523 66.7205 130.206 65.5283 130.206C65.2031 130.206 64.8083 130.144 64.3438 130.02L64.4599 128.6C64.7386 128.662 64.9322 128.693 65.0406 128.693C65.6754 128.693 66.1554 128.398 66.4805 127.808C66.8057 127.218 67.0224 126.489 67.1308 125.619C67.2392 124.75 67.3321 123.601 67.4095 122.173L67.6186 117.796H76.5603Z" fill="#0063A5"/>
<path d="M86.4968 122.127C88.0297 122.142 89.191 122.484 89.9806 123.151C90.7858 123.819 91.1883 124.781 91.1883 126.038C91.1883 127.342 90.7548 128.343 89.8877 129.042C89.0361 129.74 87.7974 130.082 86.1717 130.066L81.2479 130.043V117.796H82.8969V122.08L86.4968 122.127ZM86.0788 128.809C87.2091 128.825 88.0607 128.6 88.6336 128.134C89.2219 127.653 89.5161 126.954 89.5161 126.038C89.5161 125.138 89.2297 124.471 88.6568 124.036C88.0839 123.601 87.2246 123.376 86.0788 123.361L82.8969 123.314V128.763L86.0788 128.809Z" fill="#0063A5"/>
<path d="M94.3348 117.796H95.9838V123.221H103.671V117.796H105.32V130.043H103.671V124.641H95.9838V130.043H94.3348V117.796Z" fill="#0063A5"/>
<path d="M115.14 122.127C116.673 122.142 117.842 122.484 118.647 123.151C119.452 123.819 119.855 124.781 119.855 126.038C119.855 127.342 119.421 128.343 118.554 129.042C117.687 129.74 116.448 130.082 114.838 130.066L110.007 130.043V117.796H111.656V122.08L115.14 122.127ZM121.899 117.796H123.548V130.043H121.899V117.796ZM114.745 128.809C115.876 128.825 116.727 128.6 117.3 128.134C117.888 127.653 118.183 126.954 118.183 126.038C118.183 125.138 117.896 124.471 117.323 124.036C116.75 123.601 115.891 123.376 114.745 123.361L111.656 123.314V128.763L114.745 128.809Z" fill="#0063A5"/>
<path d="M128.243 117.796H129.892V127.529L138.044 117.796H139.507V130.043H137.858V120.311L129.729 130.043H128.243V117.796ZM133.794 116.027C132.741 116.027 131.905 115.763 131.285 115.235C130.666 114.707 130.348 113.962 130.333 113H131.517C131.533 113.605 131.75 114.094 132.168 114.467C132.586 114.824 133.128 115.002 133.794 115.002C134.459 115.002 135.001 114.824 135.419 114.467C135.853 114.094 136.077 113.605 136.093 113H137.277C137.262 113.962 136.937 114.707 136.302 115.235C135.682 115.763 134.846 116.027 133.794 116.027Z" fill="#0063A5"/>
<path d="M156.257 123.664C157.124 123.865 157.79 124.215 158.254 124.711C158.734 125.208 158.974 125.813 158.974 126.527C158.974 127.241 158.726 127.878 158.231 128.437C157.751 128.995 157.093 129.43 156.257 129.74C155.421 130.035 154.499 130.183 153.493 130.183C152.61 130.183 151.743 130.059 150.892 129.81C150.04 129.546 149.297 129.166 148.662 128.669L149.22 127.435C149.777 127.854 150.427 128.18 151.171 128.413C151.914 128.646 152.665 128.763 153.423 128.763C154.554 128.763 155.475 128.553 156.187 128.134C156.915 127.699 157.279 127.117 157.279 126.388C157.279 125.736 156.985 125.231 156.396 124.874C155.808 124.502 155.003 124.315 153.981 124.315H151.89V123.105H153.888C154.801 123.105 155.537 122.934 156.094 122.593C156.652 122.236 156.93 121.762 156.93 121.172C156.93 120.52 156.613 120.008 155.978 119.636C155.359 119.263 154.546 119.077 153.539 119.077C152.223 119.077 150.923 119.411 149.638 120.078L149.173 118.797C150.629 118.037 152.138 117.657 153.702 117.657C154.631 117.657 155.467 117.796 156.21 118.076C156.969 118.34 157.557 118.72 157.975 119.217C158.409 119.713 158.626 120.288 158.626 120.939C158.626 121.56 158.409 122.111 157.975 122.593C157.557 123.074 156.985 123.431 156.257 123.664Z" fill="#0063A5"/>
<path d="M166.921 117.703C168.516 117.703 169.739 118.107 170.591 118.914C171.443 119.705 171.868 120.885 171.868 122.453V130.043H170.289V128.134C169.917 128.77 169.368 129.267 168.64 129.624C167.928 129.981 167.076 130.159 166.085 130.159C164.723 130.159 163.639 129.834 162.834 129.182C162.029 128.53 161.626 127.668 161.626 126.597C161.626 125.557 161.998 124.719 162.741 124.083C163.5 123.446 164.699 123.128 166.341 123.128H170.219V122.383C170.219 121.328 169.925 120.528 169.337 119.985C168.748 119.426 167.889 119.147 166.759 119.147C165.985 119.147 165.241 119.279 164.529 119.542C163.817 119.791 163.205 120.14 162.694 120.59L161.951 119.356C162.571 118.828 163.314 118.425 164.181 118.146C165.048 117.851 165.961 117.703 166.921 117.703ZM166.341 128.856C167.27 128.856 168.067 128.646 168.733 128.227C169.399 127.792 169.894 127.172 170.219 126.364V124.362H166.387C164.297 124.362 163.252 125.092 163.252 126.551C163.252 127.265 163.523 127.831 164.065 128.25C164.607 128.654 165.365 128.856 166.341 128.856Z" fill="#0063A5"/>
<path d="M184.039 123.71C185.695 124.098 186.524 125.099 186.524 126.714C186.524 127.785 186.129 128.607 185.339 129.182C184.549 129.756 183.373 130.043 181.809 130.043H176.258V117.796H181.646C183.04 117.796 184.131 118.068 184.921 118.611C185.711 119.154 186.106 119.931 186.106 120.939C186.106 121.607 185.92 122.181 185.548 122.662C185.192 123.128 184.689 123.477 184.039 123.71ZM177.861 123.244H181.53C182.475 123.244 183.195 123.066 183.69 122.709C184.201 122.352 184.457 121.832 184.457 121.149C184.457 120.466 184.201 119.954 183.69 119.612C183.195 119.271 182.475 119.1 181.53 119.1H177.861V123.244ZM181.739 128.739C182.792 128.739 183.582 128.568 184.108 128.227C184.635 127.886 184.898 127.35 184.898 126.62C184.898 125.891 184.658 125.355 184.178 125.014C183.698 124.657 182.939 124.478 181.902 124.478H177.861V128.739H181.739Z" fill="#0063A5"/>
<path d="M195.428 130.159C194.251 130.159 193.191 129.896 192.246 129.368C191.302 128.825 190.559 128.08 190.017 127.133C189.475 126.186 189.204 125.115 189.204 123.92C189.204 122.724 189.475 121.653 190.017 120.707C190.559 119.76 191.302 119.023 192.246 118.495C193.191 117.967 194.251 117.703 195.428 117.703C196.605 117.703 197.665 117.967 198.61 118.495C199.554 119.023 200.29 119.76 200.816 120.707C201.358 121.653 201.629 122.724 201.629 123.92C201.629 125.115 201.358 126.186 200.816 127.133C200.29 128.08 199.554 128.825 198.61 129.368C197.665 129.896 196.605 130.159 195.428 130.159ZM195.428 128.693C196.295 128.693 197.069 128.499 197.751 128.111C198.447 127.707 198.989 127.14 199.376 126.411C199.764 125.681 199.957 124.851 199.957 123.92C199.957 122.988 199.764 122.158 199.376 121.428C198.989 120.699 198.447 120.14 197.751 119.752C197.069 119.348 196.295 119.147 195.428 119.147C194.561 119.147 193.779 119.348 193.082 119.752C192.401 120.14 191.859 120.699 191.457 121.428C191.07 122.158 190.876 122.988 190.876 123.92C190.876 124.851 191.07 125.681 191.457 126.411C191.859 127.14 192.401 127.707 193.082 128.111C193.779 128.499 194.561 128.693 195.428 128.693Z" fill="#0063A5"/>
<path d="M217 128.6V133H215.444V130.043H204.505V133H202.949V128.6H203.646C204.466 128.553 205.024 127.948 205.318 126.783C205.612 125.619 205.813 123.99 205.922 121.894L206.084 117.796H215.096V128.6H217ZM207.431 121.987C207.354 123.726 207.207 125.161 206.99 126.295C206.773 127.412 206.386 128.18 205.829 128.6H213.447V119.263H207.571L207.431 121.987Z" fill="#0063A5"/>
</svg>
