<svg width="217" height="26" viewBox="0 0 217 26" fill="none" xmlns="http://www.w3.org/2000/svg">
<path d="M22.5034 17.0307V24.6518H18.3463V20.6624H4.15693V24.6518H-0.00012207L0.0275916 17.0307H2.35554V9.82222C2.35554 7.96966 2.72506 6.39224 3.46409 5.08995C4.20312 3.76931 5.23776 2.76967 6.56802 2.09101C7.91675 1.41235 9.47795 1.07302 11.2516 1.07302C13.0253 1.07302 14.5773 1.41235 15.9075 2.09101C17.2563 2.76967 18.3001 3.76931 19.0392 5.08995C19.7782 6.39224 20.1477 7.96966 20.1477 9.82222V17.0307H22.5034ZM15.6304 17.0307V9.43704C15.6304 7.93298 15.2424 6.79577 14.4664 6.0254C13.7089 5.25503 12.6373 4.86984 11.2516 4.86984C9.88442 4.86984 8.80359 5.25503 8.00913 6.0254C7.23315 6.79577 6.84516 7.93298 6.84516 9.43704V17.0307H15.6304Z" fill="white"/>
<path d="M39.78 20.6624V11.8032L35.3181 19.2317H33.489L29.138 11.7757V20.6624H25.2304V5.86032H29.7477L34.5144 14.4169L39.586 5.86032H43.6322L43.6877 20.6624H39.78Z" fill="white"/>
<path d="M62.5449 5.86032V20.6624H58.4155V18.9291C57.8613 19.5711 57.1777 20.0571 56.3647 20.3873C55.5703 20.7175 54.7204 20.8825 53.8151 20.8825C51.8566 20.8825 50.2954 20.3231 49.1315 19.2042C47.986 18.0854 47.4132 16.4254 47.4132 14.2243V5.86032H51.7365V13.5915C51.7365 15.976 52.7435 17.1683 54.7573 17.1683C55.8105 17.1683 56.6511 16.8381 57.2793 16.1778C57.9075 15.4991 58.2215 14.4995 58.2215 13.1788V5.86032H62.5449Z" fill="white"/>
<path d="M85.7326 5.64021C87.5986 5.64021 89.0767 6.19048 90.1667 7.29101C91.2753 8.37319 91.8296 10.0056 91.8296 12.1884V20.6624H87.5062V12.8487C87.5062 11.6748 87.2568 10.8035 86.758 10.2349C86.2776 9.64797 85.5848 9.3545 84.6794 9.3545C83.6633 9.3545 82.8596 9.68466 82.2683 10.345C81.6771 10.9869 81.3815 11.9499 81.3815 13.2339V20.6624H77.0582V12.8487C77.0582 10.5192 76.1159 9.3545 74.2314 9.3545C73.2337 9.3545 72.4392 9.68466 71.848 10.345C71.2568 10.9869 70.9612 11.9499 70.9612 13.2339V20.6624H66.6378V5.86032H70.7672V7.56614C71.3214 6.9425 71.9958 6.46561 72.7903 6.13545C73.6032 5.80529 74.49 5.64021 75.4508 5.64021C76.5039 5.64021 77.4554 5.85115 78.3053 6.27302C79.1552 6.67654 79.8388 7.27266 80.3561 8.06137C80.9658 7.29101 81.7326 6.69489 82.6563 6.27302C83.5986 5.85115 84.624 5.64021 85.7326 5.64021Z" fill="white"/>
<path d="M103.246 5.64021C104.835 5.64021 106.221 5.95203 107.403 6.57566C108.586 7.1993 109.5 8.08889 110.147 9.24444C110.793 10.4 111.117 11.7481 111.117 13.2889C111.117 14.7929 110.812 16.1227 110.202 17.2783C109.593 18.4155 108.733 19.3051 107.625 19.9471C106.516 20.5707 105.241 20.8825 103.8 20.8825C101.897 20.8825 100.41 20.2864 99.3385 19.0942V26H95.0151V13.3164C95.0151 11.794 95.3569 10.455 96.0405 9.29947C96.7241 8.14392 97.6849 7.24515 98.9228 6.60317C100.161 5.9612 101.602 5.64021 103.246 5.64021ZM103.052 17.3608C104.179 17.3608 105.094 16.9848 105.796 16.2328C106.498 15.4808 106.849 14.4995 106.849 13.2889C106.849 12.06 106.498 11.0695 105.796 10.3175C105.094 9.54709 104.179 9.1619 103.052 9.1619C101.925 9.1619 101.011 9.53792 100.308 10.2899C99.6248 11.042 99.283 12.0324 99.283 13.2614C99.283 14.4903 99.6248 15.4808 100.308 16.2328C100.992 16.9848 101.907 17.3608 103.052 17.3608Z" fill="white"/>
<path d="M121.147 20.8825C119.577 20.8825 118.163 20.5616 116.907 19.9196C115.669 19.2593 114.699 18.3513 113.997 17.1958C113.295 16.0402 112.944 14.7287 112.944 13.2614C112.944 11.794 113.295 10.4825 113.997 9.32698C114.699 8.17143 115.669 7.27266 116.907 6.63069C118.163 5.97037 119.577 5.64021 121.147 5.64021C122.717 5.64021 124.122 5.97037 125.359 6.63069C126.597 7.27266 127.567 8.17143 128.269 9.32698C128.971 10.4825 129.322 11.794 129.322 13.2614C129.322 14.7287 128.971 16.0402 128.269 17.1958C127.567 18.3513 126.597 19.2593 125.359 19.9196C124.122 20.5616 122.717 20.8825 121.147 20.8825ZM121.147 17.3608C122.256 17.3608 123.161 16.994 123.863 16.2603C124.583 15.5083 124.944 14.5086 124.944 13.2614C124.944 12.0141 124.583 11.0236 123.863 10.2899C123.161 9.53792 122.256 9.1619 121.147 9.1619C120.038 9.1619 119.124 9.53792 118.403 10.2899C117.683 11.0236 117.322 12.0141 117.322 13.2614C117.322 14.5086 117.683 15.5083 118.403 16.2603C119.124 16.994 120.038 17.3608 121.147 17.3608Z" fill="white"/>
<path d="M143.686 12.9312C145.442 13.5182 146.319 14.6921 146.319 16.4529C146.319 17.7919 145.811 18.8282 144.795 19.5619C143.779 20.2956 142.264 20.6624 140.25 20.6624H132.296V5.86032H139.917C141.783 5.86032 143.243 6.19965 144.296 6.87831C145.349 7.53862 145.876 8.47407 145.876 9.68466C145.876 10.4183 145.682 11.0695 145.294 11.6381C144.924 12.1884 144.388 12.6194 143.686 12.9312ZM136.259 11.9407H139.529C141.044 11.9407 141.802 11.4088 141.802 10.345C141.802 9.29947 141.044 8.77672 139.529 8.77672H136.259V11.9407ZM139.89 17.746C141.479 17.746 142.273 17.2049 142.273 16.1228C142.273 15.5541 142.088 15.1414 141.719 14.8847C141.349 14.6095 140.767 14.472 139.973 14.472H136.259V17.746H139.89Z" fill="white"/>
<path d="M156.631 20.8825C155.042 20.8825 153.61 20.5616 152.335 19.9196C151.079 19.2593 150.09 18.3513 149.37 17.1958C148.668 16.0402 148.317 14.7287 148.317 13.2614C148.317 11.794 148.668 10.4825 149.37 9.32698C150.09 8.17143 151.079 7.27266 152.335 6.63069C153.61 5.97037 155.042 5.64021 156.631 5.64021C158.201 5.64021 159.568 5.97037 160.732 6.63069C161.915 7.27266 162.774 8.19894 163.31 9.40952L159.956 11.1979C159.18 9.84056 158.063 9.1619 156.603 9.1619C155.476 9.1619 154.543 9.52875 153.804 10.2624C153.065 10.9961 152.695 11.9958 152.695 13.2614C152.695 14.527 153.065 15.5266 153.804 16.2603C154.543 16.994 155.476 17.3608 156.603 17.3608C158.081 17.3608 159.199 16.6822 159.956 15.3249L163.31 17.1407C162.774 18.3146 161.915 19.2317 160.732 19.8921C159.568 20.5524 158.201 20.8825 156.631 20.8825Z" fill="white"/>
<path d="M172.505 15.0497H170.26V20.6624H165.937V5.86032H170.26V11.6106H172.588L176.634 5.86032H181.235L176.025 12.9587L181.595 20.6624H176.496L172.505 15.0497Z" fill="white"/>
<path d="M198.163 5.86032V20.6624H194.034V18.9291C193.48 19.5711 192.796 20.0571 191.983 20.3873C191.189 20.7175 190.339 20.8825 189.433 20.8825C187.475 20.8825 185.914 20.3231 184.75 19.2042C183.604 18.0854 183.032 16.4254 183.032 14.2243V5.86032H187.355V13.5915C187.355 15.976 188.362 17.1683 190.376 17.1683C191.429 17.1683 192.269 16.8381 192.898 16.1778C193.526 15.4991 193.84 14.4995 193.84 13.1788V5.86032H198.163Z" fill="white"/>
<path d="M217 5.86032V20.6624H212.871V18.9291C212.316 19.5711 211.633 20.0571 210.82 20.3873C210.025 20.7175 209.175 20.8825 208.27 20.8825C206.312 20.8825 204.75 20.3231 203.586 19.2042C202.441 18.0854 201.868 16.4254 201.868 14.2243V5.86032H206.192V13.5915C206.192 15.976 207.199 17.1683 209.212 17.1683C210.265 17.1683 211.106 16.8381 211.734 16.1778C212.362 15.4991 212.677 14.4995 212.677 13.1788V5.86032H217ZM209.323 4.26455C206.071 4.26455 204.436 2.84303 204.418 0H207.245C207.263 0.641976 207.439 1.14639 207.771 1.51323C208.122 1.86173 208.63 2.03598 209.296 2.03598C209.961 2.03598 210.469 1.86173 210.82 1.51323C211.189 1.14639 211.374 0.641976 211.374 0H214.256C214.238 2.84303 212.593 4.26455 209.323 4.26455Z" fill="white"/>
</svg>
