<svg width="217" height="26" viewBox="0 0 217 26" fill="none" xmlns="http://www.w3.org/2000/svg">
<path d="M22.5035 17.0307V24.6518H18.3465V20.6624H4.15705V24.6518H0L0.0277137 17.0307H2.35566V9.82222C2.35566 7.96966 2.72518 6.39224 3.46421 5.08995C4.20324 3.76931 5.23788 2.76967 6.56814 2.09101C7.91687 1.41235 9.47808 1.07302 11.2518 1.07302C13.0254 1.07302 14.5774 1.41235 15.9076 2.09101C17.2564 2.76967 18.3003 3.76931 19.0393 5.08995C19.7783 6.39224 20.1478 7.96966 20.1478 9.82222V17.0307H22.5035ZM15.6305 17.0307V9.43704C15.6305 7.93298 15.2425 6.79577 14.4665 6.0254C13.709 5.25503 12.6374 4.86984 11.2518 4.86984C9.88454 4.86984 8.80371 5.25503 8.00925 6.0254C7.23327 6.79577 6.84528 7.93298 6.84528 9.43704V17.0307H15.6305Z" fill="#0063A5"/>
<path d="M39.7802 20.6624V11.8032L35.3183 19.2317H33.4892L29.1381 11.7757V20.6624H25.2305V5.86032H29.7478L34.5146 14.4169L39.5862 5.86032H43.6324L43.6878 20.6624H39.7802Z" fill="#0063A5"/>
<path d="M62.545 5.86032V20.6624H58.4157V18.9291C57.8614 19.5711 57.1778 20.0571 56.3648 20.3873C55.5704 20.7175 54.7205 20.8825 53.8152 20.8825C51.8568 20.8825 50.2956 20.3231 49.1316 19.2042C47.9861 18.0854 47.4133 16.4254 47.4133 14.2243V5.86032H51.7367V13.5915C51.7367 15.976 52.7436 17.1683 54.7575 17.1683C55.8106 17.1683 56.6512 16.8381 57.2794 16.1778C57.9076 15.4991 58.2217 14.4995 58.2217 13.1788V5.86032H62.545Z" fill="#0063A5"/>
<path d="M85.7327 5.64021C87.5987 5.64021 89.0768 6.19048 90.1669 7.29101C91.2754 8.37319 91.8297 10.0056 91.8297 12.1884V20.6624H87.5064V12.8487C87.5064 11.6748 87.2569 10.8035 86.7581 10.2349C86.2777 9.64797 85.5849 9.3545 84.6796 9.3545C83.6634 9.3545 82.8597 9.68466 82.2685 10.345C81.6772 10.9869 81.3816 11.9499 81.3816 13.2339V20.6624H77.0583V12.8487C77.0583 10.5192 76.116 9.3545 74.2315 9.3545C73.2338 9.3545 72.4394 9.68466 71.8481 10.345C71.2569 10.9869 70.9613 11.9499 70.9613 13.2339V20.6624H66.638V5.86032H70.7673V7.56614C71.3216 6.9425 71.9959 6.46561 72.7904 6.13545C73.6033 5.80529 74.4902 5.64021 75.4509 5.64021C76.504 5.64021 77.4555 5.85115 78.3054 6.27302C79.1553 6.67654 79.8389 7.27266 80.3562 8.06137C80.9659 7.29101 81.7327 6.69489 82.6565 6.27302C83.5987 5.85115 84.6241 5.64021 85.7327 5.64021Z" fill="#0063A5"/>
<path d="M103.246 5.64021C104.835 5.64021 106.221 5.95203 107.403 6.57566C108.586 7.1993 109.5 8.08889 110.147 9.24444C110.794 10.4 111.117 11.7481 111.117 13.2889C111.117 14.7929 110.812 16.1227 110.202 17.2783C109.593 18.4155 108.734 19.3051 107.625 19.9471C106.516 20.5707 105.242 20.8825 103.8 20.8825C101.897 20.8825 100.41 20.2864 99.3386 19.0942V26H95.0153V13.3164C95.0153 11.794 95.3571 10.455 96.0407 9.29947C96.7243 8.14392 97.685 7.24515 98.9229 6.60317C100.161 5.9612 101.602 5.64021 103.246 5.64021ZM103.052 17.3608C104.179 17.3608 105.094 16.9848 105.796 16.2328C106.498 15.4808 106.849 14.4995 106.849 13.2889C106.849 12.06 106.498 11.0695 105.796 10.3175C105.094 9.54709 104.179 9.1619 103.052 9.1619C101.925 9.1619 101.011 9.53792 100.309 10.2899C99.625 11.042 99.2832 12.0324 99.2832 13.2614C99.2832 14.4903 99.625 15.4808 100.309 16.2328C100.992 16.9848 101.907 17.3608 103.052 17.3608Z" fill="#0063A5"/>
<path d="M121.147 20.8825C119.577 20.8825 118.163 20.5616 116.907 19.9196C115.669 19.2593 114.699 18.3513 113.997 17.1958C113.295 16.0402 112.944 14.7287 112.944 13.2614C112.944 11.794 113.295 10.4825 113.997 9.32698C114.699 8.17143 115.669 7.27266 116.907 6.63069C118.163 5.97037 119.577 5.64021 121.147 5.64021C122.718 5.64021 124.122 5.97037 125.36 6.63069C126.597 7.27266 127.567 8.17143 128.27 9.32698C128.972 10.4825 129.323 11.794 129.323 13.2614C129.323 14.7287 128.972 16.0402 128.27 17.1958C127.567 18.3513 126.597 19.2593 125.36 19.9196C124.122 20.5616 122.718 20.8825 121.147 20.8825ZM121.147 17.3608C122.256 17.3608 123.161 16.994 123.863 16.2603C124.584 15.5083 124.944 14.5086 124.944 13.2614C124.944 12.0141 124.584 11.0236 123.863 10.2899C123.161 9.53792 122.256 9.1619 121.147 9.1619C120.039 9.1619 119.124 9.53792 118.403 10.2899C117.683 11.0236 117.323 12.0141 117.323 13.2614C117.323 14.5086 117.683 15.5083 118.403 16.2603C119.124 16.994 120.039 17.3608 121.147 17.3608Z" fill="#0063A5"/>
<path d="M143.687 12.9312C145.442 13.5182 146.319 14.6921 146.319 16.4529C146.319 17.7919 145.811 18.8282 144.795 19.5619C143.779 20.2956 142.264 20.6624 140.25 20.6624H132.296V5.86032H139.917C141.784 5.86032 143.243 6.19965 144.296 6.87831C145.349 7.53862 145.876 8.47407 145.876 9.68466C145.876 10.4183 145.682 11.0695 145.294 11.6381C144.924 12.1884 144.389 12.6194 143.687 12.9312ZM136.259 11.9407H139.529C141.044 11.9407 141.802 11.4088 141.802 10.345C141.802 9.29947 141.044 8.77672 139.529 8.77672H136.259V11.9407ZM139.89 17.746C141.479 17.746 142.273 17.2049 142.273 16.1228C142.273 15.5541 142.088 15.1414 141.719 14.8847C141.349 14.6095 140.767 14.472 139.973 14.472H136.259V17.746H139.89Z" fill="#0063A5"/>
<path d="M156.631 20.8825C155.042 20.8825 153.61 20.5616 152.335 19.9196C151.079 19.2593 150.09 18.3513 149.37 17.1958C148.668 16.0402 148.317 14.7287 148.317 13.2614C148.317 11.794 148.668 10.4825 149.37 9.32698C150.09 8.17143 151.079 7.27266 152.335 6.63069C153.61 5.97037 155.042 5.64021 156.631 5.64021C158.201 5.64021 159.568 5.97037 160.732 6.63069C161.915 7.27266 162.774 8.19894 163.31 9.40952L159.956 11.1979C159.18 9.84056 158.063 9.1619 156.603 9.1619C155.476 9.1619 154.543 9.52875 153.804 10.2624C153.065 10.9961 152.695 11.9958 152.695 13.2614C152.695 14.527 153.065 15.5266 153.804 16.2603C154.543 16.994 155.476 17.3608 156.603 17.3608C158.081 17.3608 159.199 16.6822 159.956 15.3249L163.31 17.1407C162.774 18.3146 161.915 19.2317 160.732 19.8921C159.568 20.5524 158.201 20.8825 156.631 20.8825Z" fill="#0063A5"/>
<path d="M172.505 15.0497H170.26V20.6624H165.937V5.86032H170.26V11.6106H172.588L176.634 5.86032H181.235L176.025 12.9587L181.595 20.6624H176.496L172.505 15.0497Z" fill="#0063A5"/>
<path d="M198.163 5.86032V20.6624H194.034V18.9291C193.48 19.5711 192.796 20.0571 191.983 20.3873C191.189 20.7175 190.339 20.8825 189.434 20.8825C187.475 20.8825 185.914 20.3231 184.75 19.2042C183.604 18.0854 183.032 16.4254 183.032 14.2243V5.86032H187.355V13.5915C187.355 15.976 188.362 17.1683 190.376 17.1683C191.429 17.1683 192.27 16.8381 192.898 16.1778C193.526 15.4991 193.84 14.4995 193.84 13.1788V5.86032H198.163Z" fill="#0063A5"/>
<path d="M217 5.86032V20.6624H212.871V18.9291C212.316 19.5711 211.633 20.0571 210.82 20.3873C210.025 20.7175 209.176 20.8825 208.27 20.8825C206.312 20.8825 204.751 20.3231 203.587 19.2042C202.441 18.0854 201.868 16.4254 201.868 14.2243V5.86032H206.192V13.5915C206.192 15.976 207.199 17.1683 209.212 17.1683C210.266 17.1683 211.106 16.8381 211.734 16.1778C212.363 15.4991 212.677 14.4995 212.677 13.1788V5.86032H217ZM209.323 4.26455C206.072 4.26455 204.436 2.84303 204.418 0H207.245C207.263 0.641976 207.439 1.14639 207.771 1.51323C208.122 1.86173 208.63 2.03598 209.296 2.03598C209.961 2.03598 210.469 1.86173 210.82 1.51323C211.189 1.14639 211.374 0.641976 211.374 0H214.256C214.238 2.84303 212.594 4.26455 209.323 4.26455Z" fill="#0063A5"/>
</svg>
